<?xml version="1.0" encoding="UTF-8" standalone="no"?>
<!DOCTYPE svg PUBLIC "-//W3C//DTD SVG 1.1//EN" "http://www.w3.org/Graphics/SVG/1.1/DTD/svg11.dtd">
<svg width="8269px" height="2311px" version="1.1" xmlns="http://www.w3.org/2000/svg" xmlns:xlink="http://www.w3.org/1999/xlink" xml:space="preserve" xmlns:serif="http://www.serif.com/" style="fill-rule:evenodd;clip-rule:evenodd;stroke-linecap:round;stroke-linejoin:round;stroke-miterlimit:1;">
    <rect id="level1" x="0" y="0" width="8268.22" height="2310.37" style="fill:#565a75;"/>
    <clipPath id="_clip1">
        <rect id="level11" serif:id="level1" x="0" y="0" width="8268.22" height="2310.37"/>
    </clipPath>
    <g clip-path="url(#_clip1)">
        <path id="mountain" d="M1973.96,842.014C1988.45,748.284 2145.93,676.95 2233.39,658.698C2320.85,640.445 2409.87,755.556 2498.73,732.498C2590.44,708.703 2669.1,549.299 2783.62,515.928C2918.94,476.497 3136.53,520.122 3310.65,495.913C3493.73,470.459 3706.68,356.145 3882.1,363.208C4052.61,370.073 4198.12,494.965 4363.17,538.289C4550.79,587.537 4853.74,599.984 5007.85,658.698C5121.08,701.839 5166.73,886.234 5287.82,890.571C5430.52,895.681 5729.53,697.452 5864.02,689.359C5956.07,683.82 6056.75,792.172 6094.76,842.014C6124.36,880.825 6135.02,965.215 6092.08,988.415C5940.77,1070.16 5509.19,1314.4 5186.92,1332.47C4691.17,1360.27 3624.35,1173.75 3117.61,1155.18C2793.36,1143.31 2337.06,1273.28 2146.45,1221.08C2012.56,1184.42 1959.47,935.745 1973.96,842.014Z" style="fill:#c6b7be;stroke:#c6b7be;stroke-width:7px;"/>
        <path d="M2236.75,662.745C2260.74,658.301 2368.78,688.252 2319.29,697.432C2255.07,709.348 2233.03,685.566 2198.41,697.432C2163.78,709.299 2164.43,755.807 2131.28,740.572C2098.12,725.337 2080.21,719.851 2063.03,749.728C2045.85,779.605 2009.1,793.571 2019.29,771.742C2021.89,766.188 2051.31,738.892 2099.63,713.593C2142.89,690.943 2199.32,669.682 2236.75,662.745Z" style="fill:#fafbf6;stroke:#fafbf6;stroke-width:7px;"/>
        <path d="M2851.67,513.336C2905.74,509.17 3049.94,494.169 2953.39,546.455C2895.95,577.562 2867.13,534.588 2832.5,546.455C2797.88,558.321 2798.52,604.829 2765.37,589.594C2732.22,574.359 2722.24,574.368 2705.06,604.244C2687.88,634.121 2633.08,646.211 2648.24,627.483C2719.89,538.932 2787.06,518.314 2851.67,513.336Z" style="fill:#fafbf6;stroke:#fafbf6;stroke-width:7px;"/>
        <path d="M3788.19,379.652C3855.61,363.749 4017.98,365.573 3962.96,410.623C3912.41,452.008 3876.7,398.756 3842.07,410.623C3807.44,422.49 3808.09,468.997 3774.94,453.762C3741.79,438.527 3731.81,438.536 3714.63,468.413C3697.45,498.289 3653.08,515.276 3657.8,491.651C3662.07,470.308 3708.38,398.48 3788.19,379.652Z" style="fill:#fafbf6;stroke:#fafbf6;stroke-width:7px;"/>
        <path d="M3555.84,437.329C3589.87,419.753 3715.32,377.042 3676.31,410.574C3631.38,449.199 3639.64,481.689 3612.14,491.659C3582.43,502.432 3542.05,508.728 3533.66,493.718C3525.26,478.707 3540.41,445.296 3555.84,437.329Z" style="fill:#fafbf6;stroke:#c6b7be;stroke-width:7px;"/>
        <path d="M4039.76,460.513C4047.36,458.448 4052.03,445.651 4056.28,443.648C4066.93,438.627 4081.12,436.182 4083.55,444.238C4085.98,452.293 4076.15,481.724 4072.03,477.317C4060.32,464.763 4028.98,484.945 4031.05,496.179C4033.57,509.839 3904.42,514.665 3938.28,500.493C3957.76,492.344 3969.86,464.973 3992.15,461.089C4009.84,458.005 4029.07,463.42 4039.76,460.513Z" style="fill:#fafbf6;stroke:#c6b7be;stroke-width:7px;"/>
        <path d="M5032.47,683.586C5050.32,696.521 5190.9,820.227 5087.76,796.278C5024.12,781.503 5034.09,727.705 5000.98,712.116C4967.86,696.527 4935.94,730.365 4922.75,696.348C4909.56,662.331 4902.39,655.392 4869.26,664.877C4836.12,674.362 4792.45,655.67 4812.29,641.998C4830.21,629.647 4966.06,635.472 5032.47,683.586Z" style="fill:#fafbf6;stroke:#fafbf6;stroke-width:7px;"/>
        <path d="M5753.72,727.303C5747.71,755.102 5809.58,733.135 5850.04,771.695C5879.71,799.973 5895.01,713.402 5921.97,731.414C5949.95,750.107 5989.52,699.777 5862.72,689.443C5834.76,687.164 5755.55,718.854 5753.72,727.303Z" style="fill:#fafbf6;stroke:#c6b7be;stroke-width:7px;"/>
        <circle id="start" cx="1662.69" cy="720.851" r="30.661" style="fill:#f0e;"/>
        <g id="Tutorial-1" serif:id="Tutorial 1">
            <path d="M2834.65,956.89C2825.77,973.622 2833.77,1018.22 2833.77,1018.22L2757.73,1060.6C2757.73,1060.6 2763.53,981.368 2757.73,960.361C2755.14,950.965 2690.95,950.49 2690.95,950.49C2662.03,949.148 2663.14,765.016 2690.95,766.264C2746.78,752.531 2840.65,751.841 2892.27,766.264C2919.15,765.88 2920.76,950.061 2892.27,950.49C2892.27,950.49 2839.85,947.11 2834.65,956.89Z" style="fill:#565a75;"/>
            <clipPath id="_clip2">
                <path d="M2834.65,956.89C2825.77,973.622 2833.77,1018.22 2833.77,1018.22L2757.73,1060.6C2757.73,1060.6 2763.53,981.368 2757.73,960.361C2755.14,950.965 2690.95,950.49 2690.95,950.49C2662.03,949.148 2663.14,765.016 2690.95,766.264C2746.78,752.531 2840.65,751.841 2892.27,766.264C2919.15,765.88 2920.76,950.061 2892.27,950.49C2892.27,950.49 2839.85,947.11 2834.65,956.89Z"/>
            </clipPath>
            <g clip-path="url(#_clip2)">
                <path d="M2768.98,1054.16C2764.31,1054.02 2754.79,1017.6 2759.39,1016.78C2786.05,1011.99 2803.37,991.392 2828.29,966.12C2831.42,962.951 2839.62,1022.4 2823.49,1029.58C2802.34,1038.99 2779.67,1054.49 2768.98,1054.16Z" style="fill:#313343;"/>
            </g>
            <path d="M2834.65,956.89C2825.77,973.622 2833.77,1018.22 2833.77,1018.22L2757.73,1060.6C2757.73,1060.6 2763.53,981.368 2757.73,960.361C2755.14,950.965 2690.95,950.49 2690.95,950.49C2662.03,949.148 2663.14,765.016 2690.95,766.264C2746.78,752.531 2840.65,751.841 2892.27,766.264C2919.15,765.88 2920.76,950.061 2892.27,950.49C2892.27,950.49 2839.85,947.11 2834.65,956.89Z" style="fill:none;stroke:#0f0f1b;stroke-width:10px;stroke-miterlimit:1.5;"/>
            <g id="jumplines">
                <path d="M2762.16,843.963C2762.16,843.963 2771.64,809.385 2808.62,796.676" style="fill:none;stroke:#fafbf6;stroke-width:2px;stroke-miterlimit:1.5;"/>
                <path d="M2763.3,870.393C2763.3,870.393 2772.78,835.815 2809.76,823.106" style="fill:none;stroke:#fafbf6;stroke-width:2px;stroke-miterlimit:1.5;"/>
                <path d="M2787.05,868.196C2787.05,868.196 2796.53,833.618 2833.51,820.909" style="fill:none;stroke:#fafbf6;stroke-width:2px;stroke-miterlimit:1.5;"/>
            </g>
            <g id="sign-jump1">
                <path id="foot-front" d="M2710.88,869.964C2710.16,869.313 2709.85,868.555 2710.09,867.686C2713,857.163 2707.29,837.668 2716.08,833.754C2726.56,829.083 2738.31,833.015 2740.4,842.607C2742.43,851.924 2744.56,860.653 2741.9,868.965C2741.55,870.051 2740.05,870.923 2737.87,871.574C2738.25,873.095 2738.79,875.284 2738.77,877.141C2738.71,883.097 2731.44,880.676 2731.48,877.533C2731.48,877.214 2730.94,875.213 2730.53,872.795C2726.39,873.116 2721.8,873.001 2718.01,872.426C2717.92,873.997 2717.77,876.293 2717.18,878.088C2715.31,883.744 2709.12,879.228 2710.11,876.244C2710.23,875.881 2710.34,872.977 2710.88,869.964Z" style="fill:#fafbf6;stroke:#0f0f1b;stroke-width:3px;"/>
                <path id="arm-right" d="M2735.56,860.847C2739.88,862.817 2743.22,863.369 2743.14,864.015C2742.95,865.757 2739.74,867.183 2735.56,867.183C2731.37,867.183 2727.97,865.763 2727.97,864.015C2727.97,862.266 2732.02,859.235 2735.56,860.847Z" style="fill:#fafbf6;stroke:#0f0f1b;stroke-width:3px;"/>
                <path id="arm-left" d="M2747.89,858.595C2750.05,859.357 2751.61,859.395 2751.64,859.768C2751.73,860.774 2750.44,861.847 2748.55,862.193C2746.66,862.539 2744.98,862.014 2744.8,861.021C2744.62,860.028 2746.13,857.972 2747.89,858.595Z" style="fill:#fafbf6;stroke:#0f0f1b;stroke-width:3px;"/>
            </g>
            <g id="sign-jump2">
                <path id="foot-front1" serif:id="foot-front" d="M2826.46,805.556C2825.73,804.906 2825.42,804.147 2825.66,803.278C2828.58,792.755 2822.87,773.26 2831.65,769.346C2842.14,764.675 2853.89,768.607 2855.98,778.199C2858.01,787.516 2860.14,796.245 2857.47,804.557C2857.13,805.643 2855.62,806.516 2853.45,807.166C2853.83,808.688 2858.48,809.581 2858.47,811.438C2858.41,817.394 2851.14,814.973 2851.17,811.83C2851.17,811.511 2846.52,810.805 2846.11,808.387C2841.96,808.708 2837.38,808.593 2833.59,808.018C2833.5,809.589 2828.39,809.801 2827.8,811.596C2827.36,812.914 2826.69,813.679 2825.93,814.041C2823.43,815.232 2819.97,812.041 2820.73,809.752C2820.85,809.39 2825.91,808.569 2826.46,805.556Z" style="fill:#fafbf6;stroke:#0f0f1b;stroke-width:3px;"/>
                <path id="arm-right1" serif:id="arm-right" d="M2849.25,791.087C2853.57,793.057 2856.91,793.609 2856.84,794.255C2856.64,795.998 2853.44,797.423 2849.25,797.423C2845.06,797.423 2841.66,796.004 2841.66,794.255C2841.66,792.507 2845.72,789.476 2849.25,791.087Z" style="fill:#fafbf6;stroke:#0f0f1b;stroke-width:3px;"/>
                <path id="arm-left1" serif:id="arm-left" d="M2861.59,788.836C2863.74,789.597 2865.3,789.635 2865.34,790.008C2865.43,791.014 2864.14,792.088 2862.25,792.433C2860.36,792.779 2858.68,792.254 2858.5,791.261C2858.32,790.268 2859.83,788.212 2861.59,788.836Z" style="fill:#fafbf6;stroke:#0f0f1b;stroke-width:3px;"/>
            </g>
            <g id="space-text" serif:id="space text">
                <path d="M2700.38,894.788C2692.37,896.235 2692.88,927.358 2700.96,928.404C2732.4,932.475 2857.6,934.057 2888.93,928.404C2900.05,926.396 2900.14,895.937 2888.93,894.486C2857.49,890.414 2731.71,889.135 2700.38,894.788Z" style="fill:#0f0f1b;stroke:#0f0f1b;stroke-width:5px;"/>
                <path d="M2703.29,895.712C2695.45,896.896 2695.95,922.383 2703.85,923.24C2734.6,926.574 2857.05,927.869 2887.69,923.24C2898.57,921.596 2898.66,896.653 2887.69,895.464C2856.94,892.129 2733.93,891.082 2703.29,895.712Z" style="fill:#fafbf6;"/>
                <g transform="matrix(24,0,0,24,2830.37,915.458)">
                </g>
                <text x="2759.66px" y="915.458px" style="font-family:'Arial-BoldMT', 'Arial', sans-serif;font-weight:700;font-size:24px;">Space</text>
            </g>
        </g>
        <path d="M1956.95,452.646C1935.71,405.324 1894.8,421.466 1876.71,367.706C1832.58,236.585 1754.73,41.081 1788.83,-109.461C1825.2,-270.034 2061.1,-356.958 2189.81,-388.241C2720.97,-517.347 4358.68,-317.792 5090.91,-285.655C5588.77,-263.804 6334.85,-296.56 6583.2,-195.417C6742.69,-130.464 6738.74,252.074 6581.02,321.203C6491.11,360.608 6338.68,400.574 6156.06,436.37C6131.94,441.096 6093.63,398.905 6068.55,403.474C6056,405.76 6057.01,454.87 6044.24,457.113C5656.84,525.168 5173.94,572.711 4855.85,561.66C4825.06,560.591 4804.13,533.393 4773.71,529.744C4752.86,527.242 4722.42,548.924 4701.71,545.358C4353.99,485.481 4026.75,284.194 3678.67,229.036C3653.65,225.071 3637.33,197.421 3612.08,195.073C3588.27,192.86 3555.54,215.852 3531.51,215.26C3305.67,209.7 2991.33,288.116 2695.7,364.854C2673.93,370.506 2652.26,349.129 2630.74,354.728C2602.69,362.022 2574.89,396.262 2547.43,403.334C2363.98,450.58 2195.68,491.168 2070.78,502.538C1999.09,509.064 1979.8,503.548 1956.95,452.646Z" style="fill:#51556e;stroke:#51556b;stroke-width:5px;"/>
        <path id="ground--collision-" serif:id="ground {collision}" d="M9096.78,2666.67C9010.09,2686.11 124.489,2116.14 124.489,2116.14L143.335,-233.256L1916.38,-211.082C1916.38,-211.082 1978.57,312.499 1916.38,420.407C1854.23,528.262 1605.16,373.536 1543.28,436.367C1481.39,499.199 1496.46,733.524 1545.07,797.395C1627.23,905.367 1797.66,738.263 1916.38,774.102C2090.21,826.573 2178.2,1107.36 2588.02,1112.22C2775.11,1114.44 2953.85,866.45 3170,929.221C3395.32,994.651 3702.17,1030.02 3813.33,979.87C3923.82,930.021 4276.98,833.744 4583.85,843.919C4890.71,854.094 5530.54,1269.79 5841.79,1081.53C6153.03,893.276 6003.02,832.155 6361.37,841.512C6699.79,850.349 6659.8,152.829 6437.86,76.119C6383.99,57.498 6240.22,92.231 6190.24,74.325C6140.26,56.419 6141.98,-185.078 6241.86,-198.433C6341.75,-211.788 9075.21,-824.821 9064.3,-179.18C9053.39,466.46 9183.47,2647.24 9096.78,2666.67Z" style="fill:#565a75;stroke:#0f0f1b;stroke-width:15px;"/>
        <g id="Tutorial-goal" serif:id="Tutorial goal">
            <path d="M6566.99,515.836C6574.07,524.522 6611.88,516.543 6608.44,525.777C6603.72,538.435 6597.07,584.061 6598.83,595.846C6600.07,604.149 6569.35,584.089 6560.28,592.543C6551.21,600.998 6562.11,640.3 6544.42,646.574C6522.2,654.452 6445.39,668.5 6426.99,639.813C6408.6,611.126 6410.88,502.146 6434.05,474.454C6457.22,446.761 6543.86,466.761 6566.01,473.658C6579.44,477.838 6559.92,507.149 6566.99,515.836Z" style="fill:#565a75;"/>
            <clipPath id="_clip3">
                <path d="M6566.99,515.836C6574.07,524.522 6611.88,516.543 6608.44,525.777C6603.72,538.435 6597.07,584.061 6598.83,595.846C6600.07,604.149 6569.35,584.089 6560.28,592.543C6551.21,600.998 6562.11,640.3 6544.42,646.574C6522.2,654.452 6445.39,668.5 6426.99,639.813C6408.6,611.126 6410.88,502.146 6434.05,474.454C6457.22,446.761 6543.86,466.761 6566.01,473.658C6579.44,477.838 6559.92,507.149 6566.99,515.836Z"/>
            </clipPath>
            <g clip-path="url(#_clip3)">
                <path d="M6598.54,597.313C6595.8,601.1 6557.04,592.462 6558.94,588.195C6569.96,563.449 6567.48,547.158 6563.23,519.664C6562.21,513.078 6611.94,521.036 6608.82,538.404C6604.73,561.193 6604.81,588.658 6598.54,597.313Z" style="fill:#313343;"/>
            </g>
            <path d="M6566.99,515.836C6574.07,524.522 6611.88,516.543 6608.44,525.777C6603.72,538.435 6597.07,584.061 6598.83,595.846C6600.07,604.149 6569.35,584.089 6560.28,592.543C6551.21,600.998 6562.11,640.3 6544.42,646.574C6522.2,654.452 6445.39,668.5 6426.99,639.813C6408.6,611.126 6410.88,502.146 6434.05,474.454C6457.22,446.761 6543.86,466.761 6566.01,473.658C6579.44,477.838 6559.92,507.149 6566.99,515.836Z" style="fill:none;stroke:#0f0f1b;stroke-width:10px;stroke-miterlimit:1.5;"/>
            <g id="up-button" serif:id="up button">
                <path d="M6465.83,598.041C6463.93,599.487 6464.05,630.61 6465.97,631.656C6473.41,635.728 6503.03,637.309 6510.45,631.656C6513.08,629.648 6513.1,599.19 6510.45,597.738C6503.01,593.666 6473.24,592.387 6465.83,598.041Z" style="fill:#0f0f1b;stroke:#0f0f1b;stroke-width:5px;"/>
                <path d="M6468.18,598.964C6466.47,600.148 6466.57,625.635 6468.3,626.492C6475.03,629.826 6501.83,631.121 6508.54,626.492C6510.92,624.848 6510.94,599.905 6508.54,598.716C6501.81,595.382 6474.89,594.334 6468.18,598.964Z" style="fill:#fafbf6;"/>
                <path d="M6495.12,618.766C6495.95,618.75 6496.7,618.27 6497.06,617.523C6497.42,616.777 6497.33,615.891 6496.83,615.232C6494.9,612.712 6492.35,609.37 6490.69,607.199C6490.28,606.664 6489.65,606.347 6488.97,606.336C6488.3,606.326 6487.66,606.624 6487.24,607.146C6485.44,609.343 6482.64,612.791 6480.49,615.42C6479.95,616.084 6479.85,617.001 6480.22,617.771C6480.6,618.541 6481.38,619.023 6482.24,619.007C6486.07,618.936 6491.41,618.836 6495.12,618.766Z" style="fill:#0f0f1b;stroke:#0f0f1b;stroke-width:5px;"/>
            </g>
            <g>
                <path d="M6475.52,579.052C6474.23,573.911 6473.37,567.913 6477.43,558.622" style="fill:none;stroke:#fafbf6;stroke-width:2px;"/>
                <path d="M6491.3,581.365C6490.41,574.947 6490.64,567.478 6493.2,560.934" style="fill:none;stroke:#fafbf6;stroke-width:2px;"/>
                <path d="M6483.41,584.843C6482.52,578.426 6482.75,570.956 6485.31,564.413" style="fill:none;stroke:#fafbf6;stroke-width:2px;"/>
            </g>
            <g id="goal-hint" serif:id="goal=hint">
                <path d="M6459.24,545.668C6457.17,541.145 6456.01,536.124 6456.01,530.839C6456.01,510.975 6472.33,494.848 6492.43,494.848C6512.53,494.848 6528.84,510.975 6528.84,530.839C6528.84,536.124 6527.69,541.145 6525.61,545.668L6459.24,545.668Z" style="fill:#fafbf6;stroke:#0f0f1b;stroke-width:2px;"/>
                <path d="M6466.73,545.668C6464.33,541.467 6462.96,536.62 6462.96,531.459C6462.96,515.445 6476.16,502.444 6492.43,502.444C6508.69,502.444 6521.9,515.445 6521.9,531.459C6521.9,536.62 6520.53,541.467 6518.13,545.668L6466.73,545.668Z" style="fill:#0f0f1b;stroke:#0f0f1b;stroke-width:2px;"/>
            </g>
            <g id="goul-hont-player">
                <path id="foot-front2" serif:id="foot-front" d="M6479.75,543.429C6478.98,542.993 6478.45,542.485 6478.25,541.903C6475.92,534.857 6463.88,521.802 6468.35,519.181C6473.68,516.053 6483.46,518.686 6488.89,525.109C6494.16,531.348 6499.25,537.193 6500.85,542.76C6501.05,543.487 6500.37,544.071 6499.13,544.506C6500.03,545.526 6501.31,546.991 6502.07,548.235C6504.49,552.223 6498.45,550.602 6497.17,548.497C6497.04,548.284 6495.83,546.943 6494.55,545.324C6491.81,545.539 6488.58,545.462 6485.72,545.077C6486.3,546.129 6487.15,547.667 6487.49,548.869C6488.53,552.656 6482.37,549.632 6481.82,547.634C6481.75,547.391 6480.62,545.446 6479.75,543.429Z" style="fill:#fafbf6;stroke:#0f0f1b;stroke-width:3px;"/>
                <path id="arm-right2" serif:id="arm-right" d="M6495.98,535.594C6498.41,536.913 6500.06,537.283 6500.18,537.716C6500.5,538.883 6499.38,539.837 6497.48,539.837C6495.58,539.837 6493.7,538.887 6493.29,537.716C6492.87,536.545 6494,534.515 6495.98,535.594Z" style="fill:#fafbf6;stroke:#0f0f1b;stroke-width:3px;"/>
                <path id="arm-left2" serif:id="arm-left" d="M6500.71,535.816C6502.51,536.326 6503.61,536.351 6503.79,536.601C6504.27,537.274 6503.82,537.993 6502.65,538.225C6501.49,538.456 6500.11,538.105 6499.57,537.44C6499.03,536.775 6499.23,535.398 6500.71,535.816Z" style="fill:#fafbf6;stroke:#0f0f1b;stroke-width:3px;"/>
            </g>
        </g>
        <g id="japanese-skies" serif:id="japanese skies">
            <g>
                <path d="M5060.09,174.884C5060.09,165.86 5052.77,158.534 5043.74,158.534L4826.52,158.534C4817.5,158.534 4810.17,165.86 4810.17,174.884C4810.17,183.907 4817.5,191.233 4826.52,191.233L5043.74,191.233C5052.77,191.233 5060.09,183.907 5060.09,174.884Z" style="fill:#565a75;"/>
                <path d="M4916.66,225.211L4853.82,225.211C4862.85,225.211 4870.18,217.312 4870.18,207.583C4870.18,197.853 4862.85,189.954 4853.82,189.954L4916.66,189.954C4907.64,189.954 4900.31,197.853 4900.31,207.583C4900.31,217.312 4907.64,225.211 4916.66,225.211Z" style="fill:#565a75;"/>
                <path d="M5117.47,240.282C5117.47,231.258 5110.15,223.932 5101.12,223.932L4769.14,223.932C4760.12,223.932 4752.79,231.258 4752.79,240.282C4752.79,249.305 4760.12,256.631 4769.14,256.631L5101.12,256.631C5110.15,256.631 5117.47,249.305 5117.47,240.282Z" style="fill:#565a75;"/>
            </g>
            <g>
                <path d="M2630.74,207.583C2630.74,198.559 2623.41,191.233 2614.39,191.233L2397.17,191.233C2388.14,191.233 2380.82,198.559 2380.82,207.583C2380.82,216.606 2388.14,223.932 2397.17,223.932L2614.39,223.932C2623.41,223.932 2630.74,216.606 2630.74,207.583Z" style="fill:#565a75;"/>
                <path d="M2487.31,257.91L2424.47,257.91C2433.49,257.91 2440.82,250.011 2440.82,240.282C2440.82,230.552 2433.49,222.653 2424.47,222.653L2487.31,222.653C2478.28,222.653 2470.96,230.552 2470.96,240.282C2470.96,250.011 2478.28,257.91 2487.31,257.91Z" style="fill:#565a75;"/>
                <path d="M2522.13,272.981C2522.13,263.957 2514.8,256.631 2505.78,256.631L2339.79,256.631C2330.76,256.631 2323.44,263.957 2323.44,272.981C2323.44,282.004 2330.76,289.33 2339.79,289.33L2505.78,289.33C2514.8,289.33 2522.13,282.004 2522.13,272.981Z" style="fill:#565a75;"/>
                <path d="M2440.82,338.378C2440.82,329.355 2433.49,322.029 2424.47,322.029L2339.79,322.029C2330.76,322.029 2323.44,329.355 2323.44,338.378C2323.44,347.402 2330.76,354.728 2339.79,354.728L2424.47,354.728C2433.49,354.728 2440.82,347.402 2440.82,338.378Z" style="fill:#565a75;"/>
            </g>
            <g>
                <path d="M3633.31,33.298C3633.31,24.275 3640.64,16.949 3649.66,16.949L3866.88,16.949C3875.9,16.949 3883.23,24.275 3883.23,33.298C3883.23,42.322 3875.9,49.648 3866.88,49.648L3649.66,49.648C3640.64,49.648 3633.31,42.322 3633.31,33.298Z" style="fill:#565a75;"/>
                <path d="M3776.74,83.626L3839.58,83.626C3830.55,83.626 3823.23,75.727 3823.23,65.997C3823.23,56.268 3830.55,48.369 3839.58,48.369L3776.74,48.369C3785.76,48.369 3793.09,56.268 3793.09,65.997C3793.09,75.727 3785.76,83.626 3776.74,83.626Z" style="fill:#565a75;"/>
                <path d="M3741.92,98.696C3741.92,89.673 3749.25,82.347 3758.27,82.347L3924.26,82.347C3933.28,82.347 3940.61,89.673 3940.61,98.696C3940.61,107.72 3933.28,115.046 3924.26,115.046L3758.27,115.046C3749.25,115.046 3741.92,107.72 3741.92,98.696Z" style="fill:#565a75;"/>
            </g>
            <g>
                <path d="M4320.44,372.635L4383.28,372.635C4374.25,372.635 4366.93,364.736 4366.93,355.007C4366.93,345.277 4374.25,337.378 4383.28,337.378L4320.44,337.378C4329.46,337.378 4336.79,345.277 4336.79,355.007C4336.79,364.736 4329.46,372.635 4320.44,372.635Z" style="fill:#565a75;"/>
                <path d="M4263.17,322.029C4263.17,313.005 4270.49,305.68 4279.52,305.68L4415.52,305.68C4424.55,305.68 4431.87,313.005 4431.87,322.029C4431.87,331.052 4424.55,338.378 4415.52,338.378L4279.52,338.378C4270.49,338.378 4263.17,331.052 4263.17,322.029Z" style="fill:#565a75;"/>
                <path d="M4263.17,386.985C4263.17,377.961 4270.49,370.635 4279.52,370.635L4610.95,370.635C4619.98,370.635 4627.3,377.961 4627.3,386.985C4627.3,396.008 4619.98,403.334 4610.95,403.334L4279.52,403.334C4270.49,403.334 4263.17,396.008 4263.17,386.985Z" style="fill:#565a75;"/>
            </g>
        </g>
        <rect id="_-box-" serif:id="{box}" x="3060.54" y="825.072" width="79.317" height="79.317" style="fill:none;stroke:#0f0f1b;stroke-width:5px;"/>
        <rect id="_-box-1" serif:id="{box}" x="3060.54" y="739.53" width="79.317" height="79.317" style="fill:none;stroke:#0f0f1b;stroke-width:5px;"/>
        <rect id="_-box-2" serif:id="{box}" x="3060.54" y="654.279" width="79.317" height="79.317" style="fill:none;stroke:#0f0f1b;stroke-width:5px;"/>
        <path id="foreground-shadow" d="M-55.992,-318.083C-54.584,-381.148 893.841,-417.92 917.386,-346.106C946.71,-256.666 932.195,-14.502 964.232,233.749C967.325,257.713 928.686,281.734 932.728,305.68C936.833,330 983.634,354.242 988.886,378.269C1019.81,519.705 1072.09,653.665 1163.11,751.963C1202.98,795.015 1243.63,837.503 1284.62,878.85C1289.75,884.02 1282.93,902.639 1288.07,907.772C1292.99,912.69 1309.86,904.123 1314.78,909.005C1558.44,1150.4 1810.45,1346.81 1979.94,1378.34C2302.69,1438.38 2653.16,1325.89 2914.48,1239.66C2929.68,1234.64 2955.88,1268.21 2970.45,1263.4C2984.15,1258.9 2986.27,1216.01 2999.37,1211.76C3110.84,1175.59 3200.17,1149.95 3255.63,1154.83C3410.35,1168.42 3855.28,1252.52 4260.05,1320.54C4280.89,1324.04 4299.19,1352.48 4319.78,1355.89C4340.53,1359.32 4363.57,1337.72 4383.97,1341.03C4428.35,1348.24 4471.78,1355.12 4513.78,1361.56C4966.18,1430.92 5659.54,1437.48 6017.64,1391.4C6115.77,1378.78 6210.12,1347.37 6300.85,1305.14C6325.05,1293.88 6384.8,1333.12 6408.48,1320.48C6436.41,1305.56 6428.17,1238.51 6455.4,1222.13C6526.77,1179.17 6595.74,1132 6662.42,1085.08C6693.01,1063.55 6847,960.216 6936,899.288C6969.33,876.468 7012.09,912.856 7027.77,901.574C7068,872.639 7038.86,833.659 7081.49,800.626C7405.99,549.149 7809.03,148.29 7926.65,-353.544C8063.04,-935.435 8985.29,-738.732 8988.59,-699.369C8991.7,-662.334 9363.26,2416.97 9358.45,2574.52C9353.1,2750.18 -248.297,2571.07 -236.682,2484.64C-225.066,2398.22 -61.394,-76.153 -55.992,-318.083Z" style="fill:#313343;stroke:#313343;stroke-width:5px;"/>
        <g id="Tutorial-11" serif:id="Tutorial 1">
            <path d="M1695.61,465.896C1704.48,461.612 1698,434.661 1707.03,438.623C1719.4,444.054 1764.57,453.282 1776.44,452.191C1784.8,451.423 1765.58,471.326 1771.81,476.948C1779.88,484.224 1819.6,477.829 1824.86,495.847C1831.46,518.472 1841.13,595.96 1811.45,612.699C1781.77,629.438 1673.09,620.982 1646.76,596.28C1620.42,571.578 1645.3,486.216 1653.44,464.486C1658.38,451.317 1686.68,470.207 1695.61,465.896Z" style="fill:#565a75;"/>
            <clipPath id="_clip4">
                <path d="M1695.61,465.896C1704.48,461.612 1698,434.661 1707.03,438.623C1719.4,444.054 1764.57,453.282 1776.44,452.191C1784.8,451.423 1765.58,471.326 1771.81,476.948C1779.88,484.224 1819.6,477.829 1824.86,495.847C1831.46,518.472 1841.13,595.96 1811.45,612.699C1781.77,629.438 1673.09,620.982 1646.76,596.28C1620.42,571.578 1645.3,486.216 1653.44,464.486C1658.38,451.317 1686.68,470.207 1695.61,465.896Z"/>
            </clipPath>
            <g clip-path="url(#_clip4)">
                <path d="M1774,453.609C1777.63,456.561 1771.55,480.177 1767.39,478.038C1743.31,465.638 1726.91,467.185 1699.22,469.87C1692.59,470.513 1698.61,435.91 1715.77,440.007C1738.29,445.384 1765.72,446.86 1774,453.609Z" style="fill:#313343;"/>
            </g>
            <path d="M1695.61,465.896C1704.48,461.612 1698,434.661 1707.03,438.623C1719.4,444.054 1764.57,453.282 1776.44,452.191C1784.8,451.423 1765.58,471.326 1771.81,476.948C1779.88,484.224 1819.6,477.829 1824.86,495.847C1831.46,518.472 1841.13,595.96 1811.45,612.699C1781.77,629.438 1673.09,620.982 1646.76,596.28C1620.42,571.578 1645.3,486.216 1653.44,464.486C1658.38,451.317 1686.68,470.207 1695.61,465.896Z" style="fill:none;stroke:#0f0f1b;stroke-width:10px;stroke-miterlimit:1.5;"/>
            <g id="space-text1" serif:id="space text">
                <path d="M1673.08,555.078C1671.18,556.525 1671.3,587.648 1673.21,588.694C1680.65,592.765 1710.28,594.347 1717.7,588.694C1720.33,586.686 1720.35,556.227 1717.7,554.775C1710.26,550.704 1680.49,549.425 1673.08,555.078Z" style="fill:#0f0f1b;stroke:#0f0f1b;stroke-width:5px;"/>
                <path d="M1675.43,556.001C1673.71,557.186 1673.82,582.673 1675.55,583.529C1682.28,586.863 1709.08,588.159 1715.79,583.529C1718.17,581.885 1718.19,556.942 1715.79,555.753C1709.06,552.419 1682.13,551.372 1675.43,556.001Z" style="fill:#fafbf6;"/>
                <path d="M1700.26,563.794C1700.29,562.965 1699.86,562.189 1699.13,561.786C1698.41,561.384 1697.52,561.423 1696.83,561.888C1694.2,563.667 1690.72,566.026 1688.46,567.559C1687.9,567.936 1687.55,568.548 1687.5,569.219C1687.45,569.89 1687.71,570.547 1688.21,571.001C1690.3,572.915 1693.58,575.919 1696.08,578.209C1696.71,578.787 1697.62,578.946 1698.41,578.616C1699.2,578.286 1699.73,577.528 1699.76,576.672C1699.91,572.847 1700.12,567.509 1700.26,563.794Z" style="fill:#0f0f1b;stroke:#0f0f1b;stroke-width:5px;"/>
            </g>
            <g id="space-text2" serif:id="space text">
                <path d="M1743.07,555.214C1741.17,556.66 1741.29,587.783 1743.2,588.829C1750.64,592.901 1780.27,594.482 1787.69,588.829C1790.32,586.822 1790.34,556.363 1787.69,554.911C1780.25,550.839 1750.48,549.561 1743.07,555.214Z" style="fill:#0f0f1b;stroke:#0f0f1b;stroke-width:5px;"/>
                <path d="M1745.42,556.137C1743.7,557.321 1743.81,582.808 1745.54,583.665C1752.27,586.999 1779.07,588.294 1785.78,583.665C1788.16,582.021 1788.18,557.078 1785.78,555.889C1779.05,552.555 1752.12,551.507 1745.42,556.137Z" style="fill:#fafbf6;"/>
                <path d="M1761.27,576.468C1761.29,577.297 1761.77,578.046 1762.52,578.404C1763.27,578.763 1764.15,578.67 1764.81,578.165C1767.32,576.231 1770.66,573.667 1772.83,572.002C1773.36,571.592 1773.67,570.96 1773.68,570.287C1773.69,569.614 1773.39,568.975 1772.87,568.551C1770.67,566.766 1767.21,563.964 1764.58,561.829C1763.91,561.289 1763,561.185 1762.23,561.562C1761.46,561.938 1760.98,562.727 1761,563.583C1761.08,567.41 1761.19,572.751 1761.27,576.468Z" style="fill:#0f0f1b;stroke:#0f0f1b;stroke-width:5px;"/>
            </g>
            <g id="sign-jump11" serif:id="sign-jump1">
                <path id="foot-front3" serif:id="foot-front" d="M1743.75,533.471C1743.02,532.821 1742.71,532.062 1742.95,531.193C1745.87,520.671 1740.16,501.175 1748.94,497.261C1759.43,492.591 1771.18,496.522 1773.27,506.114C1775.3,515.431 1777.43,524.16 1774.77,532.472C1774.42,533.558 1772.91,534.431 1770.73,535.081C1771.12,536.603 1771.66,538.791 1771.64,540.649C1771.58,546.605 1764.31,544.183 1764.35,541.04C1764.35,540.722 1763.81,538.72 1763.4,536.302C1759.25,536.624 1754.67,536.509 1750.88,535.934C1750.79,537.504 1750.64,539.801 1750.05,541.595C1748.18,547.251 1741.99,542.735 1742.98,539.751C1743.1,539.389 1743.2,536.484 1743.75,533.471Z" style="fill:#fafbf6;stroke:#0f0f1b;stroke-width:3px;"/>
                <path id="arm-right3" serif:id="arm-right" d="M1768.42,524.354C1772.75,526.324 1776.09,526.877 1776.01,527.522C1775.81,529.265 1772.61,530.69 1768.42,530.69C1764.24,530.69 1760.84,529.271 1760.84,527.522C1760.84,525.774 1764.89,522.743 1768.42,524.354Z" style="fill:#fafbf6;stroke:#0f0f1b;stroke-width:3px;"/>
                <path id="arm-left3" serif:id="arm-left" d="M1780.76,522.103C1782.91,522.864 1784.48,522.902 1784.51,523.275C1784.6,524.281 1783.31,525.355 1781.42,525.701C1779.53,526.046 1777.85,525.521 1777.67,524.528C1777.49,523.535 1779,521.48 1780.76,522.103Z" style="fill:#fafbf6;stroke:#0f0f1b;stroke-width:3px;"/>
            </g>
            <path d="M1674.25,521.868C1674.25,521.868 1717.47,509.086 1727.77,514.966" style="fill:none;stroke:#fafbf6;stroke-width:5px;"/>
            <path d="M1679.31,540.437C1679.31,540.437 1722.53,527.655 1732.83,533.535" style="fill:none;stroke:#fafbf6;stroke-width:5px;"/>
        </g>
        <g id="goal">
            <path d="M6199.12,839.932C6192.77,826.082 6189.23,810.707 6189.23,794.522C6189.23,733.691 6239.2,684.305 6300.75,684.305C6362.29,684.305 6412.26,733.691 6412.26,794.522C6412.26,810.707 6408.72,826.082 6402.37,839.932L6199.12,839.932Z" style="fill:#c6b7be;"/>
            <path d="M6222.05,842.014C6214.69,828.949 6210.49,813.87 6210.49,797.819C6210.49,748.006 6250.93,707.565 6300.75,707.565C6350.56,707.565 6391,748.006 6391,797.819C6391,813.87 6386.8,828.949 6379.44,842.014L6222.05,842.014Z" style="fill:#0f0f1b;"/>
        </g>
        <g id="goal1" serif:id="goal">
            <path d="M6199.12,839.932C6192.77,826.082 6189.23,810.707 6189.23,794.522C6189.23,733.691 6239.2,684.305 6300.75,684.305C6362.29,684.305 6412.26,733.691 6412.26,794.522C6412.26,810.707 6408.72,826.082 6402.37,839.932L6199.12,839.932Z" style="fill:#fafbf6;stroke:#0f0f1b;stroke-width:7px;"/>
            <path d="M6222.05,842.014C6214.69,828.949 6210.49,813.87 6210.49,797.819C6210.49,748.006 6250.93,707.565 6300.75,707.565C6350.56,707.565 6391,748.006 6391,797.819C6391,813.87 6386.8,828.949 6379.44,842.014L6222.05,842.014Z" style="fill:#0f0f1b;stroke:#0f0f1b;stroke-width:10px;"/>
        </g>
        <circle id="_-goal-" serif:id="{goal}" cx="6300.75" cy="763.159" r="30.661" style="fill:#f0e;"/>
        <circle id="_-spinningBar-" serif:id="{spinningBar}" cx="4586.95" cy="658.698" r="30.661" style="fill:#ff1717;"/>
    </g>
</svg>
