<?xml version="1.0" encoding="UTF-8" standalone="no"?>
<!DOCTYPE svg PUBLIC "-//W3C//DTD SVG 1.1//EN" "http://www.w3.org/Graphics/SVG/1.1/DTD/svg11.dtd">
<svg width="8269px" height="2311px" version="1.1" xmlns="http://www.w3.org/2000/svg" xmlns:xlink="http://www.w3.org/1999/xlink" xml:space="preserve" xmlns:serif="http://www.serif.com/" style="fill-rule:evenodd;clip-rule:evenodd;stroke-linecap:round;stroke-linejoin:round;stroke-miterlimit:1;">
    <rect id="level0" x="0" y="0" width="8268.22" height="2310.37" style="fill:#565a75;"/>
    <clipPath id="_clip1">
        <rect id="level01" serif:id="level0" x="0" y="0" width="8268.22" height="2310.37"/>
    </clipPath>
    <g clip-path="url(#_clip1)">
        <g id="mountain--parallax-back-" serif:id="mountain {parallax-back}">
            <path d="M6190.64,956.457C6168.52,852.906 6018.67,791.393 5931.21,773.14C5843.75,754.887 5754.73,869.998 5665.86,846.94C5574.16,823.146 5495.5,663.742 5380.97,630.37C5245.65,590.939 5028.07,634.564 4853.94,610.355C4670.86,584.902 4457.91,470.587 4282.49,477.65C4111.99,484.515 3966.48,609.407 3801.43,652.731C3613.8,701.979 3310.86,714.426 3156.75,773.14C3043.51,816.281 2997.87,1000.68 2876.77,1005.01C2734.08,1010.12 2435.07,811.894 2300.58,803.801C2208.52,798.262 2107.85,906.614 2069.84,956.457C2040.24,995.267 2029.58,1079.66 2072.52,1102.86C2223.83,1184.6 2657.77,1403.93 2977.68,1446.92C3487.66,1515.44 4611.4,1491.84 5132.38,1514.01C5456.55,1527.8 5927.16,1672.83 6103.53,1579.91C6279.91,1486.98 6219.36,1090.92 6190.64,956.457Z" style="fill:#c6b7be;stroke:#c6b7be;stroke-width:7px;"/>
            <path d="M5927.84,777.187C5903.86,772.743 5795.82,802.694 5845.3,811.874C5909.53,823.791 5931.56,800.008 5966.19,811.874C6000.82,823.741 6000.17,870.249 6033.32,855.014C6066.47,839.779 6084.39,834.294 6101.57,864.17C6118.75,894.047 6155.5,908.013 6145.3,886.184C6142.71,880.63 6113.28,853.334 6064.96,828.035C6021.7,805.386 5965.28,784.124 5927.84,777.187Z" style="fill:#fafbf6;stroke:#fafbf6;stroke-width:7px;"/>
            <path d="M5312.92,627.778C5258.86,623.612 5114.66,608.611 5211.21,660.897C5268.65,692.004 5297.47,649.03 5332.1,660.897C5366.72,672.763 5366.07,719.271 5399.23,704.036C5432.38,688.801 5442.35,688.81 5459.53,718.686C5476.72,748.563 5531.51,760.653 5516.36,741.925C5444.7,653.374 5377.53,632.756 5312.92,627.778Z" style="fill:#fafbf6;stroke:#fafbf6;stroke-width:7px;"/>
            <path d="M4376.4,494.094C4308.98,478.191 4146.62,480.015 4201.64,525.065C4252.18,566.45 4287.9,513.198 4322.53,525.065C4357.16,536.932 4356.51,583.44 4389.66,568.204C4422.81,552.969 4432.79,552.978 4449.97,582.855C4467.15,612.731 4511.52,629.718 4506.79,606.094C4502.53,584.75 4456.22,512.922 4376.4,494.094Z" style="fill:#fafbf6;stroke:#fafbf6;stroke-width:7px;"/>
            <path d="M4608.76,551.771C4574.73,534.195 4449.27,491.484 4488.28,525.017C4533.22,563.641 4524.96,596.131 4552.46,606.101C4582.17,616.874 4622.54,623.17 4630.94,608.16C4639.34,593.149 4624.18,559.738 4608.76,551.771Z" style="fill:#fafbf6;stroke:#c6b7be;stroke-width:7px;"/>
            <path d="M4124.84,574.956C4117.24,572.89 4112.56,560.094 4108.32,558.09C4097.67,553.069 4083.47,550.624 4081.04,558.68C4078.62,566.735 4088.45,596.166 4092.56,591.759C4104.28,579.205 4135.62,599.387 4133.55,610.621C4131.03,624.281 4260.18,629.107 4226.31,614.935C4206.84,606.786 4194.73,579.415 4172.45,575.531C4154.75,572.447 4135.52,577.862 4124.84,574.956Z" style="fill:#fafbf6;stroke:#c6b7be;stroke-width:7px;"/>
            <path d="M3132.13,798.028C3114.28,810.963 2973.7,934.669 3076.84,910.72C3140.47,895.945 3130.5,842.147 3163.62,826.558C3196.74,810.97 3228.65,844.807 3241.85,810.79C3255.04,776.773 3262.2,769.834 3295.34,779.319C3328.47,788.804 3372.14,770.112 3352.31,756.44C3334.39,744.089 3198.54,749.914 3132.13,798.028Z" style="fill:#fafbf6;stroke:#fafbf6;stroke-width:7px;"/>
            <path d="M2410.87,841.745C2416.89,869.544 2355.02,847.577 2314.56,886.137C2284.89,914.415 2269.58,827.844 2242.63,845.856C2214.65,864.549 2175.07,814.219 2301.88,803.885C2329.84,801.607 2409.04,833.296 2410.87,841.745Z" style="fill:#fafbf6;stroke:#c6b7be;stroke-width:7px;"/>
        </g>
        <path id="ground--collision-" serif:id="ground {collision}" d="M1614.2,-247.057C2187.82,329.174 1041.23,37.103 982.123,159.038C854.401,422.511 997.646,1165.37 1385.54,1109.38C1592.64,1079.49 1878.3,951.512 2126.34,985.516C2414.15,1024.97 2397.57,1346.13 3112.45,1346.13C3827.34,1346.13 3703.2,1031.76 4027.54,977.47C4404.11,914.445 5143.87,1129.52 5371.86,967.979C5511.17,869.277 5703.88,470.937 5387.68,231.22C5186.38,78.615 5522.23,-28.646 5477,-144.614C5380.17,-392.887 5603.09,-761.627 5917.18,-811.408C6659.48,-929.057 6997.14,-332.457 7204.99,-17.878C7500.79,429.809 8026.39,2403.58 7170.27,2694.37C5791.92,3162.53 288.832,3241.15 -1065.11,2791.12C-1950.53,2496.83 -1205.44,576.817 -953.37,-5.788C-707.894,-573.15 1327.02,-535.543 1614.2,-247.057Z" style="fill:#565a75;stroke:#000;stroke-width:15px;stroke-miterlimit:1.5;"/>
        <circle id="storeBooth" cx="3075.48" cy="1236.89" r="30.661" style="fill:#f0e;"/>
        <circle id="_-door---to-level1---numCapsules-2-" serif:id="{door} {to-level1} {numCapsules-2}" cx="4164.77" cy="880.077" r="30.661" style="fill:#f0e;"/>
        <circle id="_-door---to-level2---numCapsules-2-" serif:id="{door} {to-level2} {numCapsules-2}" cx="4551.13" cy="910.738" r="30.661" style="fill:#f0e;"/>
        <circle id="_-door---to-level3---numCapsules-3-" serif:id="{door} {to-level3} {numCapsules-3}" cx="4997.41" cy="941.4" r="30.661" style="fill:#f0e;"/>
        <circle id="start" cx="1364.94" cy="930.425" r="30.661" style="fill:#f0e;"/>
        <path id="foreground-shadow--parallax-front-" serif:id="foreground-shadow {parallax-front}" d="M8622,-491.18C8620.59,-554.246 5799.98,-344.1 5776.44,-272.287C5747.11,-182.846 5761.63,59.318 5729.59,307.569C5726.5,331.533 5765.14,355.554 5761.1,379.499C5756.99,403.819 5710.19,428.062 5704.94,452.089C5674.02,593.525 5621.73,727.485 5530.71,825.783C5490.84,868.834 5450.2,911.322 5409.2,952.67C5404.08,957.84 5410.89,976.459 5405.76,981.592C5400.84,986.51 5383.97,977.943 5379.04,982.825C5135.38,1224.22 5035.67,1364.96 4774.36,1278.73C4759.15,1273.71 4732.96,1307.27 4718.38,1302.47C4704.69,1297.96 4702.57,1255.07 4689.47,1250.82C4578,1214.66 4488.66,1189.02 4433.2,1193.89C4278.48,1207.49 3971.67,1577.11 3566.9,1645.13C3546.05,1648.64 3527.75,1677.08 3507.16,1680.48C3486.41,1683.91 3463.38,1662.32 3442.98,1665.62C3398.6,1672.83 3355.17,1679.71 3313.16,1686.15C2860.76,1755.51 2167.41,1762.07 1809.3,1715.99C1711.17,1703.37 1616.83,1671.96 1526.09,1629.73C1501.9,1618.47 1442.15,1657.72 1418.47,1645.07C1390.54,1630.15 1398.78,1563.11 1371.55,1546.72C1300.18,1503.76 1231.2,1456.59 1164.53,1409.67C1133.94,1388.14 979.943,1284.81 890.948,1223.88C857.617,1201.06 814.854,1237.45 799.171,1226.17C758.95,1197.23 788.084,1158.25 745.459,1125.22C420.956,873.74 17.92,472.882 -99.705,-28.952C-236.093,-610.843 -1158.35,-414.14 -1161.65,-374.778C-1164.75,-337.742 -1536.31,2741.56 -1531.51,2899.11C-1526.15,3074.77 8279.84,2686.87 8268.22,2600.44C8256.61,2514.01 8627.4,-249.251 8622,-491.18Z" style="fill:#313343;stroke:#313343;stroke-width:5px;"/>
        <g id="grass">
            <g>
                <path d="M3949.03,1151.32C3959.49,1151.32 3968.02,1153.49 3968.08,1156.16C3968.14,1158.83 3959.71,1161 3949.26,1161C3938.8,1161 3930.27,1158.83 3930.2,1156.16C3930.14,1153.49 3938.58,1151.32 3949.03,1151.32Z" style="fill:#313343;stroke:#313343;stroke-width:4.34px;stroke-linecap:butt;stroke-miterlimit:1.5;"/>
                <path d="M3913.44,1118.44C3913.44,1118.44 3939.93,1125.09 3952.78,1151.55C3965.64,1178.01 3928.18,1143.05 3913.44,1118.44Z" style="fill:#c6b7be;stroke:#313343;stroke-width:2.94px;stroke-linecap:butt;stroke-miterlimit:1.5;"/>
                <path d="M3949.4,1102.64C3949.4,1102.64 3966.16,1124.39 3959.65,1152.65C3953.14,1180.91 3945.55,1130.67 3949.4,1102.64Z" style="fill:#c6b7be;stroke:#313343;stroke-width:2.92px;stroke-linecap:butt;stroke-miterlimit:1.5;"/>
            </g>
            <g>
                <path d="M3976.35,1092.95C3986.8,1092.95 3995.34,1095.12 3995.4,1097.8C3995.47,1100.47 3987.03,1102.64 3976.58,1102.64C3966.12,1102.64 3957.59,1100.47 3957.53,1097.8C3957.46,1095.12 3965.9,1092.95 3976.35,1092.95Z" style="fill:#313343;stroke:#313343;stroke-width:4.34px;stroke-linecap:butt;stroke-miterlimit:1.5;"/>
                <path d="M3940.76,1060.08C3940.76,1060.08 3967.25,1066.73 3980.1,1093.19C3992.95,1119.65 3955.5,1084.68 3940.76,1060.08Z" style="fill:#c6b7be;stroke:#313343;stroke-width:2.94px;stroke-linecap:butt;stroke-miterlimit:1.5;"/>
                <path d="M3976.72,1044.27C3976.72,1044.27 3993.49,1066.03 3986.97,1094.29C3980.46,1122.55 3972.87,1072.31 3976.72,1044.27Z" style="fill:#c6b7be;stroke:#313343;stroke-width:2.92px;stroke-linecap:butt;stroke-miterlimit:1.5;"/>
            </g>
            <g>
                <path d="M4014.76,1122.14C4004.31,1122.14 3996.49,1124.31 3997.32,1126.98C3998.14,1129.65 4007.3,1131.82 4017.75,1131.82C4028.2,1131.82 4036.02,1129.65 4035.19,1126.98C4034.37,1124.31 4025.22,1122.14 4014.76,1122.14Z" style="fill:#313343;stroke:#313343;stroke-width:3.69px;stroke-linecap:butt;stroke-miterlimit:1.5;"/>
                <path d="M4039.45,1089.26C4039.45,1089.26 4015.16,1095.91 4011.09,1122.37C4007.01,1148.83 4032.87,1113.87 4039.45,1089.26Z" style="fill:#c6b7be;stroke:#313343;stroke-width:2.5px;stroke-linecap:butt;stroke-miterlimit:1.5;"/>
                <path d="M3998.25,1073.46C3998.25,1073.46 3988.7,1095.21 4004.58,1123.47C4020.46,1151.73 4011.4,1101.49 3998.25,1073.46Z" style="fill:#c6b7be;stroke:#313343;stroke-width:2.91px;stroke-linecap:butt;stroke-miterlimit:1.5;"/>
            </g>
            <g>
                <path d="M1772.73,1122.43C1783.18,1122.43 1790.95,1124.6 1790.06,1127.28C1789.16,1129.95 1779.95,1132.12 1769.5,1132.12C1759.05,1132.12 1751.29,1129.95 1752.18,1127.28C1753.07,1124.6 1762.28,1122.43 1772.73,1122.43Z" style="fill:#313343;stroke:#313343;stroke-width:3.64px;stroke-linecap:butt;stroke-miterlimit:1.5;"/>
                <path d="M1748.88,1089.56C1748.88,1089.56 1772.99,1096.2 1776.4,1122.67C1779.81,1149.13 1754.83,1114.16 1748.88,1089.56Z" style="fill:#c6b7be;stroke:#313343;stroke-width:2.47px;stroke-linecap:butt;stroke-miterlimit:1.5;"/>
                <path d="M1790.48,1073.75C1790.48,1073.75 1799.48,1095.51 1782.88,1123.77C1766.28,1152.02 1776.62,1101.78 1790.48,1073.75Z" style="fill:#c6b7be;stroke:#313343;stroke-width:2.92px;stroke-linecap:butt;stroke-miterlimit:1.5;"/>
            </g>
            <g>
                <path d="M1947.73,1225.7C1937.27,1225.7 1929.33,1227.87 1930,1230.54C1930.67,1233.22 1939.71,1235.38 1950.16,1235.38C1960.61,1235.38 1968.55,1233.22 1967.88,1230.54C1967.21,1227.87 1958.18,1225.7 1947.73,1225.7Z" style="fill:#313343;stroke:#313343;stroke-width:3.79px;stroke-linecap:butt;stroke-miterlimit:1.5;"/>
                <path d="M1974.29,1192.83C1974.29,1192.83 1949.63,1199.47 1944.04,1225.93C1938.45,1252.39 1966.31,1217.43 1974.29,1192.83Z" style="fill:#c6b7be;stroke:#313343;stroke-width:2.57px;stroke-linecap:butt;stroke-miterlimit:1.5;"/>
                <path d="M1933.99,1177.02C1933.99,1177.02 1923.2,1198.77 1937.47,1227.03C1951.74,1255.29 1945.54,1205.05 1933.99,1177.02Z" style="fill:#c6b7be;stroke:#313343;stroke-width:2.89px;stroke-linecap:butt;stroke-miterlimit:1.5;"/>
            </g>
            <g>
                <path d="M1870.47,1241.51C1880.92,1241.51 1888.86,1243.67 1888.19,1246.35C1887.52,1249.02 1878.49,1251.19 1868.04,1251.19C1857.58,1251.19 1849.64,1249.02 1850.32,1246.35C1850.99,1243.67 1860.02,1241.51 1870.47,1241.51Z" style="fill:#313343;stroke:#313343;stroke-width:3.79px;stroke-linecap:butt;stroke-miterlimit:1.5;"/>
                <path d="M1843.91,1208.63C1843.91,1208.63 1868.57,1215.28 1874.16,1241.74C1879.75,1268.2 1851.89,1233.24 1843.91,1208.63Z" style="fill:#c6b7be;stroke:#313343;stroke-width:2.57px;stroke-linecap:butt;stroke-miterlimit:1.5;"/>
                <path d="M1884.2,1192.83C1884.2,1192.83 1895,1214.58 1880.73,1242.84C1866.46,1271.1 1872.65,1220.86 1884.2,1192.83Z" style="fill:#c6b7be;stroke:#313343;stroke-width:2.89px;stroke-linecap:butt;stroke-miterlimit:1.5;"/>
            </g>
            <g>
                <path d="M2303.61,1298.63C2314.06,1298.63 2321.83,1300.8 2320.93,1303.47C2320.04,1306.15 2310.83,1308.32 2300.38,1308.32C2289.93,1308.32 2282.16,1306.15 2283.06,1303.47C2283.95,1300.8 2293.16,1298.63 2303.61,1298.63Z" style="fill:#313343;stroke:#313343;stroke-width:3.64px;stroke-linecap:butt;stroke-miterlimit:1.5;"/>
                <path d="M2279.76,1265.76C2279.76,1265.76 2303.87,1272.4 2307.28,1298.87C2310.69,1325.33 2285.71,1290.36 2279.76,1265.76Z" style="fill:#c6b7be;stroke:#313343;stroke-width:2.47px;stroke-linecap:butt;stroke-miterlimit:1.5;"/>
                <path d="M2321.36,1249.95C2321.36,1249.95 2330.36,1271.7 2313.76,1299.96C2297.16,1328.22 2307.5,1277.98 2321.36,1249.95Z" style="fill:#c6b7be;stroke:#313343;stroke-width:2.92px;stroke-linecap:butt;stroke-miterlimit:1.5;"/>
            </g>
        </g>
    </g>
</svg>
