<?xml version="1.0" encoding="UTF-8" standalone="no"?>
<!DOCTYPE svg PUBLIC "-//W3C//DTD SVG 1.1//EN" "http://www.w3.org/Graphics/SVG/1.1/DTD/svg11.dtd">
<svg width="8269px" height="2311px" version="1.1" xmlns="http://www.w3.org/2000/svg" xmlns:xlink="http://www.w3.org/1999/xlink" xml:space="preserve" xmlns:serif="http://www.serif.com/" style="fill-rule:evenodd;clip-rule:evenodd;stroke-linecap:round;stroke-linejoin:round;stroke-miterlimit:1;">
    <rect id="levelTutorial" x="0" y="0" width="8268.22" height="2310.37" style="fill:#565a75;"/>
    <clipPath id="_clip1">
        <rect id="levelTutorial1" serif:id="levelTutorial" x="0" y="0" width="8268.22" height="2310.37"/>
    </clipPath>
    <g clip-path="url(#_clip1)">
        <g id="mountain">
            <path id="mountain1" serif:id="mountain" d="M1977.98,846.29C1992.47,752.559 2149.94,681.226 2237.4,662.973C2324.86,644.72 2413.89,759.831 2502.75,736.774C2594.45,712.979 2673.11,553.575 2787.64,520.203C2922.96,480.772 3140.54,524.397 3314.67,500.188C3497.75,474.735 3710.7,360.42 3886.12,367.483C4056.62,374.348 4202.13,499.24 4367.18,542.564C4554.81,591.813 4857.75,604.259 5011.86,662.973C5125.1,706.115 5170.74,890.509 5291.84,894.846C5434.53,899.956 5733.54,701.727 5868.03,693.634C5960.09,688.095 6060.76,796.447 6098.77,846.29C6128.37,885.1 6139.03,969.491 6096.09,992.69C5944.79,1074.43 5513.21,1318.68 5190.93,1336.75C4695.19,1364.54 3628.36,1178.03 3121.62,1159.46C2797.37,1147.58 2341.07,1277.55 2150.47,1225.36C2016.57,1188.69 1963.49,940.02 1977.98,846.29Z" style="fill:#c6b7be;stroke:#c6b7be;stroke-width:7px;"/>
            <path d="M2240.77,667.02C2264.75,662.576 2372.79,692.527 2323.31,701.708C2259.08,713.624 2237.05,689.841 2202.42,701.708C2167.79,713.574 2168.44,760.082 2135.29,744.847C2102.14,729.612 2084.23,724.127 2067.04,754.003C2049.86,783.88 2013.12,797.846 2023.31,776.017C2025.9,770.463 2055.33,743.167 2103.65,717.868C2146.91,695.219 2203.33,673.957 2240.77,667.02Z" style="fill:#fafbf6;stroke:#fafbf6;stroke-width:7px;"/>
            <path d="M2855.69,517.611C2909.76,513.445 3053.95,498.444 2957.41,550.73C2899.96,581.837 2871.14,538.863 2836.52,550.73C2801.89,562.597 2802.54,609.104 2769.39,593.869C2736.24,578.634 2726.26,578.643 2709.08,608.52C2691.89,638.396 2637.1,650.486 2652.25,631.758C2723.91,543.207 2791.08,522.589 2855.69,517.611Z" style="fill:#fafbf6;stroke:#fafbf6;stroke-width:7px;"/>
            <path d="M3792.21,383.928C3859.63,368.024 4021.99,369.848 3966.97,414.898C3916.43,456.283 3880.71,403.032 3846.08,414.898C3811.46,426.765 3812.11,473.273 3778.95,458.038C3745.8,442.803 3735.82,442.811 3718.64,472.688C3701.46,502.565 3657.1,519.551 3661.82,495.927C3666.08,474.583 3712.39,402.755 3792.21,383.928Z" style="fill:#fafbf6;stroke:#fafbf6;stroke-width:7px;"/>
            <path d="M3559.85,441.604C3593.88,424.028 3719.34,381.317 3680.33,414.85C3635.39,453.475 3643.66,485.964 3616.16,495.934C3586.44,506.707 3546.07,513.003 3537.67,497.993C3529.27,482.982 3544.43,449.571 3559.85,441.604Z" style="fill:#fafbf6;stroke:#c6b7be;stroke-width:7px;"/>
            <path d="M4043.78,464.789C4051.37,462.724 4056.05,449.927 4060.3,447.923C4070.94,442.902 4085.14,440.457 4087.57,448.513C4089.99,456.568 4080.16,485.999 4076.05,481.592C4064.33,469.038 4032.99,489.22 4035.06,500.454C4037.58,514.114 3908.43,518.94 3942.3,504.768C3961.77,496.619 3973.88,469.248 3996.16,465.364C4013.86,462.28 4033.09,467.696 4043.78,464.789Z" style="fill:#fafbf6;stroke:#c6b7be;stroke-width:7px;"/>
            <path d="M5036.48,687.861C5054.34,700.796 5194.91,824.503 5091.77,800.553C5028.14,785.778 5038.11,731.98 5004.99,716.391C4971.87,700.803 4939.96,734.64 4926.77,700.623C4913.57,666.606 4906.41,659.667 4873.27,669.152C4840.14,678.637 4796.47,659.945 4816.3,646.274C4834.23,633.922 4970.07,639.747 5036.48,687.861Z" style="fill:#fafbf6;stroke:#fafbf6;stroke-width:7px;"/>
            <path d="M5757.74,731.578C5751.72,759.378 5813.6,737.41 5854.06,775.97C5883.73,804.248 5899.03,717.677 5925.98,735.689C5953.96,754.382 5993.54,704.052 5866.73,693.718C5838.77,691.44 5759.57,723.129 5757.74,731.578Z" style="fill:#fafbf6;stroke:#c6b7be;stroke-width:7px;"/>
        </g>
        <g id="Tutorial-1" serif:id="Tutorial 1">
            <path d="M4299.09,804.444C4290.21,821.175 4298.21,865.777 4298.21,865.777L4222.17,908.151C4222.17,908.151 4227.97,828.921 4222.17,807.915C4219.58,798.519 4134.11,797.134 4134.11,797.134C4105.19,795.792 4106.3,611.66 4134.11,612.909C4190.22,584.565 4328.06,585.553 4379.41,614.117C4406.29,613.732 4407.9,797.914 4379.41,798.343C4379.41,798.343 4304.28,794.663 4299.09,804.444Z" style="fill:#565a75;"/>
            <clipPath id="_clip2">
                <path d="M4299.09,804.444C4290.21,821.175 4298.21,865.777 4298.21,865.777L4222.17,908.151C4222.17,908.151 4227.97,828.921 4222.17,807.915C4219.58,798.519 4134.11,797.134 4134.11,797.134C4105.19,795.792 4106.3,611.66 4134.11,612.909C4190.22,584.565 4328.06,585.553 4379.41,614.117C4406.29,613.732 4407.9,797.914 4379.41,798.343C4379.41,798.343 4304.28,794.663 4299.09,804.444Z"/>
            </clipPath>
            <g clip-path="url(#_clip2)">
                <path d="M4233.42,901.717C4228.75,901.575 4219.23,865.156 4223.83,864.331C4250.49,859.544 4267.81,838.945 4292.73,813.673C4295.86,810.505 4304.06,869.953 4287.94,877.129C4266.78,886.546 4244.11,902.04 4233.42,901.717Z" style="fill:#313343;"/>
            </g>
            <path d="M4299.09,804.444C4290.21,821.175 4298.21,865.777 4298.21,865.777L4222.17,908.151C4222.17,908.151 4227.97,828.921 4222.17,807.915C4219.58,798.519 4134.11,797.134 4134.11,797.134C4105.19,795.792 4106.3,611.66 4134.11,612.909C4190.22,584.565 4328.06,585.553 4379.41,614.117C4406.29,613.732 4407.9,797.914 4379.41,798.343C4379.41,798.343 4304.28,794.663 4299.09,804.444Z" style="fill:none;stroke:#0f0f1b;stroke-width:10px;stroke-miterlimit:1.5;"/>
            <g id="sign-jump1">
                <path id="foot-front" d="M4202.75,662.322C4202.02,661.671 4201.71,660.913 4201.95,660.043C4204.87,649.521 4199.15,630.025 4207.94,626.111C4218.43,621.441 4230.18,625.372 4232.27,634.965C4234.3,644.282 4236.43,653.01 4233.76,661.323C4233.41,662.409 4231.91,663.281 4229.73,663.931C4230.12,665.453 4230.66,667.641 4230.64,669.499C4230.58,675.455 4223.31,673.033 4223.34,669.89C4223.35,669.572 4222.8,667.57 4222.39,665.152C4218.25,665.474 4213.66,665.359 4209.88,664.784C4209.79,666.354 4209.64,668.651 4209.05,670.445C4207.18,676.101 4200.99,671.585 4201.98,668.601C4202.1,668.239 4202.2,665.334 4202.75,662.322Z" style="fill:#fafbf6;stroke:#0f0f1b;stroke-width:3px;"/>
                <path id="arm-right" d="M4227.42,653.204C4231.74,655.174 4235.09,655.727 4235.01,656.373C4234.81,658.115 4231.61,659.541 4227.42,659.541C4223.23,659.541 4219.83,658.121 4219.83,656.373C4219.83,654.624 4223.89,651.593 4227.42,653.204Z" style="fill:#fafbf6;stroke:#0f0f1b;stroke-width:3px;"/>
                <path id="arm-left" d="M4239.76,650.953C4241.91,651.715 4243.47,651.752 4243.51,652.125C4243.6,653.131 4242.31,654.205 4240.42,654.551C4238.53,654.897 4236.85,654.371 4236.67,653.378C4236.48,652.386 4238,650.33 4239.76,650.953Z" style="fill:#fafbf6;stroke:#0f0f1b;stroke-width:3px;"/>
            </g>
            <path d="M4252.58,648.647C4252.58,648.647 4332.43,623.091 4351.15,616.328" style="fill:none;stroke:#fafbf6;stroke-width:3.5px;stroke-miterlimit:1.5;"/>
            <g id="mouse">
                <path d="M4301.51,732.098C4295.69,726.134 4272.8,726.54 4267.06,732.446C4261.32,738.352 4263.67,759.172 4267.06,767.535C4270.28,775.487 4279,783.475 4284.82,783.591C4290.64,783.707 4298.66,776.364 4301.97,768.23C4305.38,759.876 4307.33,738.062 4301.51,732.098Z" style="fill:#fafbf6;stroke:#0f0f1b;stroke-width:3.04px;stroke-miterlimit:1.5;"/>
                <path d="M4284.26,727.821L4284.4,755.704" style="fill:none;stroke:#0f0f1b;stroke-width:3.04px;stroke-miterlimit:1.5;"/>
            </g>
            <path d="M4256.51,722.147L4259.3,731.517L4252.58,735.735" style="fill:none;stroke:#fafbf6;stroke-width:3.5px;stroke-miterlimit:1.5;"/>
            <g transform="matrix(24,0,0,24,4203.23,755.411)">
            </g>
            <text x="4151.23px" y="755.411px" style="font-family:'ArialMT', 'Arial', sans-serif;font-size:24px;">Click</text>
            <g transform="matrix(24,0,0,24,4314.34,690.328)">
            </g>
            <text x="4219.22px" y="690.328px" style="font-family:'ArialMT', 'Arial', sans-serif;font-size:24px;">T<tspan x="4232.99px 4238.32px " y="690.328px 690.328px ">im</tspan>elock</text>
            <path d="M4233.69,735.901C4243.01,725.329 4251.32,726.54 4259.3,731.517" style="fill:none;stroke:#fafbf6;stroke-width:3.5px;stroke-miterlimit:1.5;"/>
        </g>
        <circle id="start" cx="1662.69" cy="720.851" r="30.661" style="fill:#f0e;"/>
        <g id="Tutorial-11" serif:id="Tutorial 1">
            <path d="M2834.65,956.89C2825.77,973.622 2833.77,1018.22 2833.77,1018.22L2757.73,1060.6C2757.73,1060.6 2763.53,981.368 2757.73,960.361C2755.14,950.965 2690.95,950.49 2690.95,950.49C2662.03,949.148 2663.14,765.016 2690.95,766.264C2746.78,752.531 2840.65,751.841 2892.27,766.264C2919.15,765.88 2920.76,950.061 2892.27,950.49C2892.27,950.49 2839.85,947.11 2834.65,956.89Z" style="fill:#565a75;"/>
            <clipPath id="_clip3">
                <path d="M2834.65,956.89C2825.77,973.622 2833.77,1018.22 2833.77,1018.22L2757.73,1060.6C2757.73,1060.6 2763.53,981.368 2757.73,960.361C2755.14,950.965 2690.95,950.49 2690.95,950.49C2662.03,949.148 2663.14,765.016 2690.95,766.264C2746.78,752.531 2840.65,751.841 2892.27,766.264C2919.15,765.88 2920.76,950.061 2892.27,950.49C2892.27,950.49 2839.85,947.11 2834.65,956.89Z"/>
            </clipPath>
            <g clip-path="url(#_clip3)">
                <path d="M2768.98,1054.16C2764.31,1054.02 2754.79,1017.6 2759.39,1016.78C2786.05,1011.99 2803.37,991.392 2828.29,966.12C2831.42,962.951 2839.62,1022.4 2823.49,1029.58C2802.34,1038.99 2779.67,1054.49 2768.98,1054.16Z" style="fill:#313343;"/>
            </g>
            <path d="M2834.65,956.89C2825.77,973.622 2833.77,1018.22 2833.77,1018.22L2757.73,1060.6C2757.73,1060.6 2763.53,981.368 2757.73,960.361C2755.14,950.965 2690.95,950.49 2690.95,950.49C2662.03,949.148 2663.14,765.016 2690.95,766.264C2746.78,752.531 2840.65,751.841 2892.27,766.264C2919.15,765.88 2920.76,950.061 2892.27,950.49C2892.27,950.49 2839.85,947.11 2834.65,956.89Z" style="fill:none;stroke:#0f0f1b;stroke-width:10px;stroke-miterlimit:1.5;"/>
            <g id="jumplines">
                <path d="M2762.16,843.963C2762.16,843.963 2771.64,809.385 2808.62,796.676" style="fill:none;stroke:#fafbf6;stroke-width:2px;stroke-miterlimit:1.5;"/>
                <path d="M2763.3,870.393C2763.3,870.393 2772.78,835.815 2809.76,823.106" style="fill:none;stroke:#fafbf6;stroke-width:2px;stroke-miterlimit:1.5;"/>
                <path d="M2787.05,868.196C2787.05,868.196 2796.53,833.618 2833.51,820.909" style="fill:none;stroke:#fafbf6;stroke-width:2px;stroke-miterlimit:1.5;"/>
            </g>
            <g id="sign-jump11" serif:id="sign-jump1">
                <path id="foot-front1" serif:id="foot-front" d="M2710.88,869.964C2710.16,869.313 2709.85,868.555 2710.09,867.686C2713,857.163 2707.29,837.668 2716.08,833.754C2726.56,829.083 2738.31,833.015 2740.4,842.607C2742.43,851.924 2744.56,860.653 2741.9,868.965C2741.55,870.051 2740.05,870.923 2737.87,871.574C2738.25,873.095 2738.79,875.284 2738.77,877.141C2738.71,883.097 2731.44,880.676 2731.48,877.533C2731.48,877.214 2730.94,875.213 2730.53,872.795C2726.39,873.116 2721.8,873.001 2718.01,872.426C2717.92,873.997 2717.77,876.293 2717.18,878.088C2715.31,883.744 2709.12,879.228 2710.11,876.244C2710.23,875.881 2710.34,872.977 2710.88,869.964Z" style="fill:#fafbf6;stroke:#0f0f1b;stroke-width:3px;"/>
                <path id="arm-right1" serif:id="arm-right" d="M2735.56,860.847C2739.88,862.817 2743.22,863.369 2743.14,864.015C2742.95,865.757 2739.74,867.183 2735.56,867.183C2731.37,867.183 2727.97,865.763 2727.97,864.015C2727.97,862.266 2732.02,859.235 2735.56,860.847Z" style="fill:#fafbf6;stroke:#0f0f1b;stroke-width:3px;"/>
                <path id="arm-left1" serif:id="arm-left" d="M2747.89,858.595C2750.05,859.357 2751.61,859.395 2751.64,859.768C2751.73,860.774 2750.44,861.847 2748.55,862.193C2746.66,862.539 2744.98,862.014 2744.8,861.021C2744.62,860.028 2746.13,857.972 2747.89,858.595Z" style="fill:#fafbf6;stroke:#0f0f1b;stroke-width:3px;"/>
            </g>
            <g id="sign-jump2">
                <path id="foot-front2" serif:id="foot-front" d="M2826.46,805.556C2825.73,804.906 2825.42,804.147 2825.66,803.278C2828.58,792.755 2822.87,773.26 2831.65,769.346C2842.14,764.675 2853.89,768.607 2855.98,778.199C2858.01,787.516 2860.14,796.245 2857.47,804.557C2857.13,805.643 2855.62,806.516 2853.45,807.166C2853.83,808.688 2858.48,809.581 2858.47,811.438C2858.41,817.394 2851.14,814.973 2851.17,811.83C2851.17,811.511 2846.52,810.805 2846.11,808.387C2841.96,808.708 2837.38,808.593 2833.59,808.018C2833.5,809.589 2828.39,809.801 2827.8,811.596C2827.36,812.914 2826.69,813.679 2825.93,814.041C2823.43,815.232 2819.97,812.041 2820.73,809.752C2820.85,809.39 2825.91,808.569 2826.46,805.556Z" style="fill:#fafbf6;stroke:#0f0f1b;stroke-width:3px;"/>
                <path id="arm-right2" serif:id="arm-right" d="M2849.25,791.087C2853.57,793.057 2856.91,793.609 2856.84,794.255C2856.64,795.998 2853.44,797.423 2849.25,797.423C2845.06,797.423 2841.66,796.004 2841.66,794.255C2841.66,792.507 2845.72,789.476 2849.25,791.087Z" style="fill:#fafbf6;stroke:#0f0f1b;stroke-width:3px;"/>
                <path id="arm-left2" serif:id="arm-left" d="M2861.59,788.836C2863.74,789.597 2865.3,789.635 2865.34,790.008C2865.43,791.014 2864.14,792.088 2862.25,792.433C2860.36,792.779 2858.68,792.254 2858.5,791.261C2858.32,790.268 2859.83,788.212 2861.59,788.836Z" style="fill:#fafbf6;stroke:#0f0f1b;stroke-width:3px;"/>
            </g>
            <g id="space-text" serif:id="space text">
                <path d="M2700.38,894.788C2692.37,896.235 2692.88,927.358 2700.96,928.404C2732.4,932.475 2857.6,934.057 2888.93,928.404C2900.05,926.396 2900.14,895.937 2888.93,894.486C2857.49,890.414 2731.71,889.135 2700.38,894.788Z" style="fill:#0f0f1b;stroke:#0f0f1b;stroke-width:5px;"/>
                <path d="M2703.29,895.712C2695.45,896.896 2695.95,922.383 2703.85,923.24C2734.6,926.574 2857.05,927.869 2887.69,923.24C2898.57,921.596 2898.66,896.653 2887.69,895.464C2856.94,892.129 2733.93,891.082 2703.29,895.712Z" style="fill:#fafbf6;"/>
                <g transform="matrix(24,0,0,24,2830.37,915.458)">
                </g>
                <text x="2759.66px" y="915.458px" style="font-family:'Arial-BoldMT', 'Arial', sans-serif;font-weight:700;font-size:24px;">Space</text>
            </g>
        </g>
        <path d="M1956.95,452.646C1935.71,405.324 1894.8,421.466 1876.71,367.706C1832.58,236.585 1754.73,41.081 1788.83,-109.461C1825.2,-270.034 2061.1,-356.958 2189.81,-388.241C2720.97,-517.347 4358.68,-317.792 5090.91,-285.655C5588.77,-263.804 6334.85,-296.56 6583.2,-195.417C6742.69,-130.464 6738.74,252.074 6581.02,321.203C6491.11,360.608 6338.68,400.574 6156.06,436.37C6131.94,441.096 6093.63,398.905 6068.55,403.474C6056,405.76 6057.01,454.87 6044.24,457.113C5656.84,525.168 5173.94,572.711 4855.85,561.66C4825.06,560.591 4804.13,533.393 4773.71,529.744C4752.86,527.242 4722.42,548.924 4701.71,545.358C4353.99,485.481 4026.75,284.194 3678.67,229.036C3653.65,225.071 3637.33,197.421 3612.08,195.073C3588.27,192.86 3555.54,215.852 3531.51,215.26C3305.67,209.7 2991.33,288.116 2695.7,364.854C2673.93,370.506 2652.26,349.129 2630.74,354.728C2602.69,362.022 2574.89,396.262 2547.43,403.334C2363.98,450.58 2195.68,491.168 2070.78,502.538C1999.09,509.064 1979.8,503.548 1956.95,452.646Z" style="fill:#51556e;stroke:#51556b;stroke-width:5px;"/>
        <path id="ground--collision-" serif:id="ground {collision}" d="M9096.78,2666.67C9010.09,2686.11 124.489,2116.14 124.489,2116.14L143.335,-233.256L1916.38,-211.082C1916.38,-211.082 1978.57,312.499 1916.38,420.407C1854.23,528.262 1605.16,373.536 1543.28,436.367C1481.39,499.199 1496.46,733.524 1545.07,797.395C1627.23,905.367 1797.66,738.263 1916.38,774.102C2090.21,826.573 2178.2,1107.36 2588.02,1112.22C2775.11,1114.44 2953.85,866.45 3170,929.221C3395.32,994.651 3702.17,1030.02 3813.33,979.87C3923.82,930.021 4276.98,833.744 4583.85,843.919C4890.71,854.094 5530.54,1269.79 5841.79,1081.53C6153.03,893.276 6003.02,832.155 6361.37,841.512C6699.79,850.349 6659.8,152.829 6437.86,76.119C6383.99,57.498 6240.22,92.231 6190.24,74.325C6140.26,56.419 6141.98,-185.078 6241.86,-198.433C6341.75,-211.788 9075.21,-824.821 9064.3,-179.18C9053.39,466.46 9183.47,2647.24 9096.78,2666.67Z" style="fill:#565a75;stroke:#0f0f1b;stroke-width:15px;"/>
        <g id="Tutorial-goal" serif:id="Tutorial goal">
            <path d="M6566.99,515.836C6574.07,524.522 6611.88,516.543 6608.44,525.777C6603.72,538.435 6597.07,584.061 6598.83,595.846C6600.07,604.149 6569.35,584.089 6560.28,592.543C6551.21,600.998 6562.11,640.3 6544.42,646.574C6522.2,654.452 6445.39,668.5 6426.99,639.813C6408.6,611.126 6410.88,502.146 6434.05,474.454C6457.22,446.761 6543.86,466.761 6566.01,473.658C6579.44,477.838 6559.92,507.149 6566.99,515.836Z" style="fill:#565a75;"/>
            <clipPath id="_clip4">
                <path d="M6566.99,515.836C6574.07,524.522 6611.88,516.543 6608.44,525.777C6603.72,538.435 6597.07,584.061 6598.83,595.846C6600.07,604.149 6569.35,584.089 6560.28,592.543C6551.21,600.998 6562.11,640.3 6544.42,646.574C6522.2,654.452 6445.39,668.5 6426.99,639.813C6408.6,611.126 6410.88,502.146 6434.05,474.454C6457.22,446.761 6543.86,466.761 6566.01,473.658C6579.44,477.838 6559.92,507.149 6566.99,515.836Z"/>
            </clipPath>
            <g clip-path="url(#_clip4)">
                <path d="M6598.54,597.313C6595.8,601.1 6557.04,592.462 6558.94,588.195C6569.96,563.449 6567.48,547.158 6563.23,519.664C6562.21,513.078 6611.94,521.036 6608.82,538.404C6604.73,561.193 6604.81,588.658 6598.54,597.313Z" style="fill:#313343;"/>
            </g>
            <path d="M6566.99,515.836C6574.07,524.522 6611.88,516.543 6608.44,525.777C6603.72,538.435 6597.07,584.061 6598.83,595.846C6600.07,604.149 6569.35,584.089 6560.28,592.543C6551.21,600.998 6562.11,640.3 6544.42,646.574C6522.2,654.452 6445.39,668.5 6426.99,639.813C6408.6,611.126 6410.88,502.146 6434.05,474.454C6457.22,446.761 6543.86,466.761 6566.01,473.658C6579.44,477.838 6559.92,507.149 6566.99,515.836Z" style="fill:none;stroke:#0f0f1b;stroke-width:10px;stroke-miterlimit:1.5;"/>
            <g id="up-button" serif:id="up button">
                <path d="M6465.83,598.041C6463.93,599.487 6464.05,630.61 6465.97,631.656C6473.41,635.728 6503.03,637.309 6510.45,631.656C6513.08,629.648 6513.1,599.19 6510.45,597.738C6503.01,593.666 6473.24,592.387 6465.83,598.041Z" style="fill:#0f0f1b;stroke:#0f0f1b;stroke-width:5px;"/>
                <path d="M6468.18,598.964C6466.47,600.148 6466.57,625.635 6468.3,626.492C6475.03,629.826 6501.83,631.121 6508.54,626.492C6510.92,624.848 6510.94,599.905 6508.54,598.716C6501.81,595.382 6474.89,594.334 6468.18,598.964Z" style="fill:#fafbf6;"/>
                <path d="M6495.12,618.766C6495.95,618.75 6496.7,618.27 6497.06,617.523C6497.42,616.777 6497.33,615.891 6496.83,615.232C6494.9,612.712 6492.35,609.37 6490.69,607.199C6490.28,606.664 6489.65,606.347 6488.97,606.336C6488.3,606.326 6487.66,606.624 6487.24,607.146C6485.44,609.343 6482.64,612.791 6480.49,615.42C6479.95,616.084 6479.85,617.001 6480.22,617.771C6480.6,618.541 6481.38,619.023 6482.24,619.007C6486.07,618.936 6491.41,618.836 6495.12,618.766Z" style="fill:#0f0f1b;stroke:#0f0f1b;stroke-width:5px;"/>
            </g>
            <g>
                <path d="M6475.52,579.052C6474.23,573.911 6473.37,567.913 6477.43,558.622" style="fill:none;stroke:#fafbf6;stroke-width:2px;"/>
                <path d="M6491.3,581.365C6490.41,574.947 6490.64,567.478 6493.2,560.934" style="fill:none;stroke:#fafbf6;stroke-width:2px;"/>
                <path d="M6483.41,584.843C6482.52,578.426 6482.75,570.956 6485.31,564.413" style="fill:none;stroke:#fafbf6;stroke-width:2px;"/>
            </g>
            <g id="goal-hint" serif:id="goal=hint">
                <path d="M6459.24,545.668C6457.17,541.145 6456.01,536.124 6456.01,530.839C6456.01,510.975 6472.33,494.848 6492.43,494.848C6512.53,494.848 6528.84,510.975 6528.84,530.839C6528.84,536.124 6527.69,541.145 6525.61,545.668L6459.24,545.668Z" style="fill:#fafbf6;stroke:#0f0f1b;stroke-width:2px;"/>
                <path d="M6466.73,545.668C6464.33,541.467 6462.96,536.62 6462.96,531.459C6462.96,515.445 6476.16,502.444 6492.43,502.444C6508.69,502.444 6521.9,515.445 6521.9,531.459C6521.9,536.62 6520.53,541.467 6518.13,545.668L6466.73,545.668Z" style="fill:#0f0f1b;stroke:#0f0f1b;stroke-width:2px;"/>
            </g>
            <g id="goul-hont-player">
                <path id="foot-front3" serif:id="foot-front" d="M6479.75,543.429C6478.98,542.993 6478.45,542.485 6478.25,541.903C6475.92,534.857 6463.88,521.802 6468.35,519.181C6473.68,516.053 6483.46,518.686 6488.89,525.109C6494.16,531.348 6499.25,537.193 6500.85,542.76C6501.05,543.487 6500.37,544.071 6499.13,544.506C6500.03,545.526 6501.31,546.991 6502.07,548.235C6504.49,552.223 6498.45,550.602 6497.17,548.497C6497.04,548.284 6495.83,546.943 6494.55,545.324C6491.81,545.539 6488.58,545.462 6485.72,545.077C6486.3,546.129 6487.15,547.667 6487.49,548.869C6488.53,552.656 6482.37,549.632 6481.82,547.634C6481.75,547.391 6480.62,545.446 6479.75,543.429Z" style="fill:#fafbf6;stroke:#0f0f1b;stroke-width:3px;"/>
                <path id="arm-right3" serif:id="arm-right" d="M6495.98,535.594C6498.41,536.913 6500.06,537.283 6500.18,537.716C6500.5,538.883 6499.38,539.837 6497.48,539.837C6495.58,539.837 6493.7,538.887 6493.29,537.716C6492.87,536.545 6494,534.515 6495.98,535.594Z" style="fill:#fafbf6;stroke:#0f0f1b;stroke-width:3px;"/>
                <path id="arm-left3" serif:id="arm-left" d="M6500.71,535.816C6502.51,536.326 6503.61,536.351 6503.79,536.601C6504.27,537.274 6503.82,537.993 6502.65,538.225C6501.49,538.456 6500.11,538.105 6499.57,537.44C6499.03,536.775 6499.23,535.398 6500.71,535.816Z" style="fill:#fafbf6;stroke:#0f0f1b;stroke-width:3px;"/>
            </g>
        </g>
        <g id="japanese-skies" serif:id="japanese skies">
            <g>
                <path d="M5060.09,174.884C5060.09,165.86 5052.77,158.534 5043.74,158.534L4826.52,158.534C4817.5,158.534 4810.17,165.86 4810.17,174.884C4810.17,183.907 4817.5,191.233 4826.52,191.233L5043.74,191.233C5052.77,191.233 5060.09,183.907 5060.09,174.884Z" style="fill:#565a75;"/>
                <path d="M4916.66,225.211L4853.82,225.211C4862.85,225.211 4870.18,217.312 4870.18,207.583C4870.18,197.853 4862.85,189.954 4853.82,189.954L4916.66,189.954C4907.64,189.954 4900.31,197.853 4900.31,207.583C4900.31,217.312 4907.64,225.211 4916.66,225.211Z" style="fill:#565a75;"/>
                <path d="M5117.47,240.282C5117.47,231.258 5110.15,223.932 5101.12,223.932L4769.14,223.932C4760.12,223.932 4752.79,231.258 4752.79,240.282C4752.79,249.305 4760.12,256.631 4769.14,256.631L5101.12,256.631C5110.15,256.631 5117.47,249.305 5117.47,240.282Z" style="fill:#565a75;"/>
            </g>
            <g>
                <path d="M2630.74,207.583C2630.74,198.559 2623.41,191.233 2614.39,191.233L2397.17,191.233C2388.14,191.233 2380.82,198.559 2380.82,207.583C2380.82,216.606 2388.14,223.932 2397.17,223.932L2614.39,223.932C2623.41,223.932 2630.74,216.606 2630.74,207.583Z" style="fill:#565a75;"/>
                <path d="M2487.31,257.91L2424.47,257.91C2433.49,257.91 2440.82,250.011 2440.82,240.282C2440.82,230.552 2433.49,222.653 2424.47,222.653L2487.31,222.653C2478.28,222.653 2470.96,230.552 2470.96,240.282C2470.96,250.011 2478.28,257.91 2487.31,257.91Z" style="fill:#565a75;"/>
                <path d="M2522.13,272.981C2522.13,263.957 2514.8,256.631 2505.78,256.631L2339.79,256.631C2330.76,256.631 2323.44,263.957 2323.44,272.981C2323.44,282.004 2330.76,289.33 2339.79,289.33L2505.78,289.33C2514.8,289.33 2522.13,282.004 2522.13,272.981Z" style="fill:#565a75;"/>
                <path d="M2440.82,338.378C2440.82,329.355 2433.49,322.029 2424.47,322.029L2339.79,322.029C2330.76,322.029 2323.44,329.355 2323.44,338.378C2323.44,347.402 2330.76,354.728 2339.79,354.728L2424.47,354.728C2433.49,354.728 2440.82,347.402 2440.82,338.378Z" style="fill:#565a75;"/>
            </g>
            <g>
                <path d="M3633.31,33.298C3633.31,24.275 3640.64,16.949 3649.66,16.949L3866.88,16.949C3875.9,16.949 3883.23,24.275 3883.23,33.298C3883.23,42.322 3875.9,49.648 3866.88,49.648L3649.66,49.648C3640.64,49.648 3633.31,42.322 3633.31,33.298Z" style="fill:#565a75;"/>
                <path d="M3776.74,83.626L3839.58,83.626C3830.55,83.626 3823.23,75.727 3823.23,65.997C3823.23,56.268 3830.55,48.369 3839.58,48.369L3776.74,48.369C3785.76,48.369 3793.09,56.268 3793.09,65.997C3793.09,75.727 3785.76,83.626 3776.74,83.626Z" style="fill:#565a75;"/>
                <path d="M3741.92,98.696C3741.92,89.673 3749.25,82.347 3758.27,82.347L3924.26,82.347C3933.28,82.347 3940.61,89.673 3940.61,98.696C3940.61,107.72 3933.28,115.046 3924.26,115.046L3758.27,115.046C3749.25,115.046 3741.92,107.72 3741.92,98.696Z" style="fill:#565a75;"/>
            </g>
            <g>
                <path d="M4320.44,372.635L4383.28,372.635C4374.25,372.635 4366.93,364.736 4366.93,355.007C4366.93,345.277 4374.25,337.378 4383.28,337.378L4320.44,337.378C4329.46,337.378 4336.79,345.277 4336.79,355.007C4336.79,364.736 4329.46,372.635 4320.44,372.635Z" style="fill:#565a75;"/>
                <path d="M4263.17,322.029C4263.17,313.005 4270.49,305.68 4279.52,305.68L4415.52,305.68C4424.55,305.68 4431.87,313.005 4431.87,322.029C4431.87,331.052 4424.55,338.378 4415.52,338.378L4279.52,338.378C4270.49,338.378 4263.17,331.052 4263.17,322.029Z" style="fill:#565a75;"/>
                <path d="M4263.17,386.985C4263.17,377.961 4270.49,370.635 4279.52,370.635L4610.95,370.635C4619.98,370.635 4627.3,377.961 4627.3,386.985C4627.3,396.008 4619.98,403.334 4610.95,403.334L4279.52,403.334C4270.49,403.334 4263.17,396.008 4263.17,386.985Z" style="fill:#565a75;"/>
            </g>
        </g>
        <rect id="_-box-" serif:id="{box}" x="3060.54" y="825.072" width="79.317" height="79.317" style="fill:none;stroke:#0f0f1b;stroke-width:5px;"/>
        <rect id="_-box-1" serif:id="{box}" x="3060.54" y="739.53" width="79.317" height="79.317" style="fill:none;stroke:#0f0f1b;stroke-width:5px;"/>
        <rect id="_-box-2" serif:id="{box}" x="3060.54" y="654.279" width="79.317" height="79.317" style="fill:none;stroke:#0f0f1b;stroke-width:5px;"/>
        <path id="foreground-shadow" d="M-55.992,-318.083C-54.584,-381.148 893.841,-417.92 917.386,-346.106C946.71,-256.666 932.195,-14.502 964.232,233.749C967.325,257.713 928.686,281.734 932.728,305.68C936.833,330 983.634,354.242 988.886,378.269C1019.81,519.705 1072.09,653.665 1163.11,751.963C1202.98,795.015 1243.63,837.503 1284.62,878.85C1289.75,884.02 1282.93,902.639 1288.07,907.772C1292.99,912.69 1309.86,904.123 1314.78,909.005C1558.44,1150.4 1810.45,1346.81 1979.94,1378.34C2302.69,1438.38 2653.16,1325.89 2914.48,1239.66C2929.68,1234.64 2955.88,1268.21 2970.45,1263.4C2984.15,1258.9 2986.27,1216.01 2999.37,1211.76C3110.84,1175.59 3200.17,1149.95 3255.63,1154.83C3410.35,1168.42 3855.28,1252.52 4260.05,1320.54C4280.89,1324.04 4299.19,1352.48 4319.78,1355.89C4340.53,1359.32 4363.57,1337.72 4383.97,1341.03C4428.35,1348.24 4471.78,1355.12 4513.78,1361.56C4966.18,1430.92 5659.54,1437.48 6017.64,1391.4C6115.77,1378.78 6210.12,1347.37 6300.85,1305.14C6325.05,1293.88 6384.8,1333.12 6408.48,1320.48C6436.41,1305.56 6428.17,1238.51 6455.4,1222.13C6526.77,1179.17 6595.74,1132 6662.42,1085.08C6693.01,1063.55 6847,960.216 6936,899.288C6969.33,876.468 7012.09,912.856 7027.77,901.574C7068,872.639 7038.86,833.659 7081.49,800.626C7405.99,549.149 7809.03,148.29 7926.65,-353.544C8063.04,-935.435 8985.29,-738.732 8988.59,-699.369C8991.7,-662.334 9363.26,2416.97 9358.45,2574.52C9353.1,2750.18 -248.297,2571.07 -236.682,2484.64C-225.066,2398.22 -61.394,-76.153 -55.992,-318.083Z" style="fill:#313343;stroke:#313343;stroke-width:5px;"/>
        <g id="lock-weapon">
            <path d="M4235.81,650.63L4235.81,646.784L4235.81,646.784C4235.94,644.081 4238.24,641.927 4241.06,641.927C4243.87,641.927 4246.17,644.081 4246.3,646.784L4246.31,646.784L4246.31,650.63L4247.52,650.63C4248.09,650.63 4248.56,651.097 4248.56,651.672L4248.56,658.446C4248.56,659.021 4248.09,659.488 4247.52,659.488L4234.6,659.488C4234.02,659.488 4233.56,659.021 4233.56,658.446L4233.56,651.672C4233.56,651.097 4234.02,650.63 4234.6,650.63L4235.81,650.63ZM4243.71,650.63C4243.69,648.771 4243.68,647.06 4243.68,647.031C4243.68,645.623 4242.51,644.479 4241.06,644.479C4239.61,644.479 4238.43,645.623 4238.43,647.031C4238.43,647.06 4238.42,648.771 4238.4,650.63L4243.71,650.63Z" style="fill:#fafbf6;"/>
            <path d="M4246.31,648.284L4247.81,646.784L4247.81,649.147C4249.07,649.292 4250.06,650.368 4250.06,651.672L4250.06,658.446C4250.06,659.849 4248.92,660.988 4247.52,660.988L4234.6,660.988C4233.2,660.988 4232.06,659.849 4232.06,658.446L4232.06,651.672C4232.06,650.368 4233.04,649.292 4234.31,649.147L4234.31,646.784C4234.31,647.613 4234.98,648.284 4235.81,648.284L4235.81,650.63L4234.6,650.63C4234.02,650.63 4233.56,651.097 4233.56,651.672L4233.56,658.446C4233.56,659.021 4234.02,659.488 4234.6,659.488L4247.52,659.488C4248.09,659.488 4248.56,659.021 4248.56,658.446L4248.56,651.672C4248.56,651.097 4248.09,650.63 4247.52,650.63L4246.31,650.63L4246.31,648.284ZM4235.81,648.284C4235.4,648.282 4235.01,648.114 4234.73,647.818C4234.44,647.521 4234.29,647.121 4234.31,646.71C4234.49,643.226 4237.43,640.427 4241.06,640.427C4244.68,640.427 4247.63,643.226 4247.8,646.71L4246.32,648.267C4246.31,648.278 4246.31,648.284 4246.31,648.284L4246.31,646.784L4246.3,646.784C4246.17,644.081 4243.87,641.927 4241.06,641.927C4238.24,641.927 4235.94,644.081 4235.81,646.784L4235.81,646.784L4235.81,648.284ZM4243.71,650.63L4238.4,650.63C4238.42,648.771 4238.43,647.06 4238.43,647.031C4238.43,645.623 4239.61,644.479 4241.06,644.479C4242.51,644.479 4243.68,645.623 4243.68,647.031C4243.68,647.06 4243.69,648.771 4243.71,650.63ZM4242.2,649.13C4242.19,647.941 4242.18,647.052 4242.18,647.031C4242.18,646.438 4241.67,645.979 4241.06,645.979C4240.45,645.979 4239.93,646.438 4239.93,647.031C4239.93,647.052 4239.93,647.941 4239.91,649.13L4242.2,649.13Z" style="fill:#0f0f1b;"/>
            <path d="M4241.06,651.74C4242.89,651.74 4244.38,653.23 4244.38,655.064C4244.38,656.899 4242.89,658.388 4241.06,658.388C4239.22,658.388 4237.73,656.899 4237.73,655.064C4237.73,653.23 4239.22,651.74 4241.06,651.74ZM4240.39,655.579L4240.39,657.288C4240.39,657.344 4240.41,657.399 4240.45,657.439C4240.49,657.479 4240.55,657.502 4240.61,657.502L4241.51,657.502C4241.56,657.502 4241.62,657.479 4241.66,657.439C4241.7,657.399 4241.72,657.344 4241.72,657.288L4241.72,655.579C4242.24,655.33 4242.61,654.796 4242.61,654.178C4242.61,653.322 4241.91,652.627 4241.06,652.627C4240.2,652.627 4239.51,653.322 4239.51,654.178C4239.51,654.796 4239.87,655.33 4240.39,655.579Z" style="fill:#0f0f1b;"/>
            <g>
                <circle cx="4241.06" cy="655.001" r="2.433" style="fill:#fafbf6;"/>
                <path d="M4241.06,651.568C4242.95,651.568 4244.49,653.106 4244.49,655.001C4244.49,656.895 4242.95,658.433 4241.06,658.433C4239.16,658.433 4237.62,656.895 4237.62,655.001C4237.62,653.106 4239.16,651.568 4241.06,651.568ZM4241.06,652.568C4239.71,652.568 4238.62,653.658 4238.62,655.001C4238.62,656.343 4239.71,657.433 4241.06,657.433C4242.4,657.433 4243.49,656.343 4243.49,655.001C4243.49,653.658 4242.4,652.568 4241.06,652.568Z" style="fill:#0f0f1b;"/>
                <path d="M4241.06,655.001L4242.41,655.706" style="fill:none;stroke:#0f0f1b;stroke-width:0.65px;"/>
                <path d="M4241.06,655.001L4241.06,653.137" style="fill:none;stroke:#0f0f1b;stroke-width:0.65px;"/>
            </g>
        </g>
        <g id="Tutorial-12" serif:id="Tutorial 1">
            <path d="M1695.61,465.896C1704.48,461.612 1698,434.661 1707.03,438.623C1719.4,444.054 1764.57,453.282 1776.44,452.191C1784.8,451.423 1765.58,471.326 1771.81,476.948C1779.88,484.224 1819.6,477.829 1824.86,495.847C1831.46,518.472 1841.13,595.96 1811.45,612.699C1781.77,629.438 1673.09,620.982 1646.76,596.28C1620.42,571.578 1645.3,486.216 1653.44,464.486C1658.38,451.317 1686.68,470.207 1695.61,465.896Z" style="fill:#565a75;"/>
            <clipPath id="_clip5">
                <path d="M1695.61,465.896C1704.48,461.612 1698,434.661 1707.03,438.623C1719.4,444.054 1764.57,453.282 1776.44,452.191C1784.8,451.423 1765.58,471.326 1771.81,476.948C1779.88,484.224 1819.6,477.829 1824.86,495.847C1831.46,518.472 1841.13,595.96 1811.45,612.699C1781.77,629.438 1673.09,620.982 1646.76,596.28C1620.42,571.578 1645.3,486.216 1653.44,464.486C1658.38,451.317 1686.68,470.207 1695.61,465.896Z"/>
            </clipPath>
            <g clip-path="url(#_clip5)">
                <path d="M1774,453.609C1777.63,456.561 1771.55,480.177 1767.39,478.038C1743.31,465.638 1726.91,467.185 1699.22,469.87C1692.59,470.513 1698.61,435.91 1715.77,440.007C1738.29,445.384 1765.72,446.86 1774,453.609Z" style="fill:#313343;"/>
            </g>
            <path d="M1695.61,465.896C1704.48,461.612 1698,434.661 1707.03,438.623C1719.4,444.054 1764.57,453.282 1776.44,452.191C1784.8,451.423 1765.58,471.326 1771.81,476.948C1779.88,484.224 1819.6,477.829 1824.86,495.847C1831.46,518.472 1841.13,595.96 1811.45,612.699C1781.77,629.438 1673.09,620.982 1646.76,596.28C1620.42,571.578 1645.3,486.216 1653.44,464.486C1658.38,451.317 1686.68,470.207 1695.61,465.896Z" style="fill:none;stroke:#0f0f1b;stroke-width:10px;stroke-miterlimit:1.5;"/>
            <g id="space-text1" serif:id="space text">
                <path d="M1673.08,555.078C1671.18,556.525 1671.3,587.648 1673.21,588.694C1680.65,592.765 1710.28,594.347 1717.7,588.694C1720.33,586.686 1720.35,556.227 1717.7,554.775C1710.26,550.704 1680.49,549.425 1673.08,555.078Z" style="fill:#0f0f1b;stroke:#0f0f1b;stroke-width:5px;"/>
                <path d="M1675.43,556.001C1673.71,557.186 1673.82,582.673 1675.55,583.529C1682.28,586.863 1709.08,588.159 1715.79,583.529C1718.17,581.885 1718.19,556.942 1715.79,555.753C1709.06,552.419 1682.13,551.372 1675.43,556.001Z" style="fill:#fafbf6;"/>
                <path d="M1700.26,563.794C1700.29,562.965 1699.86,562.189 1699.13,561.786C1698.41,561.384 1697.52,561.423 1696.83,561.888C1694.2,563.667 1690.72,566.026 1688.46,567.559C1687.9,567.936 1687.55,568.548 1687.5,569.219C1687.45,569.89 1687.71,570.547 1688.21,571.001C1690.3,572.915 1693.58,575.919 1696.08,578.209C1696.71,578.787 1697.62,578.946 1698.41,578.616C1699.2,578.286 1699.73,577.528 1699.76,576.672C1699.91,572.847 1700.12,567.509 1700.26,563.794Z" style="fill:#0f0f1b;stroke:#0f0f1b;stroke-width:5px;"/>
            </g>
            <g id="space-text2" serif:id="space text">
                <path d="M1743.07,555.214C1741.17,556.66 1741.29,587.783 1743.2,588.829C1750.64,592.901 1780.27,594.482 1787.69,588.829C1790.32,586.822 1790.34,556.363 1787.69,554.911C1780.25,550.839 1750.48,549.561 1743.07,555.214Z" style="fill:#0f0f1b;stroke:#0f0f1b;stroke-width:5px;"/>
                <path d="M1745.42,556.137C1743.7,557.321 1743.81,582.808 1745.54,583.665C1752.27,586.999 1779.07,588.294 1785.78,583.665C1788.16,582.021 1788.18,557.078 1785.78,555.889C1779.05,552.555 1752.12,551.507 1745.42,556.137Z" style="fill:#fafbf6;"/>
                <path d="M1761.27,576.468C1761.29,577.297 1761.77,578.046 1762.52,578.404C1763.27,578.763 1764.15,578.67 1764.81,578.165C1767.32,576.231 1770.66,573.667 1772.83,572.002C1773.36,571.592 1773.67,570.96 1773.68,570.287C1773.69,569.614 1773.39,568.975 1772.87,568.551C1770.67,566.766 1767.21,563.964 1764.58,561.829C1763.91,561.289 1763,561.185 1762.23,561.562C1761.46,561.938 1760.98,562.727 1761,563.583C1761.08,567.41 1761.19,572.751 1761.27,576.468Z" style="fill:#0f0f1b;stroke:#0f0f1b;stroke-width:5px;"/>
            </g>
            <g id="sign-jump12" serif:id="sign-jump1">
                <path id="foot-front4" serif:id="foot-front" d="M1743.75,533.471C1743.02,532.821 1742.71,532.062 1742.95,531.193C1745.87,520.671 1740.16,501.175 1748.94,497.261C1759.43,492.591 1771.18,496.522 1773.27,506.114C1775.3,515.431 1777.43,524.16 1774.77,532.472C1774.42,533.558 1772.91,534.431 1770.73,535.081C1771.12,536.603 1771.66,538.791 1771.64,540.649C1771.58,546.605 1764.31,544.183 1764.35,541.04C1764.35,540.722 1763.81,538.72 1763.4,536.302C1759.25,536.624 1754.67,536.509 1750.88,535.934C1750.79,537.504 1750.64,539.801 1750.05,541.595C1748.18,547.251 1741.99,542.735 1742.98,539.751C1743.1,539.389 1743.2,536.484 1743.75,533.471Z" style="fill:#fafbf6;stroke:#0f0f1b;stroke-width:3px;"/>
                <path id="arm-right4" serif:id="arm-right" d="M1768.42,524.354C1772.75,526.324 1776.09,526.877 1776.01,527.522C1775.81,529.265 1772.61,530.69 1768.42,530.69C1764.24,530.69 1760.84,529.271 1760.84,527.522C1760.84,525.774 1764.89,522.743 1768.42,524.354Z" style="fill:#fafbf6;stroke:#0f0f1b;stroke-width:3px;"/>
                <path id="arm-left4" serif:id="arm-left" d="M1780.76,522.103C1782.91,522.864 1784.48,522.902 1784.51,523.275C1784.6,524.281 1783.31,525.355 1781.42,525.701C1779.53,526.046 1777.85,525.521 1777.67,524.528C1777.49,523.535 1779,521.48 1780.76,522.103Z" style="fill:#fafbf6;stroke:#0f0f1b;stroke-width:3px;"/>
            </g>
            <path d="M1674.25,521.868C1674.25,521.868 1717.47,509.086 1727.77,514.966" style="fill:none;stroke:#fafbf6;stroke-width:5px;"/>
            <path d="M1679.31,540.437C1679.31,540.437 1722.53,527.655 1732.83,533.535" style="fill:none;stroke:#fafbf6;stroke-width:5px;"/>
        </g>
        <circle id="goal--door---to-level0---goal-" serif:id="goal {door} {to-level0} {goal}" cx="6300.75" cy="763.159" r="30.661" style="fill:#f0e;"/>
        <circle id="_-spinningBar-" serif:id="{spinningBar}" cx="4586.95" cy="658.698" r="30.661" style="fill:#ff1717;"/>
        <circle id="_-timeCapsule-" serif:id="{timeCapsule}" cx="5645.24" cy="995.487" r="30.661" style="fill:#00f683;"/>
    </g>
</svg>
