<?xml version="1.0" encoding="UTF-8" standalone="no"?>
<!DOCTYPE svg PUBLIC "-//W3C//DTD SVG 1.1//EN" "http://www.w3.org/Graphics/SVG/1.1/DTD/svg11.dtd">
<svg width="14934px" height="5410px" version="1.1" xmlns="http://www.w3.org/2000/svg" xmlns:xlink="http://www.w3.org/1999/xlink" xml:space="preserve" xmlns:serif="http://www.serif.com/" style="fill-rule:evenodd;clip-rule:evenodd;stroke-linecap:round;stroke-linejoin:round;stroke-miterlimit:1;">
    <rect id="level3" x="0" y="0" width="14933.2" height="5409.21" style="fill:#565a75;"/>
    <clipPath id="_clip1">
        <rect id="level31" serif:id="level3" x="0" y="0" width="14933.2" height="5409.21"/>
    </clipPath>
    <g clip-path="url(#_clip1)">
        <g id="mountain--parallax-back-" serif:id="mountain {parallax-back}">
            <path d="M1167.94,1875.97C1182.43,1782.24 1339.91,1710.91 1427.37,1692.65C1514.83,1674.4 1603.86,1789.51 1692.72,1766.45C1784.42,1742.66 1863.08,1583.26 1977.61,1549.88C2112.93,1510.45 2330.51,1554.08 2504.64,1529.87C2687.72,1504.41 2900.67,1390.1 3076.09,1397.16C3246.6,1404.03 3392.1,1528.92 3557.15,1572.24C3744.78,1621.49 4047.72,1633.94 4201.83,1692.65C4315.07,1735.8 4360.71,1920.19 4481.81,1924.53C4624.5,1929.64 4923.51,1731.41 5058,1723.31C5150.06,1717.78 5197.25,1864.38 5288.74,1875.97C5397.01,1889.68 5581.01,1749.89 5707.63,1805.6C5896.4,1888.65 6076.04,2023.02 6109.94,2244.52C6135.96,2414.51 4958.62,2374.85 4380.9,2366.43C3747.84,2357.2 2818.33,2207.7 2311.59,2189.14C1987.34,2177.26 1531.04,2307.23 1340.43,2255.04C1206.54,2218.37 1153.45,1969.7 1167.94,1875.97Z" style="fill:#c6b7be;stroke:#c6b7be;stroke-width:7px;"/>
            <path d="M1430.74,1696.7C1454.72,1692.26 1562.76,1722.21 1513.28,1731.39C1449.05,1743.3 1427.02,1719.52 1392.39,1731.39C1357.76,1743.25 1358.41,1789.76 1325.26,1774.53C1292.11,1759.29 1274.2,1753.81 1257.01,1783.68C1239.83,1813.56 1203.08,1827.53 1213.28,1805.7C1215.87,1800.14 1245.3,1772.85 1293.62,1747.55C1336.88,1724.9 1393.3,1703.64 1430.74,1696.7Z" style="fill:#fafbf6;stroke:#fafbf6;stroke-width:7px;"/>
            <path d="M2045.66,1547.29C2099.72,1543.12 2243.93,1528.12 2147.37,1580.41C2089.93,1611.52 2061.11,1568.54 2026.49,1580.41C1991.86,1592.28 1992.51,1638.78 1959.36,1623.55C1926.2,1608.31 1916.23,1608.32 1899.05,1638.2C1881.86,1668.08 1827.07,1680.17 1842.22,1661.44C1913.88,1572.89 1981.05,1552.27 2045.66,1547.29Z" style="fill:#fafbf6;stroke:#fafbf6;stroke-width:7px;"/>
            <path d="M2982.18,1413.61C3049.6,1397.7 3211.96,1399.53 3156.94,1444.58C3106.4,1485.96 3070.68,1432.71 3036.05,1444.58C3001.43,1456.44 3002.07,1502.95 2968.92,1487.72C2935.77,1472.48 2925.79,1472.49 2908.61,1502.37C2891.43,1532.25 2847.07,1549.23 2851.79,1525.61C2856.05,1504.26 2902.36,1432.44 2982.18,1413.61Z" style="fill:#fafbf6;stroke:#fafbf6;stroke-width:7px;"/>
            <path d="M2749.82,1471.29C2783.85,1453.71 2909.31,1411 2870.3,1444.53C2825.36,1483.15 2833.62,1515.64 2806.12,1525.61C2776.41,1536.39 2736.04,1542.68 2727.64,1527.67C2719.24,1512.66 2734.4,1479.25 2749.82,1471.29Z" style="fill:#fafbf6;stroke:#c6b7be;stroke-width:7px;"/>
            <path d="M3233.74,1494.47C3241.34,1492.4 3246.02,1479.61 3250.27,1477.6C3260.91,1472.58 3275.11,1470.14 3277.54,1478.19C3279.96,1486.25 3270.13,1515.68 3266.02,1511.27C3254.3,1498.72 3222.96,1518.9 3225.03,1530.13C3227.55,1543.79 3098.4,1548.62 3132.27,1534.45C3151.74,1526.3 3163.85,1498.93 3186.13,1495.04C3203.83,1491.96 3223.06,1497.38 3233.74,1494.47Z" style="fill:#fafbf6;stroke:#c6b7be;stroke-width:7px;"/>
            <path d="M4226.45,1717.54C4244.31,1730.48 4384.88,1854.18 4281.74,1830.23C4218.11,1815.46 4228.08,1761.66 4194.96,1746.07C4161.84,1730.48 4129.93,1764.32 4116.74,1730.3C4103.55,1696.29 4096.38,1689.35 4063.24,1698.83C4030.11,1708.32 3986.44,1689.62 4006.27,1675.95C4024.19,1663.6 4160.04,1669.43 4226.45,1717.54Z" style="fill:#fafbf6;stroke:#fafbf6;stroke-width:7px;"/>
            <path d="M4935.2,1769.72C4929.19,1797.52 4991.06,1775.55 5031.52,1814.11C5061.19,1842.39 5076.49,1755.82 5103.45,1773.83C5131.43,1792.52 5171,1742.19 5044.2,1731.86C5016.24,1729.58 4937.03,1761.27 4935.2,1769.72Z" style="fill:#fafbf6;stroke:#c6b7be;stroke-width:7px;"/>
            <path d="M5527.61,1832.05C5521.59,1859.85 5668.9,1818.15 5695.85,1836.16C5723.83,1854.86 5763.4,1804.53 5636.6,1794.19C5608.64,1791.91 5529.43,1823.6 5527.61,1832.05Z" style="fill:#fafbf6;stroke:#c6b7be;stroke-width:7px;"/>
        </g>
        <g id="mountain--parallax-back-1" serif:id="mountain {parallax-back}">
            <path d="M4674.25,2417.13C4688.74,2323.4 4846.21,2252.06 4933.68,2233.81C5021.14,2215.56 5110.16,2330.67 5199.02,2307.61C5290.73,2283.82 5369.39,2124.41 5483.91,2091.04C5619.23,2051.61 5836.81,2095.23 6010.94,2071.03C6194.02,2045.57 6406.97,1931.26 6582.39,1938.32C6752.9,1945.18 6898.4,2070.08 7063.46,2113.4C7251.08,2162.65 7554.02,2175.1 7708.13,2233.81C7821.37,2276.95 7867.01,2461.35 7988.11,2465.68C8130.81,2470.79 8429.82,2272.56 8564.31,2264.47C8656.36,2258.93 8703.56,2405.54 8795.05,2417.13C8903.32,2430.84 9087.31,2291.05 9213.93,2346.76C9402.7,2429.81 9582.34,2564.17 9616.25,2785.68C9642.26,2955.67 8464.92,2916.01 7887.2,2907.59C7254.15,2898.36 6324.64,2748.86 5817.89,2730.3C5493.65,2718.42 5037.35,2848.39 4846.74,2796.19C4712.85,2759.53 4659.76,2510.86 4674.25,2417.13Z" style="fill:#c6b7be;stroke:#c6b7be;stroke-width:7px;"/>
            <path d="M4937.04,2237.86C4961.02,2233.41 5069.06,2263.37 5019.58,2272.55C4955.35,2284.46 4933.32,2260.68 4898.69,2272.55C4864.07,2284.41 4864.72,2330.92 4831.56,2315.68C4798.41,2300.45 4780.5,2294.96 4763.32,2324.84C4746.14,2354.72 4709.39,2368.68 4719.58,2346.85C4722.17,2341.3 4751.6,2314 4799.92,2288.71C4843.18,2266.06 4899.61,2244.8 4937.04,2237.86Z" style="fill:#fafbf6;stroke:#fafbf6;stroke-width:7px;"/>
            <path d="M5551.96,2088.45C5606.03,2084.28 5750.23,2069.28 5653.68,2121.57C5596.24,2152.67 5567.42,2109.7 5532.79,2121.57C5498.16,2133.43 5498.81,2179.94 5465.66,2164.71C5432.51,2149.47 5422.53,2149.48 5405.35,2179.36C5388.17,2209.23 5333.37,2221.32 5348.53,2202.6C5420.18,2114.04 5487.35,2093.43 5551.96,2088.45Z" style="fill:#fafbf6;stroke:#fafbf6;stroke-width:7px;"/>
            <path d="M6488.48,1954.77C6555.9,1938.86 6718.26,1940.68 6663.24,1985.74C6612.7,2027.12 6576.98,1973.87 6542.36,1985.74C6507.73,1997.6 6508.38,2044.11 6475.23,2028.88C6442.07,2013.64 6432.1,2013.65 6414.92,2043.53C6397.73,2073.4 6353.37,2090.39 6358.09,2066.76C6362.36,2045.42 6408.66,1973.59 6488.48,1954.77Z" style="fill:#fafbf6;stroke:#fafbf6;stroke-width:7px;"/>
            <path d="M6256.13,2012.44C6290.16,1994.87 6415.61,1952.15 6376.6,1985.69C6331.67,2024.31 6339.93,2056.8 6312.43,2066.77C6282.71,2077.54 6242.34,2083.84 6233.94,2068.83C6225.55,2053.82 6240.7,2020.41 6256.13,2012.44Z" style="fill:#fafbf6;stroke:#c6b7be;stroke-width:7px;"/>
            <path d="M6740.05,2035.63C6747.64,2033.56 6752.32,2020.76 6756.57,2018.76C6767.22,2013.74 6781.41,2011.29 6783.84,2019.35C6786.27,2027.41 6776.44,2056.84 6772.32,2052.43C6760.6,2039.88 6729.26,2060.06 6731.34,2071.29C6733.86,2084.95 6604.7,2089.78 6638.57,2075.61C6658.05,2067.46 6670.15,2040.09 6692.43,2036.2C6710.13,2033.12 6729.36,2038.53 6740.05,2035.63Z" style="fill:#fafbf6;stroke:#c6b7be;stroke-width:7px;"/>
            <path d="M7732.76,2258.7C7750.61,2271.63 7891.19,2395.34 7788.04,2371.39C7724.41,2356.62 7734.38,2302.82 7701.26,2287.23C7668.15,2271.64 7636.23,2305.48 7623.04,2271.46C7609.85,2237.44 7602.68,2230.5 7569.55,2239.99C7536.41,2249.47 7492.74,2230.78 7512.58,2217.11C7530.5,2204.76 7666.35,2210.58 7732.76,2258.7Z" style="fill:#fafbf6;stroke:#fafbf6;stroke-width:7px;"/>
            <path d="M8441.51,2310.88C8435.49,2338.68 8497.37,2316.71 8537.83,2355.27C8567.5,2383.55 8582.8,2296.97 8609.76,2314.99C8637.73,2333.68 8677.31,2283.35 8550.5,2273.01C8522.54,2270.74 8443.34,2302.43 8441.51,2310.88Z" style="fill:#fafbf6;stroke:#c6b7be;stroke-width:7px;"/>
            <path d="M9033.91,2373.21C9027.89,2401.01 9175.2,2359.31 9202.16,2377.32C9230.13,2396.01 9269.71,2345.68 9142.9,2335.35C9114.94,2333.07 9035.74,2364.76 9033.91,2373.21Z" style="fill:#fafbf6;stroke:#c6b7be;stroke-width:7px;"/>
        </g>
        <g id="mountain--parallax-back-2" serif:id="mountain {parallax-back}">
            <path d="M7334.06,1545.27C7348.55,1451.54 7506.03,1380.2 7593.49,1361.95C7680.95,1343.7 7769.97,1458.81 7858.84,1435.75C7950.54,1411.96 8029.2,1252.55 8143.72,1219.18C8279.04,1179.75 8496.62,1223.38 8670.75,1199.17C8853.83,1173.71 9066.78,1059.4 9242.2,1066.46C9412.71,1073.33 9558.22,1198.22 9723.27,1241.54C9910.89,1290.79 10213.8,1303.24 10367.9,1361.95C10481.2,1405.09 10526.8,1589.49 10647.9,1593.82C10790.6,1598.93 11089.6,1400.7 11224.1,1392.61C11316.2,1387.07 11363.4,1533.68 11454.9,1545.27C11563.1,1558.98 11747.1,1419.19 11873.7,1474.9C12062.5,1557.95 12242.2,1692.31 12276.1,1913.82C12302.1,2083.81 11124.7,2044.15 10547,2035.73C9913.96,2026.5 8984.45,1877 8477.7,1858.44C8153.46,1846.56 7697.16,1976.53 7506.55,1924.34C7372.66,1887.67 7319.57,1639 7334.06,1545.27Z" style="fill:#c6b7be;stroke:#c6b7be;stroke-width:7px;"/>
            <path d="M7596.85,1366C7620.84,1361.55 7728.88,1391.51 7679.39,1400.68C7615.17,1412.6 7593.13,1388.82 7558.51,1400.68C7523.88,1412.55 7524.53,1459.06 7491.38,1443.83C7458.22,1428.59 7440.31,1423.1 7423.13,1452.98C7405.95,1482.86 7369.2,1496.82 7379.39,1474.99C7381.99,1469.44 7411.41,1442.14 7459.73,1416.85C7503,1394.2 7559.42,1372.93 7596.85,1366Z" style="fill:#fafbf6;stroke:#fafbf6;stroke-width:7px;"/>
            <path d="M8211.77,1216.59C8265.84,1212.42 8410.04,1197.42 8313.49,1249.71C8256.05,1280.82 8227.23,1237.84 8192.6,1249.71C8157.98,1261.57 8158.62,1308.08 8125.47,1292.85C8092.32,1277.61 8082.34,1277.62 8065.16,1307.5C8047.98,1337.37 7993.18,1349.46 8008.34,1330.74C8079.99,1242.18 8147.16,1221.57 8211.77,1216.59Z" style="fill:#fafbf6;stroke:#fafbf6;stroke-width:7px;"/>
            <path d="M9148.29,1082.9C9215.71,1067 9378.08,1068.83 9323.06,1113.88C9272.51,1155.26 9236.8,1102.01 9202.17,1113.88C9167.54,1125.74 9168.19,1172.25 9135.04,1157.02C9101.89,1141.78 9091.91,1141.79 9074.73,1171.66C9057.55,1201.54 9013.18,1218.53 9017.9,1194.9C9022.17,1173.56 9068.48,1101.73 9148.29,1082.9Z" style="fill:#fafbf6;stroke:#fafbf6;stroke-width:7px;"/>
            <path d="M8915.94,1140.58C8949.97,1123.01 9075.42,1080.3 9036.41,1113.83C8991.48,1152.45 8999.74,1184.94 8972.24,1194.91C8942.53,1205.68 8902.15,1211.98 8893.76,1196.97C8885.36,1181.96 8900.51,1148.55 8915.94,1140.58Z" style="fill:#fafbf6;stroke:#c6b7be;stroke-width:7px;"/>
            <path d="M9399.86,1163.77C9407.45,1161.7 9412.13,1148.9 9416.38,1146.9C9427.03,1141.88 9441.23,1139.43 9443.65,1147.49C9446.08,1155.55 9436.25,1184.98 9432.14,1180.57C9420.42,1168.02 9389.08,1188.2 9391.15,1199.43C9393.67,1213.09 9264.52,1217.92 9298.39,1203.75C9317.86,1195.6 9329.96,1168.23 9352.25,1164.34C9369.94,1161.26 9389.17,1166.67 9399.86,1163.77Z" style="fill:#fafbf6;stroke:#c6b7be;stroke-width:7px;"/>
            <path d="M10392.6,1386.84C10410.4,1399.77 10551,1523.48 10447.9,1499.53C10384.2,1484.76 10394.2,1430.96 10361.1,1415.37C10328,1399.78 10296,1433.62 10282.9,1399.6C10269.7,1365.58 10262.5,1358.64 10229.4,1368.13C10196.2,1377.62 10152.6,1358.92 10172.4,1345.25C10190.3,1332.9 10326.2,1338.73 10392.6,1386.84Z" style="fill:#fafbf6;stroke:#fafbf6;stroke-width:7px;"/>
            <path d="M11101.3,1439.02C11095.3,1466.82 11157.2,1444.85 11197.6,1483.41C11227.3,1511.68 11242.6,1425.11 11269.6,1443.13C11297.5,1461.82 11337.1,1411.49 11210.3,1401.15C11182.4,1398.88 11103.1,1430.57 11101.3,1439.02Z" style="fill:#fafbf6;stroke:#c6b7be;stroke-width:7px;"/>
            <path d="M11693.7,1501.35C11687.7,1529.15 11835,1487.45 11862,1505.46C11889.9,1524.15 11929.5,1473.82 11802.7,1463.49C11774.8,1461.21 11695.6,1492.9 11693.7,1501.35Z" style="fill:#fafbf6;stroke:#c6b7be;stroke-width:7px;"/>
        </g>
        <circle id="_-spinningBar-" serif:id="{spinningBar}" cx="3267.08" cy="2164.41" r="30.661" style="fill:#ff1717;"/>
        <circle id="_-spinningBar-1" serif:id="{spinningBar}" cx="3034.43" cy="1369.45" r="30.661" style="fill:#ff1717;"/>
        <circle id="_-spinningBar-2" serif:id="{spinningBar}" cx="3469.32" cy="985.925" r="30.661" style="fill:#ff1717;"/>
        <circle id="_-spinningBar-3" serif:id="{spinningBar}" cx="4358.53" cy="1419.54" r="30.661" style="fill:#ff1717;"/>
        <circle id="_-spinningBar-4" serif:id="{spinningBar}" cx="4780.9" cy="1002.73" r="30.661" style="fill:#ff1717;"/>
        <circle id="_-spinningBar-5" serif:id="{spinningBar}" cx="5101.45" cy="1745.13" r="30.661" style="fill:#ff1717;"/>
        <circle id="_-spinningBar-6" serif:id="{spinningBar}" cx="5648.64" cy="1388.88" r="30.661" style="fill:#ff1717;"/>
        <circle id="_-spinningBar-7" serif:id="{spinningBar}" cx="6462.98" cy="1731.74" r="30.661" style="fill:#ff1717;"/>
        <circle id="_-spinningBar-8" serif:id="{spinningBar}" cx="6953.93" cy="1094.71" r="30.661" style="fill:#ff1717;"/>
        <circle id="_-spinningBar-9" serif:id="{spinningBar}" cx="7015.26" cy="1621.69" r="30.661" style="fill:#ff1717;"/>
        <circle id="_-spinningBar-10" serif:id="{spinningBar}" cx="7811.78" cy="1206.33" r="30.661" style="fill:#ff1717;"/>
        <circle id="_-spinningBar-11" serif:id="{spinningBar}" cx="8455.36" cy="891.858" r="30.661" style="fill:#ff1717;"/>
        <circle id="_-spinningBar-12" serif:id="{spinningBar}" cx="3497.71" cy="2164.41" r="30.661" style="fill:#ff1717;"/>
        <circle id="_-spinningBar-13" serif:id="{spinningBar}" cx="3728.35" cy="2164.41" r="30.661" style="fill:#ff1717;"/>
        <circle id="_-spinningBar-14" serif:id="{spinningBar}" cx="3958.99" cy="2164.41" r="30.661" style="fill:#ff1717;"/>
        <circle id="_-spinningBar-15" serif:id="{spinningBar}" cx="4189.63" cy="2164.41" r="30.661" style="fill:#ff1717;"/>
        <circle id="_-spinningBar-16" serif:id="{spinningBar}" cx="4420.27" cy="2164.41" r="30.661" style="fill:#ff1717;"/>
        <circle id="_-spinningBar-17" serif:id="{spinningBar}" cx="4650.9" cy="2164.41" r="30.661" style="fill:#ff1717;"/>
        <circle id="_-spinningBar-18" serif:id="{spinningBar}" cx="4881.54" cy="2164.41" r="30.661" style="fill:#ff1717;"/>
        <circle id="_-spinningBar-19" serif:id="{spinningBar}" cx="5112.18" cy="2164.41" r="30.661" style="fill:#ff1717;"/>
        <circle id="_-spinningBar-20" serif:id="{spinningBar}" cx="5342.82" cy="2164.41" r="30.661" style="fill:#ff1717;"/>
        <circle id="_-spinningBar-21" serif:id="{spinningBar}" cx="5475.56" cy="2164.41" r="30.661" style="fill:#ff1717;"/>
        <circle id="_-spinningBar-22" serif:id="{spinningBar}" cx="5706.2" cy="2164.41" r="30.661" style="fill:#ff1717;"/>
        <circle id="_-spinningBar-23" serif:id="{spinningBar}" cx="5936.84" cy="2164.41" r="30.661" style="fill:#ff1717;"/>
        <circle id="_-spinningBar-24" serif:id="{spinningBar}" cx="6167.48" cy="2164.41" r="30.661" style="fill:#ff1717;"/>
        <circle id="_-spinningBar-25" serif:id="{spinningBar}" cx="6398.11" cy="2164.41" r="30.661" style="fill:#ff1717;"/>
        <circle id="_-spinningBar-26" serif:id="{spinningBar}" cx="6628.75" cy="2164.41" r="30.661" style="fill:#ff1717;"/>
        <g id="_-parallax-back-" serif:id="{parallax-back}">
            <path d="M802.733,501.04C731.051,507.565 626.759,419.967 608.667,366.208C564.539,235.087 486.69,39.582 520.789,-110.959C557.16,-271.532 793.06,-358.457 921.764,-389.74C1452.93,-518.846 3090.64,-319.291 3822.87,-287.153C4320.73,-265.302 5066.81,-298.058 5315.16,-196.915C5474.65,-131.962 5470.7,250.576 5312.97,319.704C5223.07,359.109 5070.63,399.076 4888.01,434.872C4863.9,439.598 4825.59,397.406 4800.51,401.976C4787.95,404.262 4788.97,453.371 4776.2,455.614C4388.8,523.669 3905.9,571.213 3587.81,560.162C3557.02,559.092 3536.09,531.894 3505.67,528.246C3484.81,525.744 3454.38,547.425 3433.67,543.86C3085.95,483.983 2758.71,282.695 2410.63,227.537C2385.61,223.572 2369.29,195.922 2344.03,193.574C2320.23,191.361 2287.5,214.354 2263.47,213.762C2037.62,208.201 1723.29,286.617 1427.66,363.355C1405.89,369.007 1384.22,347.63 1362.69,353.229C1334.65,360.524 1306.85,394.764 1279.39,401.836C1095.94,449.082 927.638,489.67 802.733,501.04Z" style="fill:#51556e;stroke:#51556b;stroke-width:5px;"/>
            <g id="japanese-skies" serif:id="japanese skies">
                <g>
                    <path d="M5060.09,174.884C5060.09,165.86 5052.77,158.534 5043.74,158.534L4826.52,158.534C4817.5,158.534 4810.17,165.86 4810.17,174.884C4810.17,183.907 4817.5,191.233 4826.52,191.233L5043.74,191.233C5052.77,191.233 5060.09,183.907 5060.09,174.884Z" style="fill:#565a75;"/>
                    <path d="M4916.66,225.211L4853.82,225.211C4862.85,225.211 4870.18,217.312 4870.18,207.583C4870.18,197.853 4862.85,189.954 4853.82,189.954L4916.66,189.954C4907.64,189.954 4900.31,197.853 4900.31,207.583C4900.31,217.312 4907.64,225.211 4916.66,225.211Z" style="fill:#565a75;"/>
                    <path d="M5117.47,240.282C5117.47,231.258 5110.15,223.932 5101.12,223.932L4769.14,223.932C4760.12,223.932 4752.79,231.258 4752.79,240.282C4752.79,249.305 4760.12,256.631 4769.14,256.631L5101.12,256.631C5110.15,256.631 5117.47,249.305 5117.47,240.282Z" style="fill:#565a75;"/>
                </g>
                <g>
                    <path d="M2630.74,207.583C2630.74,198.559 2623.41,191.233 2614.39,191.233L2397.17,191.233C2388.14,191.233 2380.82,198.559 2380.82,207.583C2380.82,216.606 2388.14,223.932 2397.17,223.932L2614.39,223.932C2623.41,223.932 2630.74,216.606 2630.74,207.583Z" style="fill:#565a75;"/>
                    <path d="M2487.31,257.91L2424.47,257.91C2433.49,257.91 2440.82,250.011 2440.82,240.282C2440.82,230.552 2433.49,222.653 2424.47,222.653L2487.31,222.653C2478.28,222.653 2470.96,230.552 2470.96,240.282C2470.96,250.011 2478.28,257.91 2487.31,257.91Z" style="fill:#565a75;"/>
                    <path d="M2522.13,272.981C2522.13,263.957 2514.8,256.631 2505.78,256.631L2339.79,256.631C2330.76,256.631 2323.44,263.957 2323.44,272.981C2323.44,282.004 2330.76,289.33 2339.79,289.33L2505.78,289.33C2514.8,289.33 2522.13,282.004 2522.13,272.981Z" style="fill:#565a75;"/>
                    <path d="M2440.82,338.378C2440.82,329.355 2433.49,322.029 2424.47,322.029L2339.79,322.029C2330.76,322.029 2323.44,329.355 2323.44,338.378C2323.44,347.402 2330.76,354.728 2339.79,354.728L2424.47,354.728C2433.49,354.728 2440.82,347.402 2440.82,338.378Z" style="fill:#565a75;"/>
                </g>
                <g>
                    <path d="M3633.31,33.298C3633.31,24.275 3640.64,16.949 3649.66,16.949L3866.88,16.949C3875.9,16.949 3883.23,24.275 3883.23,33.298C3883.23,42.322 3875.9,49.648 3866.88,49.648L3649.66,49.648C3640.64,49.648 3633.31,42.322 3633.31,33.298Z" style="fill:#565a75;"/>
                    <path d="M3776.74,83.626L3839.58,83.626C3830.55,83.626 3823.23,75.727 3823.23,65.997C3823.23,56.268 3830.55,48.369 3839.58,48.369L3776.74,48.369C3785.76,48.369 3793.09,56.268 3793.09,65.997C3793.09,75.727 3785.76,83.626 3776.74,83.626Z" style="fill:#565a75;"/>
                    <path d="M3741.92,98.696C3741.92,89.673 3749.25,82.347 3758.27,82.347L3924.26,82.347C3933.28,82.347 3940.61,89.673 3940.61,98.696C3940.61,107.72 3933.28,115.046 3924.26,115.046L3758.27,115.046C3749.25,115.046 3741.92,107.72 3741.92,98.696Z" style="fill:#565a75;"/>
                </g>
                <g>
                    <path d="M4320.44,372.635L4383.28,372.635C4374.25,372.635 4366.93,364.736 4366.93,355.007C4366.93,345.277 4374.25,337.378 4383.28,337.378L4320.44,337.378C4329.46,337.378 4336.79,345.277 4336.79,355.007C4336.79,364.736 4329.46,372.635 4320.44,372.635Z" style="fill:#565a75;"/>
                    <path d="M4263.17,322.029C4263.17,313.005 4270.49,305.68 4279.52,305.68L4415.52,305.68C4424.55,305.68 4431.87,313.005 4431.87,322.029C4431.87,331.052 4424.55,338.378 4415.52,338.378L4279.52,338.378C4270.49,338.378 4263.17,331.052 4263.17,322.029Z" style="fill:#565a75;"/>
                    <path d="M4263.17,386.985C4263.17,377.961 4270.49,370.635 4279.52,370.635L4610.95,370.635C4619.98,370.635 4627.3,377.961 4627.3,386.985C4627.3,396.008 4619.98,403.334 4610.95,403.334L4279.52,403.334C4270.49,403.334 4263.17,396.008 4263.17,386.985Z" style="fill:#565a75;"/>
                </g>
            </g>
            <path d="M5285.59,762.207C5213.9,768.732 5109.61,681.134 5091.52,627.375C5070.4,564.612 5041.55,487.099 5020.95,406.826C4998.52,319.395 4985.87,228.691 5003.64,150.208C5040.01,-10.365 5275.91,-97.29 5404.62,-128.573C5935.78,-257.679 7573.49,-58.124 8305.72,-25.986C8803.58,-4.135 9549.67,-36.891 9798.02,64.252C9957.51,129.205 9953.55,511.743 9795.83,580.871C9705.92,620.276 9553.49,660.243 9370.87,696.039C9346.76,700.765 9308.45,658.573 9283.36,663.143C9270.81,665.429 9271.82,714.538 9259.06,716.781C8871.66,784.836 8388.75,832.38 8070.66,821.329C8039.87,820.259 8018.94,793.061 7988.53,789.413C7967.67,786.911 7937.23,808.592 7916.53,805.027C7568.81,745.15 7241.56,543.862 6893.49,488.704C6868.46,484.739 6852.14,457.089 6826.89,454.741C6803.08,452.528 6770.36,475.521 6746.32,474.929C6520.48,469.368 6206.14,547.784 5910.52,624.522C5888.74,630.174 5867.07,608.797 5845.55,614.396C5817.51,621.691 5789.7,655.931 5762.24,663.003C5578.79,710.249 5410.49,750.837 5285.59,762.207Z" style="fill:#51556e;stroke:#51556b;stroke-width:5px;"/>
        </g>
        <path id="ground--collision-" serif:id="ground {collision}" d="M2705.3,1754.06C3114.16,1798.41 3416.22,3029.69 3420.25,3231.18C3424.27,3432.67 -82.259,3074.6 -929.05,3111.34C-1775.84,3148.08 -1329.14,1608.94 -1446.73,890.132C-1564.33,171.325 693.624,302.26 760.086,338.378C826.548,374.497 503.553,702.884 474.669,746.198C445.784,789.512 462.461,970.616 648.299,963.005C767.69,958.115 685.508,1156.09 512.388,1313.44C291.028,1514.63 361.738,1747.99 512.388,1770.34C692.668,1797.09 891.485,1566.33 1594.07,1473.95C2296.65,1381.57 2126.82,1691.31 2705.3,1754.06Z" style="fill:#565a75;stroke:#000;stroke-width:15px;stroke-linecap:butt;stroke-miterlimit:1.5;"/>
        <path id="ground--collision-1" serif:id="ground {collision}" d="M7180.86,1754.06C6771.99,1798.41 6469.93,3029.69 6465.91,3231.18C6461.89,3432.67 9968.41,3074.6 10815.2,3111.34C11662,3148.08 11215.3,1608.94 11332.9,890.132C11450.5,171.325 8747.81,303.225 8724.59,441.205C8712.04,515.798 9192.87,743.822 9221.76,787.136C9250.64,830.449 9255.26,844.789 9237.86,963.005C9179.63,1358.39 8228.94,1890.18 7855.46,1474C7695.64,1295.9 7588.1,1709.88 7180.86,1754.06Z" style="fill:#565a75;stroke:#0f0f1b;stroke-width:15px;stroke-linecap:butt;stroke-miterlimit:1.5;"/>
        <g id="japanese-skies1" serif:id="japanese skies">
            <g>
                <path d="M8888.63,174.884C8888.63,165.86 8881.31,158.534 8872.28,158.534L8655.06,158.534C8646.04,158.534 8638.71,165.86 8638.71,174.884C8638.71,183.907 8646.04,191.233 8655.06,191.233L8872.28,191.233C8881.31,191.233 8888.63,183.907 8888.63,174.884Z" style="fill:#565a75;"/>
                <path d="M8745.2,225.211L8682.37,225.211C8691.39,225.211 8698.72,217.312 8698.72,207.583C8698.72,197.853 8691.39,189.954 8682.37,189.954L8745.2,189.954C8736.18,189.954 8728.85,197.853 8728.85,207.583C8728.85,217.312 8736.18,225.211 8745.2,225.211Z" style="fill:#565a75;"/>
                <path d="M8946.01,240.282C8946.01,231.258 8938.69,223.932 8929.66,223.932L8597.68,223.932C8588.66,223.932 8581.33,231.258 8581.33,240.282C8581.33,249.305 8588.66,256.631 8597.68,256.631L8929.66,256.631C8938.69,256.631 8946.01,249.305 8946.01,240.282Z" style="fill:#565a75;"/>
            </g>
            <g>
                <path d="M6459.28,207.583C6459.28,198.559 6451.95,191.233 6442.93,191.233L6225.71,191.233C6216.69,191.233 6209.36,198.559 6209.36,207.583C6209.36,216.606 6216.69,223.932 6225.71,223.932L6442.93,223.932C6451.95,223.932 6459.28,216.606 6459.28,207.583Z" style="fill:#565a75;"/>
                <path d="M6315.85,257.91L6253.01,257.91C6262.04,257.91 6269.36,250.011 6269.36,240.282C6269.36,230.552 6262.04,222.653 6253.01,222.653L6315.85,222.653C6306.83,222.653 6299.5,230.552 6299.5,240.282C6299.5,250.011 6306.83,257.91 6315.85,257.91Z" style="fill:#565a75;"/>
                <path d="M6350.67,272.981C6350.67,263.957 6343.34,256.631 6334.32,256.631L6168.33,256.631C6159.31,256.631 6151.98,263.957 6151.98,272.981C6151.98,282.004 6159.31,289.33 6168.33,289.33L6334.32,289.33C6343.34,289.33 6350.67,282.004 6350.67,272.981Z" style="fill:#565a75;"/>
                <path d="M6269.36,338.378C6269.36,329.355 6262.04,322.029 6253.01,322.029L6168.33,322.029C6159.31,322.029 6151.98,329.355 6151.98,338.378C6151.98,347.402 6159.31,354.728 6168.33,354.728L6253.01,354.728C6262.04,354.728 6269.36,347.402 6269.36,338.378Z" style="fill:#565a75;"/>
            </g>
            <g>
                <path d="M7461.85,33.298C7461.85,24.275 7469.18,16.949 7478.2,16.949L7695.42,16.949C7704.45,16.949 7711.77,24.275 7711.77,33.298C7711.77,42.322 7704.45,49.648 7695.42,49.648L7478.2,49.648C7469.18,49.648 7461.85,42.322 7461.85,33.298Z" style="fill:#565a75;"/>
                <path d="M7605.28,83.626L7668.12,83.626C7659.1,83.626 7651.77,75.727 7651.77,65.997C7651.77,56.268 7659.1,48.369 7668.12,48.369L7605.28,48.369C7614.31,48.369 7621.63,56.268 7621.63,65.997C7621.63,75.727 7614.31,83.626 7605.28,83.626Z" style="fill:#565a75;"/>
                <path d="M7570.46,98.696C7570.46,89.673 7577.79,82.347 7586.81,82.347L7752.8,82.347C7761.83,82.347 7769.15,89.673 7769.15,98.696C7769.15,107.72 7761.83,115.046 7752.8,115.046L7586.81,115.046C7577.79,115.046 7570.46,107.72 7570.46,98.696Z" style="fill:#565a75;"/>
            </g>
            <g>
                <path d="M8148.98,372.635L8211.82,372.635C8202.8,372.635 8195.47,364.736 8195.47,355.007C8195.47,345.277 8202.8,337.378 8211.82,337.378L8148.98,337.378C8158.01,337.378 8165.33,345.277 8165.33,355.007C8165.33,364.736 8158.01,372.635 8148.98,372.635Z" style="fill:#565a75;"/>
                <path d="M8091.71,322.029C8091.71,313.005 8099.04,305.68 8108.06,305.68L8244.07,305.68C8253.09,305.68 8260.42,313.005 8260.42,322.029C8260.42,331.052 8253.09,338.378 8244.07,338.378L8108.06,338.378C8099.04,338.378 8091.71,331.052 8091.71,322.029Z" style="fill:#565a75;"/>
                <path d="M8091.71,386.985C8091.71,377.961 8099.04,370.635 8108.06,370.635L8439.5,370.635C8448.52,370.635 8455.84,377.961 8455.84,386.985C8455.84,396.008 8448.52,403.334 8439.5,403.334L8108.06,403.334C8099.04,403.334 8091.71,396.008 8091.71,386.985Z" style="fill:#565a75;"/>
            </g>
        </g>
        <path id="foreground-shadow--parallax-front-" serif:id="foreground-shadow {parallax-front}" d="M7911.97,3190.82C7900.36,3104.39 4679.42,1955.33 4418.1,1869.1C4402.9,1864.09 4376.71,1897.65 4362.13,1892.85C4348.44,1888.34 4346.32,1845.45 4333.21,1841.2C4221.75,1805.03 4132.41,1779.39 4076.95,1784.27C3922.23,1797.87 3615.41,2167.48 3210.65,2235.51C3189.8,2239.01 3171.5,2267.45 3150.91,2270.86C3130.16,2274.29 3107.12,2252.69 3086.73,2256C3042.35,2263.21 2998.91,2270.09 2956.91,2276.53C2504.51,2345.89 1811.15,2352.45 1453.05,2306.37C1354.92,2293.74 1260.57,2262.34 1169.84,2220.11C1145.64,2208.85 1085.9,2248.09 1062.21,2235.45C1034.29,2220.53 1042.52,2153.48 1015.3,2137.1C943.927,2094.14 874.95,2046.97 808.275,2000.05C777.685,1978.52 623.69,1875.18 534.695,1814.26C501.364,1791.44 458.601,1827.83 442.918,1816.54C402.697,1787.61 431.831,1748.63 389.206,1715.6C64.703,1464.12 -338.333,1063.26 -455.958,561.425C-592.346,-20.466 -1514.6,176.237 -1517.9,215.6C-1521.01,252.635 -1892.57,3331.93 -1887.76,3489.49C-1882.41,3665.15 7923.59,3277.25 7911.97,3190.82Z" style="fill:#313343;stroke:#313343;stroke-width:5px;"/>
        <path id="foreground-shadow--parallax-front-1" serif:id="foreground-shadow {parallax-front}" d="M11109.4,3807.66C11105.7,3931.32 7115.75,3984.12 5281.24,3463.2C4509.7,3244.11 4726.22,2212.8 4803.58,2187.28C4818.79,2182.26 4844.98,2215.82 4859.56,2211.02C4873.25,2206.51 4875.37,2163.62 4888.47,2159.37C4999.94,2123.21 5089.28,2097.57 5144.74,2102.44C5299.46,2116.04 5449.06,1846.2 5853.83,1914.23C5874.67,1917.73 5892.97,1946.17 5913.56,1949.58C5934.31,1953.01 5957.35,1931.41 5977.75,1934.72C6022.13,1941.93 6065.56,1948.81 6107.57,1955.25C6559.96,2024.61 7253.32,2031.17 7611.42,1985.09C7709.55,1972.47 7803.9,1941.06 7894.63,1898.83C7918.83,1887.57 7978.57,1926.82 8002.26,1914.17C8030.19,1899.25 8021.95,1832.2 8049.18,1815.82C8120.55,1772.86 8189.52,1725.69 8256.2,1678.77C8286.79,1657.24 8861.96,1551.93 8950.95,1491C8984.28,1468.18 9027.05,1504.57 9042.73,1493.29C9082.95,1464.36 9053.82,1425.38 9096.44,1392.34C9420.94,1140.87 9560.02,1381.43 9677.64,879.598C9814.03,297.707 11532.4,189.264 11535.7,228.626C11538.8,265.662 11114.3,3650.11 11109.4,3807.66Z" style="fill:#313343;stroke:#313343;stroke-width:5px;"/>
        <g id="hook-group" serif:id="hook group">
            <circle id="_-hook-" serif:id="{hook}" cx="2428.61" cy="1397.66" r="30.661" style="fill:#ffd617;"/>
            <path id="_-patrolRoute-" serif:id="{patrolRoute}" d="M2428.61,1396.85C2428.61,1396.85 2774.47,1119.19 3022.73,1094.85C3270.99,1070.52 3416.85,1353.43 3554.11,1396.85C3691.38,1440.27 3940.59,1227.38 4146.6,1219.41C4410.96,1209.19 5049.28,1072.21 5140.29,1335.53C5231.3,1598.84 5777.32,1775.04 5979.87,1708.02C6182.42,1641.01 6512.87,1150.22 6728.03,1253.32C6943.19,1356.41 7258.28,1480.83 7351.78,1396.85C7445.28,1312.87 7643.11,927.241 7878.39,956.886C8113.66,986.531 8297.95,1163.15 8520.78,1123.77" style="fill:none;stroke:#0f0f1b;stroke-width:6px;stroke-linecap:butt;stroke-miterlimit:1.5;"/>
        </g>
        <g id="hook-group1" serif:id="hook group">
            <circle id="_-hook-1" serif:id="{hook}" cx="656.128" cy="829.874" r="30.661" style="fill:#ffd617;"/>
            <path id="_-patrolRoute-1" serif:id="{patrolRoute}" d="M656.128,829.874L1019.57,829.874" style="fill:none;stroke:#000;stroke-width:6px;stroke-linecap:butt;stroke-miterlimit:1.5;"/>
        </g>
        <circle id="_-door---to-level0---goal-" serif:id="{door} {to-level0} {goal}" cx="8205.22" cy="1525.28" r="30.661" style="fill:#f0e;"/>
        <circle id="_-timeCapsule-" serif:id="{timeCapsule}" cx="459.436" cy="1677.36" r="30.661" style="fill:#00f683;"/>
        <circle id="_-timeCapsule-1" serif:id="{timeCapsule}" cx="7301.09" cy="1586.6" r="30.661" style="fill:#00f683;"/>
        <circle id="start" cx="544.605" cy="866.183" r="30.661" style="fill:#f0e;"/>
        <rect id="_-box-" serif:id="{box}" x="724.269" y="1576.86" width="79.317" height="79.317" style="fill:none;stroke:#0f0f1b;stroke-width:5px;"/>
        <rect id="_-box-1" serif:id="{box}" x="724.269" y="1491.32" width="79.317" height="79.317" style="fill:none;stroke:#0f0f1b;stroke-width:5px;"/>
        <rect id="_-box-2" serif:id="{box}" x="724.269" y="1406.07" width="79.317" height="79.317" style="fill:none;stroke:#0f0f1b;stroke-width:5px;"/>
        <rect id="_-box-3" serif:id="{box}" x="1073.61" y="1208.83" width="79.317" height="79.317" style="fill:none;stroke:#0f0f1b;stroke-width:5px;"/>
        <rect id="_-box-4" serif:id="{box}" x="939.458" y="1208.83" width="79.317" height="79.317" style="fill:none;stroke:#0f0f1b;stroke-width:5px;"/>
        <circle id="_-timeCapsule-2" serif:id="{timeCapsule}" cx="4806.86" cy="1304.87" r="30.661" style="fill:#00f683;"/>
        <g id="Tutorial-1" serif:id="Tutorial 1">
            <path d="M2119.45,1469.46C2107.77,1473.13 2108.21,1509.08 2098.58,1502.13C2085.37,1492.61 2034.3,1471.45 2019.93,1470.4C2009.82,1469.67 2037.96,1448.07 2032.08,1439.57C2024.47,1428.57 1975.66,1428.59 1974.27,1404.37C1972.52,1373.96 1981.9,1272.47 2021.59,1257.09C2061.28,1241.71 2187.85,1274.96 2212.43,1312.11C2237,1349.25 2184.55,1453.73 2169.06,1479.96C2159.67,1495.85 2131.2,1465.77 2119.45,1469.46Z" style="fill:#565a75;"/>
            <clipPath id="_clip2">
                <path d="M2119.45,1469.46C2107.77,1473.13 2108.21,1509.08 2098.58,1502.13C2085.37,1492.61 2034.3,1471.45 2019.93,1470.4C2009.82,1469.67 2037.96,1448.07 2032.08,1439.57C2024.47,1428.57 1975.66,1428.59 1974.27,1404.37C1972.52,1373.96 1981.9,1272.47 2021.59,1257.09C2061.28,1241.71 2187.85,1274.96 2212.43,1312.11C2237,1349.25 2184.55,1453.73 2169.06,1479.96C2159.67,1495.85 2131.2,1465.77 2119.45,1469.46Z"/>
            </clipPath>
            <g clip-path="url(#_clip2)">
                <path d="M2023.2,1469.09C2019.7,1464.55 2033.26,1435.48 2037.61,1439.08C2062.82,1459.96 2082.69,1461.36 2116.24,1463.62C2124.28,1464.16 2107.83,1507.35 2088.58,1498.55C2063.33,1487.01 2031.21,1479.46 2023.2,1469.09Z" style="fill:#313343;"/>
            </g>
            <path d="M2119.45,1469.46C2107.77,1473.13 2108.21,1509.08 2098.58,1502.13C2085.37,1492.61 2034.3,1471.45 2019.93,1470.4C2009.82,1469.67 2037.96,1448.07 2032.08,1439.57C2024.47,1428.57 1975.66,1428.59 1974.27,1404.37C1972.52,1373.96 1981.9,1272.47 2021.59,1257.09C2061.28,1241.71 2187.85,1274.96 2212.43,1312.11C2237,1349.25 2184.55,1453.73 2169.06,1479.96C2159.67,1495.85 2131.2,1465.77 2119.45,1469.46Z" style="fill:none;stroke:#0f0f1b;stroke-width:10px;stroke-miterlimit:1.5;"/>
            <g id="space-text" serif:id="space text">
                <path d="M2161.87,1339.25C2164.01,1338.18 2169.77,1307.6 2168.09,1306.21C2161.55,1300.81 2132.75,1293.66 2124.41,1297.81C2121.44,1299.28 2115.67,1329.19 2118,1331.12C2124.54,1336.52 2153.52,1343.4 2161.87,1339.25Z" style="fill:#0f0f1b;stroke:#0f0f1b;stroke-width:5px;"/>
                <path d="M2159.74,1337.89C2161.65,1337.06 2166.35,1312.01 2164.82,1310.84C2158.84,1306.29 2132.76,1299.96 2125.3,1303.24C2122.66,1304.4 2117.93,1328.89 2120.06,1330.52C2126.04,1335.06 2152.28,1341.17 2159.74,1337.89Z" style="fill:#fafbf6;"/>
                <path d="M2136.82,1325.55C2136.64,1326.36 2136.92,1327.2 2137.55,1327.74C2138.19,1328.27 2139.07,1328.4 2139.83,1328.07C2142.75,1326.82 2146.61,1325.16 2149.12,1324.08C2149.74,1323.82 2150.21,1323.28 2150.38,1322.63C2150.56,1321.99 2150.42,1321.29 2150.02,1320.75C2148.33,1318.48 2145.68,1314.91 2143.65,1312.19C2143.14,1311.5 2142.28,1311.17 2141.44,1311.35C2140.6,1311.52 2139.94,1312.17 2139.75,1313C2138.88,1316.73 2137.67,1321.93 2136.82,1325.55Z" style="fill:#0f0f1b;stroke:#0f0f1b;stroke-width:5px;"/>
            </g>
            <g id="space-text1" serif:id="space text">
                <path d="M2077.77,1317.27C2079.9,1316.21 2085.66,1285.62 2083.98,1284.23C2077.44,1278.83 2048.65,1271.68 2040.3,1275.83C2037.33,1277.31 2031.56,1307.21 2033.89,1309.14C2040.43,1314.54 2069.42,1321.42 2077.77,1317.27Z" style="fill:#0f0f1b;stroke:#0f0f1b;stroke-width:5px;"/>
                <path d="M2075.63,1315.92C2077.54,1315.08 2082.25,1290.03 2080.71,1288.86C2074.73,1284.32 2048.66,1277.98 2041.2,1281.26C2038.55,1282.43 2033.82,1306.92 2035.95,1308.54C2041.93,1313.09 2068.17,1319.2 2075.63,1315.92Z" style="fill:#fafbf6;"/>
                <path d="M2063.91,1292.96C2064.05,1292.14 2063.71,1291.32 2063.05,1290.82C2062.38,1290.33 2061.49,1290.25 2060.75,1290.62C2057.92,1292.05 2054.16,1293.94 2051.71,1295.16C2051.11,1295.46 2050.68,1296.03 2050.55,1296.68C2050.41,1297.34 2050.59,1298.03 2051.02,1298.54C2052.84,1300.71 2055.71,1304.12 2057.89,1306.71C2058.44,1307.37 2059.32,1307.64 2060.15,1307.42C2060.98,1307.19 2061.6,1306.51 2061.74,1305.66C2062.38,1301.89 2063.28,1296.62 2063.91,1292.96Z" style="fill:#0f0f1b;stroke:#0f0f1b;stroke-width:5px;"/>
            </g>
            <g id="sign-jump1">
                <path id="foot-front" d="M2063.41,1431.07C2062.89,1430.25 2062.8,1429.43 2063.27,1428.66C2068.99,1419.36 2068.91,1399.05 2078.43,1397.72C2089.8,1396.14 2100,1403.18 2099.35,1412.97C2098.72,1422.49 2098.35,1431.46 2093.48,1438.71C2092.84,1439.66 2091.16,1440.08 2088.88,1440.1C2088.84,1441.67 2088.75,1443.92 2088.21,1445.7C2086.5,1451.41 2080.19,1447.07 2081.09,1444.05C2081.19,1443.75 2081.22,1441.67 2081.49,1439.24C2077.43,1438.4 2073.05,1437.02 2069.57,1435.41C2069.05,1436.9 2068.27,1439.06 2067.2,1440.62C2063.84,1445.54 2059.15,1439.49 2060.92,1436.89C2061.14,1436.58 2062.05,1433.82 2063.41,1431.07Z" style="fill:#fafbf6;stroke:#0f0f1b;stroke-width:3px;"/>
                <path id="arm-right" d="M2092.85,1416.64C2097.54,1415.89 2100.63,1414.51 2100.92,1415.08C2101.72,1416.65 2099.84,1419.6 2096.35,1421.92C2092.86,1424.24 2089.25,1424.93 2088.28,1423.48C2087.31,1422.02 2089.01,1417.25 2092.85,1416.64Z" style="fill:#fafbf6;stroke:#0f0f1b;stroke-width:3px;"/>
                <path id="arm-left" d="M2104.75,1415.92C2106.61,1417.25 2108.1,1417.72 2108.03,1418.09C2107.84,1419.08 2106.3,1419.75 2104.39,1419.56C2102.48,1419.37 2101.01,1418.4 2101.11,1417.39C2101.21,1416.39 2103.23,1414.83 2104.75,1415.92Z" style="fill:#fafbf6;stroke:#0f0f1b;stroke-width:3px;"/>
            </g>
            <path d="M2169.58,1421.12C2169.58,1421.12 2125.57,1430.83 2115.71,1424.25" style="fill:none;stroke:#fafbf6;stroke-width:5px;"/>
            <path d="M2056.8,1410.34C2056.8,1410.34 2014.27,1395.45 2009.35,1384.65" style="fill:none;stroke:#fafbf6;stroke-width:5px;"/>
        </g>
        <g transform="matrix(24,0,0,24,2104.59,1368.8)">
        </g>
        <text x="2039.23px" y="1368.81px" style="font-family:'ArialMT', 'Arial', sans-serif;font-size:24px;">Swing</text>
    </g>
</svg>
