<?xml version="1.0" encoding="UTF-8" standalone="no"?>
<!DOCTYPE svg PUBLIC "-//W3C//DTD SVG 1.1//EN" "http://www.w3.org/Graphics/SVG/1.1/DTD/svg11.dtd">
<svg width="8269px" height="2311px" version="1.1" xmlns="http://www.w3.org/2000/svg" xmlns:xlink="http://www.w3.org/1999/xlink" xml:space="preserve" xmlns:serif="http://www.serif.com/" style="fill-rule:evenodd;clip-rule:evenodd;stroke-linecap:round;stroke-linejoin:round;stroke-miterlimit:1;">
    <rect id="level1" x="0" y="0" width="8268.22" height="2310.37" style="fill:#565a75;"/>
    <clipPath id="_clip1">
        <rect id="level11" serif:id="level1" x="0" y="0" width="8268.22" height="2310.37"/>
    </clipPath>
    <g clip-path="url(#_clip1)">
        <g id="mountain">
            <path id="mountain1" serif:id="mountain" d="M3319.39,1248.19C3297.27,1144.64 3147.42,1083.12 3059.96,1064.87C2972.5,1046.62 2883.48,1161.73 2794.62,1138.67C2702.91,1114.88 2624.25,955.473 2509.73,922.102C2374.41,882.671 2156.82,926.295 1982.7,902.086C1799.62,876.633 1586.67,762.318 1411.25,769.381C1240.74,776.246 1095.23,901.138 930.18,944.462C742.556,993.711 439.613,1006.16 285.504,1064.87C172.267,1108.01 126.624,1292.41 5.525,1296.74C-137.17,1301.85 -436.179,1103.62 -570.668,1095.53C-662.724,1089.99 -763.399,1198.35 -801.409,1248.19C-831.006,1287 -841.671,1371.39 -798.729,1394.59C-647.422,1476.33 -213.475,1695.66 106.432,1738.65C616.409,1807.17 1740.16,1783.57 2261.13,1805.74C2585.3,1819.53 3055.91,1964.56 3232.29,1871.64C3408.66,1778.71 3348.11,1382.65 3319.39,1248.19Z" style="fill:#c6b7be;stroke:#c6b7be;stroke-width:7px;"/>
            <path d="M3056.6,1068.92C3032.62,1064.47 2924.58,1094.43 2974.06,1103.61C3038.28,1115.52 3060.32,1091.74 3094.94,1103.61C3129.57,1115.47 3128.92,1161.98 3162.07,1146.75C3195.23,1131.51 3213.14,1126.03 3230.32,1155.9C3247.5,1185.78 3284.25,1199.74 3274.06,1177.91C3271.46,1172.36 3242.04,1145.07 3193.72,1119.77C3150.45,1097.12 3094.03,1075.86 3056.6,1068.92Z" style="fill:#fafbf6;stroke:#fafbf6;stroke-width:7px;"/>
            <path d="M2441.68,919.509C2387.61,915.343 2243.41,900.342 2339.96,952.628C2397.4,983.735 2426.22,940.761 2460.85,952.628C2495.47,964.495 2494.83,1011 2527.98,995.767C2561.13,980.532 2571.11,980.541 2588.29,1010.42C2605.47,1040.29 2660.27,1052.38 2645.11,1033.66C2573.45,945.105 2506.29,924.487 2441.68,919.509Z" style="fill:#fafbf6;stroke:#fafbf6;stroke-width:7px;"/>
            <path d="M1505.16,785.826C1437.74,769.922 1275.37,771.746 1330.39,816.796C1380.94,858.181 1416.65,804.93 1451.28,816.796C1485.91,828.663 1485.26,875.171 1518.41,859.936C1551.56,844.701 1561.54,844.709 1578.72,874.586C1595.9,904.463 1640.27,921.449 1635.55,897.825C1631.28,876.481 1584.97,804.654 1505.16,785.826Z" style="fill:#fafbf6;stroke:#fafbf6;stroke-width:7px;"/>
            <path d="M1737.51,843.503C1703.48,825.926 1578.03,783.215 1617.04,816.748C1661.97,855.373 1653.71,887.862 1681.21,897.832C1710.92,908.605 1751.3,914.901 1759.69,899.891C1768.09,884.88 1752.94,851.469 1737.51,843.503Z" style="fill:#fafbf6;stroke:#c6b7be;stroke-width:7px;"/>
            <path d="M1253.59,866.687C1246,864.622 1241.32,851.825 1237.07,849.821C1226.42,844.8 1212.22,842.355 1209.8,850.411C1207.37,858.467 1217.2,887.897 1221.32,883.49C1233.04,870.937 1264.37,891.118 1262.3,902.353C1259.78,916.012 1388.93,920.838 1355.07,906.666C1335.59,898.518 1323.49,871.146 1301.2,867.262C1283.51,864.178 1264.28,869.594 1253.59,866.687Z" style="fill:#fafbf6;stroke:#c6b7be;stroke-width:7px;"/>
            <path d="M260.881,1089.76C243.028,1102.69 102.452,1226.4 205.595,1202.45C269.226,1187.68 259.256,1133.88 292.374,1118.29C325.493,1102.7 357.406,1136.54 370.597,1102.52C383.789,1068.51 390.957,1061.57 424.091,1071.05C457.225,1080.54 500.897,1061.84 481.06,1048.17C463.139,1035.82 327.292,1041.64 260.881,1089.76Z" style="fill:#fafbf6;stroke:#fafbf6;stroke-width:7px;"/>
        </g>
        <g id="mountain2" serif:id="mountain">
            <path id="mountain3" serif:id="mountain" d="M6975.39,877.216C6953.27,773.665 6803.43,712.152 6715.96,693.899C6628.5,675.646 6539.48,790.757 6450.62,767.7C6358.91,743.905 6280.25,584.501 6165.73,551.13C6030.41,511.699 5812.83,555.323 5638.7,531.114C5455.62,505.661 5242.67,391.346 5067.25,398.409C4896.74,405.274 4751.23,530.166 4586.18,573.49C4398.56,622.739 4095.61,635.186 3941.51,693.899C3828.27,737.041 3691.37,813.476 3661.53,925.772C3631.68,1038.07 3615.05,1334.42 3762.43,1367.67C4138.37,1452.51 5396.16,1412.6 5917.13,1434.77C6241.3,1448.56 6711.91,1593.59 6888.29,1500.66C7064.66,1407.74 7004.11,1011.68 6975.39,877.216Z" style="fill:#c6b7be;stroke:#c6b7be;stroke-width:7px;"/>
            <path d="M6712.6,697.946C6688.62,693.502 6580.58,723.454 6630.06,732.634C6694.28,744.55 6716.32,720.767 6750.94,732.634C6785.57,744.5 6784.92,791.008 6818.07,775.773C6851.23,760.538 6869.14,755.053 6886.32,784.929C6903.5,814.806 6940.25,828.772 6930.06,806.943C6927.46,801.389 6898.04,774.093 6849.72,748.795C6806.46,726.145 6750.03,704.883 6712.6,697.946Z" style="fill:#fafbf6;stroke:#fafbf6;stroke-width:7px;"/>
            <path d="M6097.68,548.537C6043.61,544.371 5899.41,529.37 5995.96,581.656C6053.4,612.763 6082.22,569.789 6116.85,581.656C6151.48,593.523 6150.83,640.031 6183.98,624.795C6217.13,609.56 6227.11,609.569 6244.29,639.446C6261.47,669.322 6316.27,681.413 6301.11,662.685C6229.46,574.133 6162.29,553.515 6097.68,548.537Z" style="fill:#fafbf6;stroke:#fafbf6;stroke-width:7px;"/>
            <path d="M5161.16,414.854C5093.74,398.95 4931.38,400.774 4986.39,445.824C5036.94,487.209 5072.66,433.958 5107.28,445.824C5141.91,457.691 5141.26,504.199 5174.41,488.964C5207.57,473.729 5217.54,473.737 5234.72,503.614C5251.9,533.491 5296.27,550.477 5291.55,526.853C5287.28,505.509 5240.97,433.682 5161.16,414.854Z" style="fill:#fafbf6;stroke:#fafbf6;stroke-width:7px;"/>
            <path d="M5393.51,472.531C5359.48,454.954 5234.03,412.243 5273.04,445.776C5317.97,484.401 5309.71,516.89 5337.21,526.86C5366.93,537.633 5407.3,543.929 5415.7,528.919C5424.09,513.909 5408.94,480.497 5393.51,472.531Z" style="fill:#fafbf6;stroke:#c6b7be;stroke-width:7px;"/>
            <path d="M4909.59,495.715C4902,493.65 4897.32,480.853 4893.07,478.849C4882.42,473.828 4868.23,471.383 4865.8,479.439C4863.37,487.495 4873.2,516.925 4877.32,512.518C4889.04,499.965 4920.38,520.146 4918.3,531.381C4915.78,545.04 5044.93,549.866 5011.07,535.694C4991.59,527.546 4979.49,500.174 4957.2,496.29C4939.51,493.206 4920.28,498.622 4909.59,495.715Z" style="fill:#fafbf6;stroke:#c6b7be;stroke-width:7px;"/>
            <path d="M3846.14,746.576C3818.88,764.451 3609.53,942.775 3779.46,926.812C3884.3,916.963 3854.16,822.032 3906.79,803.326C3959.42,784.62 4022.08,850.597 4036.25,795.337C4050.42,740.077 4060.94,729.899 4119.73,754.306C4178.52,778.713 4248.38,757.251 4211.23,728.897C4177.67,703.28 3947.56,680.088 3846.14,746.576Z" style="fill:#fafbf6;stroke:#fafbf6;stroke-width:7px;"/>
        </g>
        <rect id="_-box-" serif:id="{box}" x="3241.55" y="967.793" width="79.317" height="79.317" style="fill:none;stroke:#0f0f1b;stroke-width:5px;"/>
        <rect id="_-box-1" serif:id="{box}" x="3241.55" y="882.542" width="79.317" height="79.317" style="fill:none;stroke:#0f0f1b;stroke-width:5px;"/>
        <path id="ground--collision-" serif:id="ground {collision}" d="M1614.2,-247.057C2187.82,329.174 1041.23,37.103 982.123,159.038C854.401,422.511 997.646,1165.37 1385.54,1109.38C1592.64,1079.49 2037.75,751.354 2126.34,985.516C2171.86,1105.84 2117.84,1333.14 2139.69,1516.21C2165.35,1731.11 2295.54,1885.07 2813.99,1733.48C2950.46,1693.59 2786.29,1381.86 2884.41,1155.18C2988.72,914.221 4006.38,1332.3 4001.99,1155.18C3988.8,622.953 4499.47,994.198 4929.21,1008.36C5145.93,1015.5 5297.99,1020.32 5371.86,967.979C5511.17,869.277 5538.64,350.906 5046.63,160.34C4811.08,69.105 5522.23,-28.646 5477,-144.614C5380.17,-392.887 5603.09,-761.627 5917.18,-811.408C6659.48,-929.057 6997.14,-332.457 7204.99,-17.878C7500.79,429.809 8026.39,2403.58 7170.27,2694.37C5791.92,3162.53 288.832,3241.15 -1065.11,2791.12C-1950.53,2496.83 -1205.44,576.817 -953.37,-5.788C-707.894,-573.15 1327.02,-535.543 1614.2,-247.057Z" style="fill:#565a75;stroke:#000;stroke-width:15px;stroke-miterlimit:1.5;"/>
        <path id="foreground-shadow" d="M8613.22,-345.223C8611.81,-408.289 6618.78,-219.882 6595.23,-148.069C6565.91,-58.628 6580.43,183.536 6548.39,431.787C6545.3,455.751 6583.93,479.772 6579.89,503.717C6575.79,528.038 6528.99,552.28 6523.73,576.307C6492.81,717.743 6440.53,851.703 6349.51,950.001C6309.64,993.053 6268.99,1035.54 6228,1076.89C6222.87,1082.06 6229.69,1100.68 6224.55,1105.81C6219.63,1110.73 6202.76,1102.16 6197.84,1107.04C5954.18,1348.43 5165.01,1796.44 4903.69,1710.21C4888.48,1705.19 4862.3,1738.75 4847.72,1733.95C4834.02,1729.44 4831.9,1686.56 4818.8,1682.31C4707.34,1646.14 4618,1620.5 4562.53,1625.38C4407.82,1638.97 3962.89,1723.06 3558.12,1791.09C3537.28,1794.59 3518.98,1823.03 3498.39,1826.44C3477.64,1829.87 3454.6,1808.27 3434.2,1811.58C3389.82,1818.79 3346.39,1825.67 3304.38,1832.11C2851.99,1901.47 2158.63,1908.03 1800.53,1861.95C1702.4,1849.32 1608.05,1817.92 1517.32,1775.69C1493.12,1764.43 1433.38,1803.67 1409.69,1791.03C1381.76,1776.11 1390,1709.06 1362.77,1692.67C1291.4,1649.72 1222.43,1602.55 1155.75,1555.63C1125.16,1534.1 971.167,1430.77 882.172,1369.84C848.841,1347.02 806.078,1383.4 790.395,1372.12C750.174,1343.19 779.308,1304.21 736.683,1271.17C412.18,1019.7 9.144,618.839 -108.481,117.005C-244.869,-464.886 -1167.12,-268.183 -1170.42,-228.821C-1173.53,-191.785 -1545.09,2887.51 -1540.29,3045.07C-1534.93,3220.73 8271.06,2832.83 8259.45,2746.4C8247.83,2659.97 8618.62,-103.294 8613.22,-345.223Z" style="fill:#313343;stroke:#313343;stroke-width:5px;"/>
        <circle id="_-door---to-level0---goal-" serif:id="{door} {to-level0} {goal}" cx="5169.45" cy="934.764" r="30.661" style="fill:#f0e;"/>
        <circle id="_-timeCapsule-" serif:id="{timeCapsule}" cx="4384.23" cy="763.83" r="30.661" style="fill:#00f683;"/>
        <circle id="start" cx="1364.94" cy="930.425" r="30.661" style="fill:#f0e;"/>
        <circle id="_-spinningBar---safe-" serif:id="{spinningBar} {safe}" cx="2727.95" cy="1055.15" r="30.661" style="fill:#ff1717;"/>
        <circle id="_-spinningBar-" serif:id="{spinningBar}" cx="2647.72" cy="1366.46" r="30.661" style="fill:#ff1717;"/>
        <circle id="_-spinningBar-1" serif:id="{spinningBar}" cx="2395.96" cy="1646.64" r="30.661" style="fill:#ff1717;"/>
        <circle id="_-spinningBar---safe-1" serif:id="{spinningBar} {safe}" cx="2334.64" cy="919.848" r="30.661" style="fill:#ff1717;"/>
    </g>
</svg>
