<?xml version="1.0" encoding="UTF-8" standalone="no"?>
<!DOCTYPE svg PUBLIC "-//W3C//DTD SVG 1.1//EN" "http://www.w3.org/Graphics/SVG/1.1/DTD/svg11.dtd">
<svg width="2560px" height="1440px" version="1.1" xmlns="http://www.w3.org/2000/svg" xmlns:xlink="http://www.w3.org/1999/xlink" xml:space="preserve" xmlns:serif="http://www.serif.com/" style="fill-rule:evenodd;clip-rule:evenodd;stroke-linecap:round;stroke-linejoin:round;stroke-miterlimit:1.5;">
    <rect id="level1" x="0" y="0" width="2560" height="1440" style="fill:#565a75;"/>
    <clipPath id="_clip1">
        <rect id="level11" serif:id="level1" x="0" y="0" width="2560" height="1440"/>
    </clipPath>
    <g clip-path="url(#_clip1)">
        <circle id="start" cx="106.066" cy="519.105" r="30.661" style="fill:#f0e;"/>
        <g id="Tutorial-1" serif:id="Tutorial 1">
            <path d="M880.921,644.418C872.039,661.149 880.04,705.75 880.04,705.75L803.999,748.124C803.999,748.124 809.796,668.895 803.999,647.889C801.406,638.493 737.214,638.017 737.214,638.017C708.297,636.675 709.406,452.543 737.214,453.792C793.043,440.059 886.921,439.369 938.538,453.792C965.421,453.407 967.028,637.588 938.538,638.017C938.538,638.017 886.114,634.637 880.921,644.418Z" style="fill:#565a75;stroke:#0f0f1b;stroke-width:10px;"/>
            <g id="jumplines">
                <path d="M808.433,531.49C808.433,531.49 817.912,496.912 854.894,484.204" style="fill:none;stroke:#fafbf6;stroke-width:2px;"/>
                <path d="M809.565,557.92C809.565,557.92 819.044,523.342 856.026,510.634" style="fill:none;stroke:#fafbf6;stroke-width:2px;"/>
                <path d="M833.323,555.723C833.323,555.723 842.801,521.145 879.783,508.437" style="fill:none;stroke:#fafbf6;stroke-width:2px;"/>
            </g>
            <g id="sign-jump1">
                <path id="foot-front" d="M757.152,557.491C756.424,556.841 756.114,556.082 756.355,555.213C759.272,544.69 753.558,525.195 762.344,521.281C772.829,516.61 784.583,520.542 786.673,530.134C788.703,539.451 790.832,548.18 788.166,556.492C787.817,557.578 786.314,558.451 784.135,559.101C784.523,560.623 785.062,562.811 785.043,564.668C784.982,570.624 777.713,568.203 777.747,565.06C777.75,564.742 777.206,562.74 776.797,560.322C772.654,560.643 768.067,560.528 764.282,559.953C764.19,561.524 764.043,563.82 763.45,565.615C761.583,571.271 755.393,566.755 756.38,563.771C756.5,563.409 756.606,560.504 757.152,557.491Z" style="fill:#fafbf6;stroke:#0f0f1b;stroke-width:3px;stroke-miterlimit:1;"/>
                <path id="arm-right" d="M781.825,548.374C786.146,550.344 789.488,550.896 789.414,551.542C789.214,553.285 786.013,554.71 781.825,554.71C777.637,554.71 774.236,553.291 774.236,551.542C774.236,549.794 778.29,546.762 781.825,548.374Z" style="fill:#fafbf6;stroke:#0f0f1b;stroke-width:3px;stroke-miterlimit:1;"/>
                <path id="arm-left" d="M794.161,546.122C796.314,546.884 797.877,546.922 797.911,547.295C798.002,548.301 796.708,549.374 794.82,549.72C792.932,550.066 791.251,549.541 791.07,548.548C790.888,547.555 792.4,545.499 794.161,546.122Z" style="fill:#fafbf6;stroke:#0f0f1b;stroke-width:3px;stroke-miterlimit:1;"/>
            </g>
            <g id="sign-jump2">
                <path id="foot-front1" serif:id="foot-front" d="M872.73,493.083C872.002,492.433 871.692,491.674 871.933,490.805C874.85,480.283 869.136,460.787 877.922,456.873C888.407,452.203 900.161,456.134 902.251,465.726C904.281,475.043 906.41,483.772 903.744,492.084C903.395,493.17 901.892,494.043 899.713,494.693C900.101,496.215 904.753,497.108 904.734,498.965C904.674,504.921 897.404,502.5 897.438,499.357C897.441,499.039 892.784,498.332 892.375,495.914C888.232,496.236 883.645,496.121 879.86,495.546C879.768,497.116 874.658,497.329 874.065,499.124C873.63,500.441 872.961,501.206 872.202,501.568C869.704,502.759 866.238,499.568 866.995,497.279C867.115,496.917 872.184,496.096 872.73,493.083Z" style="fill:#fafbf6;stroke:#0f0f1b;stroke-width:3px;stroke-miterlimit:1;"/>
                <path id="arm-right1" serif:id="arm-right" d="M895.521,478.614C899.842,480.584 903.184,481.137 903.11,481.783C902.91,483.525 899.709,484.951 895.521,484.951C891.333,484.951 887.932,483.531 887.932,481.783C887.932,480.034 891.986,477.003 895.521,478.614Z" style="fill:#fafbf6;stroke:#0f0f1b;stroke-width:3px;stroke-miterlimit:1;"/>
                <path id="arm-left1" serif:id="arm-left" d="M907.857,476.363C910.01,477.125 911.574,477.162 911.607,477.535C911.698,478.541 910.404,479.615 908.516,479.961C906.628,480.307 904.948,479.781 904.766,478.788C904.584,477.796 906.096,475.74 907.857,476.363Z" style="fill:#fafbf6;stroke:#0f0f1b;stroke-width:3px;stroke-miterlimit:1;"/>
            </g>
            <g id="space-text" serif:id="space text">
                <path d="M746.651,582.316C738.634,583.762 739.148,614.885 747.226,615.931C778.667,620.003 903.867,621.584 935.195,615.931C946.322,613.924 946.408,583.465 935.195,582.013C903.754,577.941 777.979,576.663 746.651,582.316Z" style="fill:#0f0f1b;stroke:#0f0f1b;stroke-width:5px;stroke-miterlimit:1;"/>
                <path d="M749.557,583.239C741.716,584.423 742.218,609.91 750.119,610.767C780.87,614.101 903.32,615.396 933.961,610.767C944.843,609.123 944.927,584.18 933.961,582.991C903.21,579.657 780.197,578.609 749.557,583.239Z" style="fill:#fafbf6;"/>
                <g transform="matrix(24,0,0,24,876.64,602.985)">
                </g>
                <text x="805.929px" y="602.985px" style="font-family:'Arial-BoldMT', 'Arial', sans-serif;font-weight:700;font-size:24px;">Space</text>
            </g>
        </g>
        <path id="ground--collision-" serif:id="ground {collision}" d="M-37.349,461.629C-37.349,461.629 224.47,794.89 634.289,799.751C821.383,801.97 1000.12,553.977 1216.27,616.748C1441.59,682.178 1748.44,717.55 1859.6,667.397C1970.09,617.548 2583.39,484.289 2630.12,531.446" style="fill:none;stroke:#0f0f1b;stroke-width:15px;stroke-miterlimit:1;"/>
        <circle id="goal" cx="1871.22" cy="607.211" r="30.661" style="fill:#f0e;"/>
        <rect id="_-box-" serif:id="{box}" x="1093.38" y="517.89" width="79.317" height="79.317" style="fill:none;stroke:#0f0f1b;stroke-width:5px;stroke-miterlimit:1;"/>
        <rect id="_-box-1" serif:id="{box}" x="1093.38" y="432.348" width="79.317" height="79.317" style="fill:none;stroke:#0f0f1b;stroke-width:5px;stroke-miterlimit:1;"/>
        <rect id="_-box-2" serif:id="{box}" x="1093.38" y="347.097" width="79.317" height="79.317" style="fill:none;stroke:#0f0f1b;stroke-width:5px;stroke-miterlimit:1;"/>
    </g>
</svg>
