<?xml version="1.0" encoding="UTF-8" standalone="no"?>
<!DOCTYPE svg PUBLIC "-//W3C//DTD SVG 1.1//EN" "http://www.w3.org/Graphics/SVG/1.1/DTD/svg11.dtd">
<svg width="8269px" height="2311px" version="1.1" xmlns="http://www.w3.org/2000/svg" xmlns:xlink="http://www.w3.org/1999/xlink" xml:space="preserve" xmlns:serif="http://www.serif.com/" style="fill-rule:evenodd;clip-rule:evenodd;stroke-linecap:round;stroke-linejoin:round;stroke-miterlimit:1;">
    <rect id="level0" x="0" y="0" width="8268.22" height="2310.37" style="fill:#565a75;"/>
    <clipPath id="_clip1">
        <rect id="level01" serif:id="level0" x="0" y="0" width="8268.22" height="2310.37"/>
    </clipPath>
    <g clip-path="url(#_clip1)">
        <g id="mountain">
            <path id="mountain1" serif:id="mountain" d="M6190.64,956.457C6168.52,852.906 6018.67,791.393 5931.21,773.14C5843.75,754.887 5754.73,869.998 5665.86,846.94C5574.16,823.146 5495.5,663.742 5380.97,630.37C5245.65,590.939 5028.07,634.564 4853.94,610.355C4670.86,584.902 4457.91,470.587 4282.49,477.65C4111.99,484.515 3966.48,609.407 3801.43,652.731C3613.8,701.979 3310.86,714.426 3156.75,773.14C3043.51,816.281 2997.87,1000.68 2876.77,1005.01C2734.08,1010.12 2435.07,811.894 2300.58,803.801C2208.52,798.262 2107.85,906.614 2069.84,956.457C2040.24,995.267 2029.58,1079.66 2072.52,1102.86C2223.83,1184.6 2657.77,1403.93 2977.68,1446.92C3487.66,1515.44 4611.4,1491.84 5132.38,1514.01C5456.55,1527.8 5927.16,1672.83 6103.53,1579.91C6279.91,1486.98 6219.36,1090.92 6190.64,956.457Z" style="fill:#c6b7be;stroke:#c6b7be;stroke-width:7px;"/>
            <path d="M5927.84,777.187C5903.86,772.743 5795.82,802.694 5845.3,811.874C5909.53,823.791 5931.56,800.008 5966.19,811.874C6000.82,823.741 6000.17,870.249 6033.32,855.014C6066.47,839.779 6084.39,834.294 6101.57,864.17C6118.75,894.047 6155.5,908.013 6145.3,886.184C6142.71,880.63 6113.28,853.334 6064.96,828.035C6021.7,805.386 5965.28,784.124 5927.84,777.187Z" style="fill:#fafbf6;stroke:#fafbf6;stroke-width:7px;"/>
            <path d="M5312.92,627.778C5258.86,623.612 5114.66,608.611 5211.21,660.897C5268.65,692.004 5297.47,649.03 5332.1,660.897C5366.72,672.763 5366.07,719.271 5399.23,704.036C5432.38,688.801 5442.35,688.81 5459.53,718.686C5476.72,748.563 5531.51,760.653 5516.36,741.925C5444.7,653.374 5377.53,632.756 5312.92,627.778Z" style="fill:#fafbf6;stroke:#fafbf6;stroke-width:7px;"/>
            <path d="M4376.4,494.094C4308.98,478.191 4146.62,480.015 4201.64,525.065C4252.18,566.45 4287.9,513.198 4322.53,525.065C4357.16,536.932 4356.51,583.44 4389.66,568.204C4422.81,552.969 4432.79,552.978 4449.97,582.855C4467.15,612.731 4511.52,629.718 4506.79,606.094C4502.53,584.75 4456.22,512.922 4376.4,494.094Z" style="fill:#fafbf6;stroke:#fafbf6;stroke-width:7px;"/>
            <path d="M4608.76,551.771C4574.73,534.195 4449.27,491.484 4488.28,525.017C4533.22,563.641 4524.96,596.131 4552.46,606.101C4582.17,616.874 4622.54,623.17 4630.94,608.16C4639.34,593.149 4624.18,559.738 4608.76,551.771Z" style="fill:#fafbf6;stroke:#c6b7be;stroke-width:7px;"/>
            <path d="M4124.84,574.956C4117.24,572.89 4112.56,560.094 4108.32,558.09C4097.67,553.069 4083.47,550.624 4081.04,558.68C4078.62,566.735 4088.45,596.166 4092.56,591.759C4104.28,579.205 4135.62,599.387 4133.55,610.621C4131.03,624.281 4260.18,629.107 4226.31,614.935C4206.84,606.786 4194.73,579.415 4172.45,575.531C4154.75,572.447 4135.52,577.862 4124.84,574.956Z" style="fill:#fafbf6;stroke:#c6b7be;stroke-width:7px;"/>
            <path d="M3132.13,798.028C3114.28,810.963 2973.7,934.669 3076.84,910.72C3140.47,895.945 3130.5,842.147 3163.62,826.558C3196.74,810.97 3228.65,844.807 3241.85,810.79C3255.04,776.773 3262.2,769.834 3295.34,779.319C3328.47,788.804 3372.14,770.112 3352.31,756.44C3334.39,744.089 3198.54,749.914 3132.13,798.028Z" style="fill:#fafbf6;stroke:#fafbf6;stroke-width:7px;"/>
            <path d="M2410.87,841.745C2416.89,869.544 2355.02,847.577 2314.56,886.137C2284.89,914.415 2269.58,827.844 2242.63,845.856C2214.65,864.549 2175.07,814.219 2301.88,803.885C2329.84,801.607 2409.04,833.296 2410.87,841.745Z" style="fill:#fafbf6;stroke:#c6b7be;stroke-width:7px;"/>
        </g>
        <g id="Store-booth" serif:id="Store booth">
            <ellipse cx="212.503" cy="288.627" rx="111.605" ry="21.332" style="fill-opacity:0.37;"/>
            <g>
                <path d="M102.453,157.997C101.417,157.997 100.575,158.839 100.575,159.875L100.575,213.783C100.575,214.82 101.417,215.661 102.453,215.661C103.49,215.661 104.331,214.82 104.331,213.783L104.331,159.875C104.331,158.839 103.49,157.997 102.453,157.997Z" style="fill:#c6b7be;stroke:#000;stroke-width:1.42px;stroke-miterlimit:1.5;"/>
                <path d="M153.982,184.156C152.946,184.156 152.105,184.997 152.105,186.034L152.105,239.942C152.105,240.978 152.946,241.82 153.982,241.82C155.019,241.82 155.86,240.978 155.86,239.942L155.86,186.034C155.86,184.997 155.019,184.156 153.982,184.156Z" style="fill:#c6b7be;stroke:#000;stroke-width:1.42px;stroke-miterlimit:1.5;"/>
                <path d="M206.858,184.156C205.822,184.156 204.98,184.997 204.98,186.034L204.98,239.942C204.98,240.978 205.822,241.82 206.858,241.82C207.894,241.82 208.736,240.978 208.736,239.942L208.736,186.034C208.736,184.997 207.894,184.156 206.858,184.156Z" style="fill:#c6b7be;stroke:#000;stroke-width:1.42px;stroke-miterlimit:1.5;"/>
                <path d="M101.66,218.938C100.778,220.138 101.036,221.828 102.236,222.71L129.874,243.028C131.074,243.91 132.764,243.652 133.646,242.452C134.528,241.252 134.27,239.562 133.07,238.68L105.432,218.363C104.232,217.481 102.542,217.739 101.66,218.938Z" style="fill:#c6b7be;stroke:#000;stroke-width:1.42px;stroke-miterlimit:1.5;"/>
                <path d="M292.391,157.997C291.355,157.997 290.513,158.839 290.513,159.875L290.513,213.783C290.513,214.82 291.355,215.661 292.391,215.661C293.428,215.661 294.269,214.82 294.269,213.783L294.269,159.875C294.269,158.839 293.428,157.997 292.391,157.997Z" style="fill:#c6b7be;stroke:#000;stroke-width:1.42px;stroke-miterlimit:1.5;"/>
                <path d="M271.543,293.951C273.032,293.951 274.241,292.742 274.241,291.252L274.241,254.284C274.241,252.795 273.032,251.586 271.543,251.586C270.053,251.586 268.845,252.795 268.845,254.284L268.845,291.252C268.845,292.742 270.053,293.951 271.543,293.951Z" style="fill:#c6b7be;stroke:#000;stroke-width:1.42px;stroke-miterlimit:1.5;"/>
                <path d="M103.434,94.573C103.979,92.6 105.774,91.233 107.821,91.233L287.632,91.233C289.692,91.233 291.496,92.618 292.028,94.608C294.876,105.254 303.69,138.21 307.266,151.577C307.631,152.942 307.341,154.4 306.481,155.522C305.62,156.643 304.288,157.302 302.874,157.303C271.372,157.34 123.691,157.509 92.034,157.545C90.612,157.547 89.271,156.884 88.409,155.753C87.547,154.623 87.263,153.154 87.641,151.784C91.356,138.328 100.5,105.201 103.434,94.573Z" style="fill:#51556b;stroke:#000;stroke-width:2px;stroke-miterlimit:1.5;"/>
                <path d="M294.269,89.355C294.269,88.319 293.428,87.478 292.391,87.478L102.453,87.478C101.417,87.478 100.575,88.319 100.575,89.355C100.575,90.392 101.417,91.233 102.453,91.233L292.391,91.233C293.428,91.233 294.269,90.392 294.269,89.355Z" style="fill:#c6b7be;stroke:#000;stroke-width:1.42px;stroke-miterlimit:1.5;"/>
                <path d="M311.76,157.997C311.76,156.961 310.918,156.12 309.882,156.12L84.962,156.12C83.926,156.12 83.085,156.961 83.085,157.997C83.085,159.034 83.926,159.875 84.962,159.875L309.882,159.875C310.918,159.875 311.76,159.034 311.76,157.997Z" style="fill:#c6b7be;stroke:#000;stroke-width:1.42px;stroke-miterlimit:1.5;"/>
                <path d="M278.098,223.796C278.273,222.282 277.793,220.765 276.78,219.627C275.766,218.49 274.314,217.839 272.79,217.839C248.366,217.839 156.531,217.839 132.215,217.839C130.7,217.839 129.256,218.482 128.243,219.608C127.23,220.734 126.742,222.238 126.902,223.744C127.726,231.526 129.159,245.063 129.918,252.235C130.206,254.951 132.496,257.013 135.227,257.015C157.155,257.034 247.629,257.111 269.476,257.13C272.191,257.132 274.476,255.098 274.788,252.401C275.618,245.232 277.192,231.628 278.098,223.796Z" style="fill:#565a75;stroke:#000;stroke-width:2px;stroke-miterlimit:1.5;"/>
                <path d="M301.446,217.839C301.446,214.564 298.787,211.906 295.513,211.906L99.332,211.906C96.057,211.906 93.399,214.564 93.399,217.839C93.399,221.113 96.057,223.772 99.332,223.772L295.513,223.772C298.787,223.772 301.446,221.113 301.446,217.839Z" style="fill:#c6b7be;stroke:#000;stroke-width:1.42px;stroke-miterlimit:1.5;"/>
            </g>
            <circle cx="198.902" cy="78.507" r="51.795" style="fill:#fafbf6;"/>
            <clipPath id="_clip2">
                <circle cx="198.902" cy="78.507" r="51.795"/>
            </clipPath>
            <g clip-path="url(#_clip2)">
                <path d="M214.016,56.05L203.562,71.564C203.417,71.757 203.338,71.992 203.338,72.234C203.338,72.844 203.839,73.345 204.448,73.345C204.741,73.345 205.021,73.23 205.229,73.025L215.516,64.137C215.592,64.068 215.691,64.029 215.794,64.029C216.02,64.029 216.205,64.215 216.205,64.44C216.205,64.443 216.205,64.446 216.205,64.448L216.205,92.383C216.203,92.61 216.015,92.796 215.788,92.796C215.667,92.796 215.551,92.742 215.472,92.65L184.365,55.433C183.361,54.224 181.871,53.52 180.299,53.511L179.216,53.511C176.294,53.511 173.889,55.916 173.889,58.838L173.889,98.177C173.889,101.099 176.294,103.504 179.216,103.504C181.065,103.503 182.786,102.54 183.754,100.965L194.208,85.451C194.354,85.258 194.433,85.022 194.433,84.78C194.433,84.171 193.932,83.67 193.322,83.67C193.03,83.67 192.75,83.785 192.542,83.99L182.255,92.877C182.179,92.947 182.08,92.985 181.977,92.985C181.751,92.985 181.566,92.8 181.566,92.574C181.566,92.572 181.566,92.569 181.566,92.566L181.566,64.659C181.568,64.432 181.755,64.247 181.982,64.247C182.104,64.247 182.22,64.3 182.299,64.393L213.405,101.609C214.418,102.807 215.909,103.499 217.477,103.498L218.588,103.498C221.51,103.498 223.915,101.093 223.915,98.171C223.915,98.171 223.915,58.838 223.915,58.838C223.915,55.916 221.51,53.511 218.588,53.511C218.577,53.511 218.566,53.511 218.555,53.511C216.706,53.511 214.984,54.474 214.016,56.05Z" style="fill:#0f0f1b;fill-rule:nonzero;"/>
            </g>
            <circle cx="198.902" cy="78.507" r="51.795" style="fill:none;stroke:#000;stroke-width:3.21px;stroke-miterlimit:1.5;"/>
            <path d="M188.532,238.952C186.701,238.774 184.856,238.774 183.024,238.952L182.117,243.368C180.361,243.637 178.641,244.098 176.986,244.743L173.992,241.372C172.316,242.134 170.719,243.056 169.222,244.126L170.644,248.405C169.258,249.515 167.998,250.775 166.888,252.161L162.609,250.738C161.539,252.236 160.617,253.833 159.855,255.509L163.227,258.502C162.581,260.157 162.12,261.878 161.852,263.634L157.435,264.541C157.257,266.373 157.257,268.217 157.435,270.049L161.852,270.956C162.12,272.712 162.581,274.433 163.227,276.088L159.855,279.082C160.617,280.757 161.539,282.354 162.609,283.852L166.888,282.429C167.998,283.815 169.258,285.075 170.644,286.186L169.222,290.464C170.719,291.534 172.316,292.456 173.992,293.218L176.986,289.847C178.641,290.492 180.361,290.953 182.117,291.222L183.024,295.638C184.856,295.816 186.701,295.816 188.532,295.638L189.44,291.222C191.195,290.953 192.916,290.492 194.571,289.847L197.565,293.218C199.24,292.456 200.838,291.534 202.335,290.464L200.912,286.186C202.299,285.075 203.558,283.815 204.669,282.429L208.947,283.852C210.017,282.354 210.94,280.757 211.701,279.082L208.33,276.088C208.975,274.433 209.436,272.712 209.705,270.956L214.122,270.049C214.3,268.217 214.3,266.373 214.122,264.541L209.705,263.634C209.436,261.878 208.975,260.157 208.33,258.502L211.701,255.509C210.94,253.833 210.017,252.236 208.947,250.738L204.669,252.161C203.558,250.775 202.299,249.515 200.912,248.405L202.335,244.126C200.838,243.056 199.24,242.134 197.565,241.372L194.571,244.743C192.916,244.098 191.195,243.637 189.44,243.368L188.532,238.952ZM185.778,264.236C187.466,264.236 188.837,265.607 188.837,267.295C188.837,268.983 187.466,270.354 185.778,270.354C184.09,270.354 182.72,268.983 182.72,267.295C182.72,265.607 184.09,264.236 185.778,264.236Z" style="fill:#c6b7be;stroke:#000;stroke-width:1.42px;stroke-miterlimit:1.5;"/>
            <path id="hat" d="M162.763,183.317C159.119,187.301 151.468,192.88 150.051,200.087C148.635,207.293 142.036,198.21 141.245,192.069C140.453,185.929 148.502,179.991 152.753,179.338C157.026,178.681 164.496,181.422 162.763,183.317Z" style="fill:#fafbf6;"/>
            <clipPath id="_clip3">
                <path d="M162.763,183.317C159.119,187.301 151.468,192.88 150.051,200.087C148.635,207.293 142.036,198.21 141.245,192.069C140.453,185.929 148.502,179.991 152.753,179.338C157.026,178.681 164.496,181.422 162.763,183.317Z"/>
            </clipPath>
            <g clip-path="url(#_clip3)">
                <path d="M147.043,186.552C146.39,189.101 146.825,190.17 146.825,190.17C146.825,190.17 148.552,190.197 149.048,189.055C149.544,187.913 150.78,183.19 149.235,184.368C147.69,185.545 147.697,184.003 147.043,186.552Z" style="fill:#c6b7be;"/>
                <path d="M147.269,198.062C149.389,199.727 150.505,199.75 150.505,199.75C150.505,199.75 150.997,196.242 150.197,197.178C149.732,197.722 145.711,194.258 145.974,195.084C146.592,197.026 145.149,196.398 147.269,198.062Z" style="fill:#c6b7be;"/>
                <path d="M154.649,184.039C154.185,187.123 153.785,188.231 153.785,188.231C153.785,188.231 157.302,187.234 157.74,185.769C158.178,184.304 157.505,178.899 155.884,180.833C154.263,182.766 155.113,180.955 154.649,184.039Z" style="fill:#c6b7be;"/>
                <path d="M142.775,189.914C144.554,187.434 145.406,186.649 145.406,186.649C145.406,186.649 141.749,185.912 140.704,186.991C139.66,188.069 137.904,193.095 140.237,192.148C142.57,191.201 140.997,192.394 142.775,189.914Z" style="fill:#c6b7be;"/>
                <path d="M154.861,179.25C156.639,176.77 157.492,175.985 157.492,175.985C157.492,175.985 153.834,175.248 152.789,176.327C151.745,177.405 149.989,182.431 152.322,181.484C154.655,180.537 153.082,181.73 154.861,179.25Z" style="fill:#c6b7be;"/>
                <path d="M149.254,191.873C146.193,192.097 145.094,190.323 144.976,190.683C144.857,191.044 147.02,193.926 148.542,194.033C150.065,194.141 154.964,192.285 152.628,191.116C150.292,189.947 152.315,191.648 149.254,191.873Z" style="fill:#565a75;"/>
                <path d="M152.712,185.075C154.025,185.792 154.598,182.684 153.089,182.813C151.579,182.942 147.049,185.549 149.514,186.351C151.98,187.153 149.941,183.562 152.712,185.075Z" style="fill:#565a75;"/>
                <path d="M150.785,192.069C149.492,192.7 152.039,196.1 152.771,194.775C153.503,193.449 153.942,188.074 151.945,189.601C149.949,191.128 153.512,190.738 150.785,192.069Z" style="fill:#c6b7be;"/>
                <path d="M160.241,184.542C162.706,185.344 165.325,180.875 163.815,181.004C162.305,181.133 157.775,183.74 160.241,184.542Z" style="fill:#565a75;"/>
                <path d="M148.235,197.67C147.94,196.135 144.215,199.08 143.965,200.31C143.129,204.419 148.877,201.004 148.235,197.67Z" style="fill:#565a75;"/>
            </g>
            <path d="M162.763,183.317C159.119,187.301 151.468,192.88 150.051,200.087C148.635,207.293 142.036,198.21 141.245,192.069C140.453,185.929 148.502,179.991 152.753,179.338C157.026,178.681 164.496,181.422 162.763,183.317Z" style="fill:none;stroke:#000;stroke-width:1.14px;stroke-miterlimit:1.5;"/>
            <g id="hat1" serif:id="hat">
                <path d="M198.117,182.39C207.332,173.194 223.683,177.775 207.204,195.673C200.395,203.069 196.536,204.604 193.804,200.549C190.3,195.347 191.166,189.327 198.117,182.39Z" style="fill:#fafbf6;"/>
                <clipPath id="_clip4">
                    <path d="M198.117,182.39C207.332,173.194 223.683,177.775 207.204,195.673C200.395,203.069 196.536,204.604 193.804,200.549C190.3,195.347 191.166,189.327 198.117,182.39Z"/>
                </clipPath>
                <g clip-path="url(#_clip4)">
                    <path d="M197.584,200.965C205.551,195.357 209.846,190.883 212.786,186.322C213.34,185.462 214.452,187.633 212.352,190.384C210.251,193.134 198.846,204.569 197.584,200.965Z" style="fill:#c6b7be;stroke:#c6b7be;stroke-width:4px;"/>
                    <path d="M196.263,184.405C193.321,189.162 194.686,188.035 196.191,186.737C197.696,185.439 198.372,185.005 196.263,184.405Z" style="fill:#c6b7be;stroke:#c6b7be;stroke-width:0.6px;"/>
                </g>
                <path d="M197.41,181.683C200.961,178.139 205.516,176.54 209.051,176.796C211.651,176.984 213.721,178.158 214.682,180.19C215.307,181.512 215.473,183.232 214.915,185.349C214.162,188.209 212.046,191.89 207.939,196.351C205.127,199.405 202.792,201.481 200.834,202.617C199.153,203.592 197.696,203.904 196.43,203.664C195.125,203.417 193.973,202.589 192.974,201.107C189.234,195.554 189.99,189.088 197.41,181.683ZM198.117,182.39C191.166,189.327 190.3,195.347 193.804,200.549C196.536,204.604 200.395,203.069 207.204,195.673C223.683,177.775 207.332,173.194 198.117,182.39Z" style="fill:#0f0f1b;"/>
                <path d="M193.529,182.938C193.556,182.923 193.589,182.922 193.618,182.935C194.057,183.131 197.567,184.693 197.665,184.737C197.666,184.738 197.666,184.738 197.667,184.739C197.667,184.739 197.667,184.74 197.666,184.74C197.648,184.769 197.428,185.114 197.221,185.439C197.014,185.765 196.584,185.865 196.254,185.665C195.499,185.207 194.193,184.415 193.364,183.911C193.206,183.815 193.111,183.643 193.116,183.458C193.12,183.274 193.222,183.105 193.385,183.017C193.445,182.984 193.496,182.956 193.529,182.938Z" style="fill:#fafbf6;stroke:#000;stroke-width:0.51px;"/>
            </g>
        </g>
        <path id="ground--collision-" serif:id="ground {collision}" d="M1614.2,-247.057C2187.82,329.174 1041.23,37.103 982.123,159.038C854.401,422.511 997.646,1165.37 1385.54,1109.38C1592.64,1079.49 1878.3,951.512 2126.34,985.516C2414.15,1024.97 2397.57,1346.13 3112.45,1346.13C3827.34,1346.13 3703.2,1031.76 4027.54,977.47C4404.11,914.445 5143.87,1129.52 5371.86,967.979C5511.17,869.277 5703.88,470.937 5387.68,231.22C5186.38,78.615 5522.23,-28.646 5477,-144.614C5380.17,-392.887 5603.09,-761.627 5917.18,-811.408C6659.48,-929.057 6997.14,-332.457 7204.99,-17.878C7500.79,429.809 8026.39,2403.58 7170.27,2694.37C5791.92,3162.53 288.832,3241.15 -1065.11,2791.12C-1950.53,2496.83 -1205.44,576.817 -953.37,-5.788C-707.894,-573.15 1327.02,-535.543 1614.2,-247.057Z" style="fill:#565a75;stroke:#000;stroke-width:15px;stroke-miterlimit:1.5;"/>
        <circle id="storeBooth" serif:id="storeBooth" cx="3075.48" cy="1236.89" r="30.661" style="fill:#f0e;"/>
        <circle id="goal" cx="4954.68" cy="930.425" r="30.661" style="fill:#f0e;"/>
        <circle id="start" cx="1380.9" cy="961.086" r="30.661" style="fill:#f0e;"/>
        <path id="foreground-shadow" d="M8622,-491.18C8620.59,-554.246 6627.55,-365.839 6604.01,-294.025C6574.69,-204.585 6589.2,37.579 6557.16,285.83C6554.07,309.794 6592.71,333.815 6588.67,357.76C6584.56,382.081 6537.76,406.323 6532.51,430.35C6501.59,571.786 6449.31,705.746 6358.28,804.044C6318.42,847.096 6277.77,889.584 6236.78,930.931C6231.65,936.101 6238.46,954.72 6233.33,959.853C6228.41,964.771 6211.54,956.204 6206.61,961.086C5962.96,1202.48 5173.78,1650.48 4912.47,1564.25C4897.26,1559.24 4871.07,1592.8 4856.49,1588C4842.8,1583.49 4840.68,1540.6 4827.58,1536.35C4716.11,1500.18 4626.77,1474.55 4571.31,1479.42C4416.59,1493.02 3971.67,1577.11 3566.9,1645.13C3546.05,1648.64 3527.75,1677.08 3507.16,1680.48C3486.41,1683.91 3463.38,1662.32 3442.98,1665.62C3398.6,1672.83 3355.17,1679.71 3313.16,1686.15C2860.76,1755.51 2167.41,1762.07 1809.3,1715.99C1711.17,1703.37 1616.83,1671.96 1526.09,1629.73C1501.9,1618.47 1442.15,1657.72 1418.47,1645.07C1390.54,1630.15 1398.78,1563.11 1371.55,1546.72C1300.18,1503.76 1231.2,1456.59 1164.53,1409.67C1133.94,1388.14 979.943,1284.81 890.948,1223.88C857.617,1201.06 814.854,1237.45 799.171,1226.17C758.95,1197.23 788.084,1158.25 745.459,1125.22C420.956,873.74 17.92,472.882 -99.705,-28.952C-236.093,-610.843 -1158.35,-414.14 -1161.65,-374.778C-1164.75,-337.742 -1536.31,2741.56 -1531.51,2899.11C-1526.15,3074.77 8279.84,2686.87 8268.22,2600.44C8256.61,2514.01 8627.4,-249.251 8622,-491.18Z" style="fill:#313343;stroke:#313343;stroke-width:5px;"/>
    </g>
</svg>
