<?xml version="1.0" encoding="UTF-8" standalone="no"?>
<!DOCTYPE svg PUBLIC "-//W3C//DTD SVG 1.1//EN" "http://www.w3.org/Graphics/SVG/1.1/DTD/svg11.dtd">
<svg width="2560px" height="1440px" version="1.1" xmlns="http://www.w3.org/2000/svg" xmlns:xlink="http://www.w3.org/1999/xlink" xml:space="preserve" xmlns:serif="http://www.serif.com/" style="fill-rule:evenodd;clip-rule:evenodd;stroke-linecap:round;stroke-linejoin:round;stroke-miterlimit:1.5;">
    <rect id="level1" x="0" y="0" width="2560" height="1440" style="fill:#565a75;"/>
    <clipPath id="_clip1">
        <rect id="level11" serif:id="level1" x="0" y="0" width="2560" height="1440"/>
    </clipPath>
    <g clip-path="url(#_clip1)">
        <circle id="start" cx="106.066" cy="519.105" r="30.661" style="fill:#f0e;"/>
        <path d="M854.038,628.017C854.038,646.96 852.953,720.845 852.953,720.845L821.713,738.253L821.713,628.017C821.713,627.007 757.214,628.017 757.214,628.017C744.212,628.017 733.657,617.462 733.657,604.461L733.657,507.348C733.657,494.347 744.212,483.792 757.214,483.792L918.538,483.792C931.539,483.792 942.094,494.347 942.094,507.348L942.094,604.461C942.094,617.462 931.539,628.017 918.538,628.017C918.538,628.017 854.038,627.505 854.038,628.017Z" style="fill:#565a75;stroke:#0f0f1b;stroke-width:10px;"/>
        <path d="M805.286,575.805C805.286,575.805 814.765,541.227 851.746,528.518" style="fill:none;stroke:#fafbf6;stroke-width:2px;"/>
        <path d="M806.418,602.234C806.418,602.234 815.897,567.657 852.878,554.948" style="fill:none;stroke:#fafbf6;stroke-width:2px;"/>
        <path d="M830.175,600.037C830.175,600.037 839.654,565.46 876.635,552.751" style="fill:none;stroke:#fafbf6;stroke-width:2px;"/>
        <g id="sign-jump1">
            <path id="foot-front" d="M754.005,601.805C753.276,601.155 752.966,600.396 753.207,599.527C756.125,589.005 750.411,569.509 759.196,565.595C769.681,560.925 781.435,564.856 783.525,574.448C785.555,583.765 787.684,592.494 785.018,600.806C784.669,601.892 783.166,602.765 780.988,603.415C781.375,604.937 781.914,607.125 781.895,608.983C781.835,614.939 774.565,612.517 774.599,609.374C774.602,609.056 774.059,607.054 773.649,604.636C769.506,604.957 764.919,604.843 761.135,604.268C761.042,605.838 760.895,608.135 760.303,609.929C758.435,615.585 752.245,611.069 753.232,608.085C753.352,607.723 753.458,604.818 754.005,601.805Z" style="fill:#fafbf6;stroke:#0f0f1b;stroke-width:3px;stroke-miterlimit:1;"/>
            <path id="arm-right" d="M778.677,592.688C782.998,594.658 786.34,595.211 786.266,595.856C786.066,597.599 782.866,599.024 778.677,599.024C774.489,599.024 771.089,597.605 771.089,595.856C771.089,594.108 775.142,591.077 778.677,592.688Z" style="fill:#fafbf6;stroke:#0f0f1b;stroke-width:3px;stroke-miterlimit:1;"/>
            <path id="arm-left" d="M791.013,590.437C793.166,591.198 794.73,591.236 794.764,591.609C794.855,592.615 793.56,593.689 791.672,594.035C789.784,594.38 788.104,593.855 787.922,592.862C787.74,591.869 789.252,589.813 791.013,590.437Z" style="fill:#fafbf6;stroke:#0f0f1b;stroke-width:3px;stroke-miterlimit:1;"/>
        </g>
        <g id="sign-jump2">
            <path id="foot-front1" serif:id="foot-front" d="M869.583,537.398C868.854,536.747 868.544,535.989 868.785,535.119C871.703,524.597 865.989,505.101 874.774,501.188C885.259,496.517 897.013,500.448 899.103,510.041C901.133,519.358 903.262,528.086 900.596,536.399C900.248,537.485 898.744,538.357 896.566,539.007C896.954,540.529 901.606,541.422 901.587,543.28C901.526,549.236 894.257,546.814 894.29,543.671C894.294,543.353 889.637,542.646 889.227,540.228C885.084,540.55 880.497,540.435 876.713,539.86C876.62,541.43 871.51,541.643 870.918,543.438C870.483,544.755 869.813,545.521 869.055,545.882C866.556,547.073 863.09,543.883 863.847,541.594C863.967,541.231 869.036,540.41 869.583,537.398Z" style="fill:#fafbf6;stroke:#0f0f1b;stroke-width:3px;stroke-miterlimit:1;"/>
            <path id="arm-right1" serif:id="arm-right" d="M892.373,522.929C896.694,524.898 900.036,525.451 899.962,526.097C899.762,527.839 896.562,529.265 892.373,529.265C888.185,529.265 884.785,527.845 884.785,526.097C884.785,524.348 888.838,521.317 892.373,522.929Z" style="fill:#fafbf6;stroke:#0f0f1b;stroke-width:3px;stroke-miterlimit:1;"/>
            <path id="arm-left1" serif:id="arm-left" d="M904.709,520.677C906.862,521.439 908.426,521.477 908.46,521.849C908.551,522.855 907.256,523.929 905.368,524.275C903.48,524.621 901.8,524.095 901.618,523.103C901.436,522.11 902.948,520.054 904.709,520.677Z" style="fill:#fafbf6;stroke:#0f0f1b;stroke-width:3px;stroke-miterlimit:1;"/>
        </g>
        <path id="ground--collision-" serif:id="ground {collision}" d="M-37.349,461.629C-37.349,461.629 224.47,794.89 634.289,799.751C821.383,801.97 1000.12,553.977 1216.27,616.748C1441.59,682.178 1748.44,717.55 1859.6,667.397C1970.09,617.548 2583.39,484.289 2630.12,531.446" style="fill:none;stroke:#0f0f1b;stroke-width:10px;stroke-miterlimit:1;"/>
        <circle id="goal" cx="1871.22" cy="607.211" r="30.661" style="fill:#f0e;"/>
    </g>
</svg>
