<?xml version="1.0" encoding="UTF-8" standalone="no"?>
<!DOCTYPE svg PUBLIC "-//W3C//DTD SVG 1.1//EN" "http://www.w3.org/Graphics/SVG/1.1/DTD/svg11.dtd">
<svg width="8269px" height="2311px" version="1.1" xmlns="http://www.w3.org/2000/svg" xmlns:xlink="http://www.w3.org/1999/xlink" xml:space="preserve" xmlns:serif="http://www.serif.com/" style="fill-rule:evenodd;clip-rule:evenodd;stroke-linecap:round;stroke-linejoin:round;stroke-miterlimit:1;">
    <rect id="level0" x="0" y="0" width="8268.22" height="2310.37" style="fill:#565a75;"/>
    <clipPath id="_clip1">
        <rect id="level01" serif:id="level0" x="0" y="0" width="8268.22" height="2310.37"/>
    </clipPath>
    <g clip-path="url(#_clip1)">
        <g id="mountain--parallax-back-" serif:id="mountain {parallax-back}">
            <path d="M6190.64,956.457C6168.52,852.906 6018.67,791.393 5931.21,773.14C5843.75,754.887 5754.73,869.998 5665.86,846.94C5574.16,823.146 5495.5,663.742 5380.97,630.37C5245.65,590.939 5028.07,634.564 4853.94,610.355C4670.86,584.902 4457.91,470.587 4282.49,477.65C4111.99,484.515 3966.48,609.407 3801.43,652.731C3613.8,701.979 3310.86,714.426 3156.75,773.14C3043.51,816.281 2997.87,1000.68 2876.77,1005.01C2734.08,1010.12 2435.07,811.894 2300.58,803.801C2208.52,798.262 2107.85,906.614 2069.84,956.457C2040.24,995.267 2029.58,1079.66 2072.52,1102.86C2223.83,1184.6 2657.77,1403.93 2977.68,1446.92C3487.66,1515.44 4611.4,1491.84 5132.38,1514.01C5456.55,1527.8 5927.16,1672.83 6103.53,1579.91C6279.91,1486.98 6219.36,1090.92 6190.64,956.457Z" style="fill:#c6b7be;stroke:#c6b7be;stroke-width:7px;"/>
            <path d="M5927.84,777.187C5903.86,772.743 5795.82,802.694 5845.3,811.874C5909.53,823.791 5931.56,800.008 5966.19,811.874C6000.82,823.741 6000.17,870.249 6033.32,855.014C6066.47,839.779 6084.39,834.294 6101.57,864.17C6118.75,894.047 6155.5,908.013 6145.3,886.184C6142.71,880.63 6113.28,853.334 6064.96,828.035C6021.7,805.386 5965.28,784.124 5927.84,777.187Z" style="fill:#fafbf6;stroke:#fafbf6;stroke-width:7px;"/>
            <path d="M5312.92,627.778C5258.86,623.612 5114.66,608.611 5211.21,660.897C5268.65,692.004 5297.47,649.03 5332.1,660.897C5366.72,672.763 5366.07,719.271 5399.23,704.036C5432.38,688.801 5442.35,688.81 5459.53,718.686C5476.72,748.563 5531.51,760.653 5516.36,741.925C5444.7,653.374 5377.53,632.756 5312.92,627.778Z" style="fill:#fafbf6;stroke:#fafbf6;stroke-width:7px;"/>
            <path d="M4376.4,494.094C4308.98,478.191 4146.62,480.015 4201.64,525.065C4252.18,566.45 4287.9,513.198 4322.53,525.065C4357.16,536.932 4356.51,583.44 4389.66,568.204C4422.81,552.969 4432.79,552.978 4449.97,582.855C4467.15,612.731 4511.52,629.718 4506.79,606.094C4502.53,584.75 4456.22,512.922 4376.4,494.094Z" style="fill:#fafbf6;stroke:#fafbf6;stroke-width:7px;"/>
            <path d="M4608.76,551.771C4574.73,534.195 4449.27,491.484 4488.28,525.017C4533.22,563.641 4524.96,596.131 4552.46,606.101C4582.17,616.874 4622.54,623.17 4630.94,608.16C4639.34,593.149 4624.18,559.738 4608.76,551.771Z" style="fill:#fafbf6;stroke:#c6b7be;stroke-width:7px;"/>
            <path d="M4124.84,574.956C4117.24,572.89 4112.56,560.094 4108.32,558.09C4097.67,553.069 4083.47,550.624 4081.04,558.68C4078.62,566.735 4088.45,596.166 4092.56,591.759C4104.28,579.205 4135.62,599.387 4133.55,610.621C4131.03,624.281 4260.18,629.107 4226.31,614.935C4206.84,606.786 4194.73,579.415 4172.45,575.531C4154.75,572.447 4135.52,577.862 4124.84,574.956Z" style="fill:#fafbf6;stroke:#c6b7be;stroke-width:7px;"/>
            <path d="M3132.13,798.028C3114.28,810.963 2973.7,934.669 3076.84,910.72C3140.47,895.945 3130.5,842.147 3163.62,826.558C3196.74,810.97 3228.65,844.807 3241.85,810.79C3255.04,776.773 3262.2,769.834 3295.34,779.319C3328.47,788.804 3372.14,770.112 3352.31,756.44C3334.39,744.089 3198.54,749.914 3132.13,798.028Z" style="fill:#fafbf6;stroke:#fafbf6;stroke-width:7px;"/>
            <path d="M2410.87,841.745C2416.89,869.544 2355.02,847.577 2314.56,886.137C2284.89,914.415 2269.58,827.844 2242.63,845.856C2214.65,864.549 2175.07,814.219 2301.88,803.885C2329.84,801.607 2409.04,833.296 2410.87,841.745Z" style="fill:#fafbf6;stroke:#c6b7be;stroke-width:7px;"/>
        </g>
        <path id="ground--collision-" serif:id="ground {collision}" d="M1614.2,-247.057C2187.82,329.174 1041.23,37.103 982.123,159.038C854.401,422.511 997.646,1165.37 1385.54,1109.38C1592.64,1079.49 1878.3,951.512 2126.34,985.516C2414.15,1024.97 2397.57,1346.13 3112.45,1346.13C3827.34,1346.13 3703.2,1031.76 4027.54,977.47C4404.11,914.445 5143.87,1129.52 5371.86,967.979C5511.17,869.277 5703.88,470.937 5387.68,231.22C5186.38,78.615 5522.23,-28.646 5477,-144.614C5380.17,-392.887 5603.09,-761.627 5917.18,-811.408C6659.48,-929.057 6997.14,-332.457 7204.99,-17.878C7500.79,429.809 8026.39,2403.58 7170.27,2694.37C5791.92,3162.53 288.832,3241.15 -1065.11,2791.12C-1950.53,2496.83 -1205.44,576.817 -953.37,-5.788C-707.894,-573.15 1327.02,-535.543 1614.2,-247.057Z" style="fill:#565a75;stroke:#000;stroke-width:15px;stroke-miterlimit:1.5;"/>
        <circle id="storeBooth" cx="3075.48" cy="1236.89" r="30.661" style="fill:#f0e;"/>
        <circle id="_-door---to-level1---numCapsules-1-" serif:id="{door} {to-level1} {numCapsules-1}" cx="4164.77" cy="880.077" r="30.661" style="fill:#f0e;"/>
        <circle id="_-door---to-level2---numCapsules-2-" serif:id="{door} {to-level2} {numCapsules-2}" cx="4551.13" cy="910.738" r="30.661" style="fill:#f0e;"/>
        <circle id="_-door---to-level3---numCapsules-3-" serif:id="{door} {to-level3} {numCapsules-3}" cx="4997.41" cy="941.4" r="30.661" style="fill:#f0e;"/>
        <circle id="start" cx="1364.94" cy="930.425" r="30.661" style="fill:#f0e;"/>
        <path id="foreground-shadow--parallax-front-" serif:id="foreground-shadow {parallax-front}" d="M8622,-491.18C8620.59,-554.246 6627.55,-365.839 6604.01,-294.025C6574.69,-204.585 6589.2,37.579 6557.16,285.83C6554.07,309.794 6592.71,333.815 6588.67,357.76C6584.56,382.081 6537.76,406.323 6532.51,430.35C6501.59,571.786 6449.31,705.746 6358.28,804.044C6318.42,847.096 6277.77,889.584 6236.78,930.931C6231.65,936.101 6238.46,954.72 6233.33,959.853C6228.41,964.771 6211.54,956.204 6206.61,961.086C5962.96,1202.48 5173.78,1650.48 4912.47,1564.25C4897.26,1559.24 4871.07,1592.8 4856.49,1588C4842.8,1583.49 4840.68,1540.6 4827.58,1536.35C4716.11,1500.18 4626.77,1474.55 4571.31,1479.42C4416.59,1493.02 3971.67,1577.11 3566.9,1645.13C3546.05,1648.64 3527.75,1677.08 3507.16,1680.48C3486.41,1683.91 3463.38,1662.32 3442.98,1665.62C3398.6,1672.83 3355.17,1679.71 3313.16,1686.15C2860.76,1755.51 2167.41,1762.07 1809.3,1715.99C1711.17,1703.37 1616.83,1671.96 1526.09,1629.73C1501.9,1618.47 1442.15,1657.72 1418.47,1645.07C1390.54,1630.15 1398.78,1563.11 1371.55,1546.72C1300.18,1503.76 1231.2,1456.59 1164.53,1409.67C1133.94,1388.14 979.943,1284.81 890.948,1223.88C857.617,1201.06 814.854,1237.45 799.171,1226.17C758.95,1197.23 788.084,1158.25 745.459,1125.22C420.956,873.74 17.92,472.882 -99.705,-28.952C-236.093,-610.843 -1158.35,-414.14 -1161.65,-374.778C-1164.75,-337.742 -1536.31,2741.56 -1531.51,2899.11C-1526.15,3074.77 8279.84,2686.87 8268.22,2600.44C8256.61,2514.01 8627.4,-249.251 8622,-491.18Z" style="fill:#313343;stroke:#313343;stroke-width:5px;"/>
    </g>
</svg>
