<?xml version="1.0" encoding="UTF-8" standalone="no"?>
<!DOCTYPE svg PUBLIC "-//W3C//DTD SVG 1.1//EN" "http://www.w3.org/Graphics/SVG/1.1/DTD/svg11.dtd">
<svg width="14934px" height="5410px" version="1.1" xmlns="http://www.w3.org/2000/svg" xmlns:xlink="http://www.w3.org/1999/xlink" xml:space="preserve" xmlns:serif="http://www.serif.com/" style="fill-rule:evenodd;clip-rule:evenodd;stroke-linecap:round;stroke-linejoin:round;stroke-miterlimit:1;">
    <rect id="level2" x="-0" y="-0" width="14933.2" height="5409.21" style="fill:#565a75;"/>
    <clipPath id="_clip1">
        <rect id="level21" serif:id="level2" x="-0" y="-0" width="14933.2" height="5409.21"/>
    </clipPath>
    <g clip-path="url(#_clip1)">
        <g id="mountain--parallax-back-" serif:id="mountain {parallax-back}">
            <path d="M1167.94,1875.97C1182.43,1782.24 1339.91,1710.91 1427.37,1692.65C1514.83,1674.4 1603.86,1789.51 1692.72,1766.45C1784.42,1742.66 1863.08,1583.26 1977.61,1549.88C2112.93,1510.45 2330.51,1554.08 2504.64,1529.87C2687.72,1504.41 2900.67,1390.1 3076.09,1397.16C3246.6,1404.03 3392.1,1528.92 3557.15,1572.24C3744.78,1621.49 4047.72,1633.94 4201.83,1692.65C4315.07,1735.8 4360.71,1920.19 4481.81,1924.53C4624.5,1929.64 4923.51,1731.41 5058,1723.31C5150.06,1717.78 5197.25,1864.38 5288.74,1875.97C5397.01,1889.68 5581.01,1749.89 5707.63,1805.6C5896.4,1888.65 6076.04,2023.02 6109.94,2244.52C6135.96,2414.51 4958.62,2374.85 4380.9,2366.43C3747.84,2357.2 2818.33,2207.7 2311.59,2189.14C1987.34,2177.26 1531.04,2307.23 1340.43,2255.04C1206.54,2218.37 1153.45,1969.7 1167.94,1875.97Z" style="fill:#c6b7be;stroke:#c6b7be;stroke-width:7px;"/>
            <path d="M1430.74,1696.7C1454.72,1692.26 1562.76,1722.21 1513.28,1731.39C1449.05,1743.3 1427.02,1719.52 1392.39,1731.39C1357.76,1743.25 1358.41,1789.76 1325.26,1774.53C1292.11,1759.29 1274.2,1753.81 1257.01,1783.68C1239.83,1813.56 1203.08,1827.53 1213.28,1805.7C1215.87,1800.14 1245.3,1772.85 1293.62,1747.55C1336.88,1724.9 1393.3,1703.64 1430.74,1696.7Z" style="fill:#fafbf6;stroke:#fafbf6;stroke-width:7px;"/>
            <path d="M2045.66,1547.29C2099.72,1543.12 2243.93,1528.12 2147.37,1580.41C2089.93,1611.52 2061.11,1568.54 2026.49,1580.41C1991.86,1592.28 1992.51,1638.78 1959.36,1623.55C1926.2,1608.31 1916.23,1608.32 1899.05,1638.2C1881.86,1668.08 1827.07,1680.17 1842.22,1661.44C1913.88,1572.89 1981.05,1552.27 2045.66,1547.29Z" style="fill:#fafbf6;stroke:#fafbf6;stroke-width:7px;"/>
            <path d="M2982.18,1413.61C3049.6,1397.7 3211.96,1399.53 3156.94,1444.58C3106.4,1485.96 3070.68,1432.71 3036.05,1444.58C3001.43,1456.44 3002.07,1502.95 2968.92,1487.72C2935.77,1472.48 2925.79,1472.49 2908.61,1502.37C2891.43,1532.25 2847.07,1549.23 2851.79,1525.61C2856.05,1504.26 2902.36,1432.44 2982.18,1413.61Z" style="fill:#fafbf6;stroke:#fafbf6;stroke-width:7px;"/>
            <path d="M2749.82,1471.29C2783.85,1453.71 2909.31,1411 2870.3,1444.53C2825.36,1483.15 2833.62,1515.64 2806.12,1525.61C2776.41,1536.39 2736.04,1542.68 2727.64,1527.67C2719.24,1512.66 2734.4,1479.25 2749.82,1471.29Z" style="fill:#fafbf6;stroke:#c6b7be;stroke-width:7px;"/>
            <path d="M3233.74,1494.47C3241.34,1492.4 3246.02,1479.61 3250.27,1477.6C3260.91,1472.58 3275.11,1470.14 3277.54,1478.19C3279.96,1486.25 3270.13,1515.68 3266.02,1511.27C3254.3,1498.72 3222.96,1518.9 3225.03,1530.13C3227.55,1543.79 3098.4,1548.62 3132.27,1534.45C3151.74,1526.3 3163.85,1498.93 3186.13,1495.04C3203.83,1491.96 3223.06,1497.38 3233.74,1494.47Z" style="fill:#fafbf6;stroke:#c6b7be;stroke-width:7px;"/>
            <path d="M4226.45,1717.54C4244.31,1730.48 4384.88,1854.18 4281.74,1830.23C4218.11,1815.46 4228.08,1761.66 4194.96,1746.07C4161.84,1730.48 4129.93,1764.32 4116.74,1730.3C4103.55,1696.29 4096.38,1689.35 4063.24,1698.83C4030.11,1708.32 3986.44,1689.62 4006.27,1675.95C4024.19,1663.6 4160.04,1669.43 4226.45,1717.54Z" style="fill:#fafbf6;stroke:#fafbf6;stroke-width:7px;"/>
            <path d="M4935.2,1769.72C4929.19,1797.52 4991.06,1775.55 5031.52,1814.11C5061.19,1842.39 5076.49,1755.82 5103.45,1773.83C5131.43,1792.52 5171,1742.19 5044.2,1731.86C5016.24,1729.58 4937.03,1761.27 4935.2,1769.72Z" style="fill:#fafbf6;stroke:#c6b7be;stroke-width:7px;"/>
            <path d="M5527.61,1832.05C5521.59,1859.85 5668.9,1818.15 5695.85,1836.16C5723.83,1854.86 5763.4,1804.53 5636.6,1794.19C5608.64,1791.91 5529.43,1823.6 5527.61,1832.05Z" style="fill:#fafbf6;stroke:#c6b7be;stroke-width:7px;"/>
        </g>
        <g id="mountain--parallax-back-1" serif:id="mountain {parallax-back}">
            <path d="M4674.25,2417.13C4688.74,2323.4 4846.21,2252.06 4933.68,2233.81C5021.14,2215.56 5110.16,2330.67 5199.02,2307.61C5290.73,2283.82 5369.39,2124.41 5483.91,2091.04C5619.23,2051.61 5836.81,2095.23 6010.94,2071.03C6194.02,2045.57 6406.97,1931.26 6582.39,1938.32C6752.9,1945.18 6898.4,2070.08 7063.46,2113.4C7251.08,2162.65 7554.02,2175.1 7708.13,2233.81C7821.37,2276.95 7867.01,2461.35 7988.11,2465.68C8130.81,2470.79 8429.82,2272.56 8564.31,2264.47C8656.36,2258.93 8703.56,2405.54 8795.05,2417.13C8903.32,2430.84 9087.31,2291.05 9213.93,2346.76C9402.7,2429.81 9582.34,2564.17 9616.25,2785.68C9642.26,2955.67 8464.92,2916.01 7887.2,2907.59C7254.15,2898.36 6324.64,2748.86 5817.89,2730.3C5493.65,2718.42 5037.35,2848.39 4846.74,2796.19C4712.85,2759.53 4659.76,2510.86 4674.25,2417.13Z" style="fill:#c6b7be;stroke:#c6b7be;stroke-width:7px;"/>
            <path d="M4937.04,2237.86C4961.02,2233.41 5069.06,2263.37 5019.58,2272.55C4955.35,2284.46 4933.32,2260.68 4898.69,2272.55C4864.07,2284.41 4864.72,2330.92 4831.56,2315.68C4798.41,2300.45 4780.5,2294.96 4763.32,2324.84C4746.14,2354.72 4709.39,2368.68 4719.58,2346.85C4722.17,2341.3 4751.6,2314 4799.92,2288.71C4843.18,2266.06 4899.61,2244.8 4937.04,2237.86Z" style="fill:#fafbf6;stroke:#fafbf6;stroke-width:7px;"/>
            <path d="M5551.96,2088.45C5606.03,2084.28 5750.23,2069.28 5653.68,2121.57C5596.24,2152.67 5567.42,2109.7 5532.79,2121.57C5498.16,2133.43 5498.81,2179.94 5465.66,2164.71C5432.51,2149.47 5422.53,2149.48 5405.35,2179.36C5388.17,2209.23 5333.37,2221.32 5348.53,2202.6C5420.18,2114.04 5487.35,2093.43 5551.96,2088.45Z" style="fill:#fafbf6;stroke:#fafbf6;stroke-width:7px;"/>
            <path d="M6488.48,1954.77C6555.9,1938.86 6718.26,1940.68 6663.24,1985.74C6612.7,2027.12 6576.98,1973.87 6542.36,1985.74C6507.73,1997.6 6508.38,2044.11 6475.23,2028.88C6442.07,2013.64 6432.1,2013.65 6414.92,2043.53C6397.73,2073.4 6353.37,2090.39 6358.09,2066.76C6362.36,2045.42 6408.66,1973.59 6488.48,1954.77Z" style="fill:#fafbf6;stroke:#fafbf6;stroke-width:7px;"/>
            <path d="M6256.13,2012.44C6290.16,1994.87 6415.61,1952.15 6376.6,1985.69C6331.67,2024.31 6339.93,2056.8 6312.43,2066.77C6282.71,2077.54 6242.34,2083.84 6233.94,2068.83C6225.55,2053.82 6240.7,2020.41 6256.13,2012.44Z" style="fill:#fafbf6;stroke:#c6b7be;stroke-width:7px;"/>
            <path d="M6740.05,2035.63C6747.64,2033.56 6752.32,2020.76 6756.57,2018.76C6767.22,2013.74 6781.41,2011.29 6783.84,2019.35C6786.27,2027.41 6776.44,2056.84 6772.32,2052.43C6760.6,2039.88 6729.26,2060.06 6731.34,2071.29C6733.86,2084.95 6604.7,2089.78 6638.57,2075.61C6658.05,2067.46 6670.15,2040.09 6692.43,2036.2C6710.13,2033.12 6729.36,2038.53 6740.05,2035.63Z" style="fill:#fafbf6;stroke:#c6b7be;stroke-width:7px;"/>
            <path d="M7732.76,2258.7C7750.61,2271.63 7891.19,2395.34 7788.04,2371.39C7724.41,2356.62 7734.38,2302.82 7701.26,2287.23C7668.15,2271.64 7636.23,2305.48 7623.04,2271.46C7609.85,2237.44 7602.68,2230.5 7569.55,2239.99C7536.41,2249.47 7492.74,2230.78 7512.58,2217.11C7530.5,2204.76 7666.35,2210.58 7732.76,2258.7Z" style="fill:#fafbf6;stroke:#fafbf6;stroke-width:7px;"/>
            <path d="M8441.51,2310.88C8435.49,2338.68 8497.37,2316.71 8537.83,2355.27C8567.5,2383.55 8582.8,2296.97 8609.76,2314.99C8637.73,2333.68 8677.31,2283.35 8550.5,2273.01C8522.54,2270.74 8443.34,2302.43 8441.51,2310.88Z" style="fill:#fafbf6;stroke:#c6b7be;stroke-width:7px;"/>
            <path d="M9033.91,2373.21C9027.89,2401.01 9175.2,2359.31 9202.16,2377.32C9230.13,2396.01 9269.71,2345.68 9142.9,2335.35C9114.94,2333.07 9035.74,2364.76 9033.91,2373.21Z" style="fill:#fafbf6;stroke:#c6b7be;stroke-width:7px;"/>
        </g>
        <g id="mountain--parallax-back-2" serif:id="mountain {parallax-back}">
            <path d="M8341.97,1519.86C8356.45,1426.12 8513.93,1354.79 8601.39,1336.54C8688.85,1318.29 8777.87,1433.4 8866.74,1410.34C8958.44,1386.54 9037.1,1227.14 9151.63,1193.77C9286.95,1154.34 9504.53,1197.96 9678.66,1173.75C9861.74,1148.3 10074.7,1033.99 10250.1,1041.05C10420.6,1047.91 10566.1,1172.81 10731.2,1216.13C10918.8,1265.38 11221.7,1277.83 11375.8,1336.54C11489.1,1379.68 11534.7,1564.08 11655.8,1568.41C11798.5,1573.52 12097.5,1375.29 12232,1367.2C12324.1,1361.66 12371.3,1508.27 12462.8,1519.86C12571,1533.57 12755,1393.78 12881.6,1449.49C13070.4,1532.54 13250.1,1666.9 13284,1888.4C13310,2058.4 12132.6,2018.74 11554.9,2010.32C10921.9,2001.09 9992.35,1851.59 9485.61,1833.03C9161.36,1821.15 8705.06,1951.12 8514.45,1898.92C8380.56,1862.26 8327.48,1613.59 8341.97,1519.86Z" style="fill:#c6b7be;stroke:#c6b7be;stroke-width:7px;"/>
            <path d="M8604.76,1340.59C8628.74,1336.14 8736.78,1366.09 8687.3,1375.27C8623.07,1387.19 8601.04,1363.41 8566.41,1375.27C8531.78,1387.14 8532.43,1433.65 8499.28,1418.41C8466.13,1403.18 8448.22,1397.69 8431.03,1427.57C8413.85,1457.45 8377.1,1471.41 8387.3,1449.58C8389.89,1444.03 8419.32,1416.73 8467.64,1391.43C8510.9,1368.78 8567.32,1347.52 8604.76,1340.59Z" style="fill:#fafbf6;stroke:#fafbf6;stroke-width:7px;"/>
            <path d="M9219.68,1191.18C9273.74,1187.01 9417.94,1172.01 9321.39,1224.3C9263.95,1255.4 9235.13,1212.43 9200.51,1224.3C9165.88,1236.16 9166.53,1282.67 9133.38,1267.43C9100.22,1252.2 9090.25,1252.21 9073.07,1282.09C9055.88,1311.96 9001.09,1324.05 9016.24,1305.32C9087.9,1216.77 9155.07,1196.15 9219.68,1191.18Z" style="fill:#fafbf6;stroke:#fafbf6;stroke-width:7px;"/>
            <path d="M10156.2,1057.49C10223.6,1041.59 10386,1043.41 10331,1088.46C10280.4,1129.85 10244.7,1076.6 10210.1,1088.46C10175.4,1100.33 10176.1,1146.84 10142.9,1131.6C10109.8,1116.37 10099.8,1116.38 10082.6,1146.25C10065.5,1176.13 10021.1,1193.12 10025.8,1169.49C10030.1,1148.15 10076.4,1076.32 10156.2,1057.49Z" style="fill:#fafbf6;stroke:#fafbf6;stroke-width:7px;"/>
            <path d="M9923.84,1115.17C9957.87,1097.59 10083.3,1054.88 10044.3,1088.41C9999.38,1127.04 10007.6,1159.53 9980.15,1169.5C9950.43,1180.27 9910.06,1186.57 9901.66,1171.56C9893.26,1156.55 9908.42,1123.14 9923.84,1115.17Z" style="fill:#fafbf6;stroke:#c6b7be;stroke-width:7px;"/>
            <path d="M10407.8,1138.35C10415.4,1136.29 10420,1123.49 10424.3,1121.49C10434.9,1116.47 10449.1,1114.02 10451.6,1122.08C10454,1130.13 10444.2,1159.57 10440,1155.16C10428.3,1142.6 10397,1162.79 10399.1,1174.02C10401.6,1187.68 10272.4,1192.51 10306.3,1178.33C10325.8,1170.18 10337.9,1142.81 10360.1,1138.93C10377.8,1135.85 10397.1,1141.26 10407.8,1138.35Z" style="fill:#fafbf6;stroke:#c6b7be;stroke-width:7px;"/>
            <path d="M11400.5,1361.43C11418.3,1374.36 11558.9,1498.07 11455.8,1474.12C11392.1,1459.34 11402.1,1405.55 11369,1389.96C11335.9,1374.37 11303.9,1408.21 11290.8,1374.19C11277.6,1340.17 11270.4,1333.23 11237.3,1342.72C11204.1,1352.2 11160.5,1333.51 11180.3,1319.84C11198.2,1307.49 11334.1,1313.31 11400.5,1361.43Z" style="fill:#fafbf6;stroke:#fafbf6;stroke-width:7px;"/>
            <path d="M12109.2,1413.6C12103.2,1441.4 12165.1,1419.44 12205.5,1458C12235.2,1486.27 12250.5,1399.7 12277.5,1417.71C12305.4,1436.41 12345,1386.08 12218.2,1375.74C12190.3,1373.46 12111.1,1405.15 12109.2,1413.6Z" style="fill:#fafbf6;stroke:#c6b7be;stroke-width:7px;"/>
            <path d="M12701.6,1475.94C12695.6,1503.74 12842.9,1462.04 12869.9,1480.05C12897.8,1498.74 12937.4,1448.41 12810.6,1438.08C12782.7,1435.8 12703.5,1467.49 12701.6,1475.94Z" style="fill:#fafbf6;stroke:#c6b7be;stroke-width:7px;"/>
        </g>
        <circle id="_-spinningBar-" serif:id="{spinningBar}" cx="3267.08" cy="2164.41" r="30.661" style="fill:#ff1717;"/>
        <circle id="_-spinningBar-1" serif:id="{spinningBar}" cx="3497.71" cy="2164.41" r="30.661" style="fill:#ff1717;"/>
        <circle id="_-spinningBar-2" serif:id="{spinningBar}" cx="3728.35" cy="2164.41" r="30.661" style="fill:#ff1717;"/>
        <circle id="_-spinningBar-3" serif:id="{spinningBar}" cx="3958.99" cy="2164.41" r="30.661" style="fill:#ff1717;"/>
        <circle id="_-spinningBar-4" serif:id="{spinningBar}" cx="4189.63" cy="2164.41" r="30.661" style="fill:#ff1717;"/>
        <circle id="_-spinningBar-5" serif:id="{spinningBar}" cx="4420.27" cy="2164.41" r="30.661" style="fill:#ff1717;"/>
        <circle id="_-spinningBar-6" serif:id="{spinningBar}" cx="4650.9" cy="2164.41" r="30.661" style="fill:#ff1717;"/>
        <circle id="_-spinningBar-7" serif:id="{spinningBar}" cx="4881.54" cy="2164.41" r="30.661" style="fill:#ff1717;"/>
        <circle id="_-spinningBar-8" serif:id="{spinningBar}" cx="5112.18" cy="2164.41" r="30.661" style="fill:#ff1717;"/>
        <circle id="_-spinningBar-9" serif:id="{spinningBar}" cx="5342.82" cy="2164.41" r="30.661" style="fill:#ff1717;"/>
        <circle id="_-spinningBar-10" serif:id="{spinningBar}" cx="5475.56" cy="2164.41" r="30.661" style="fill:#ff1717;"/>
        <circle id="_-spinningBar-11" serif:id="{spinningBar}" cx="5706.2" cy="2164.41" r="30.661" style="fill:#ff1717;"/>
        <circle id="_-spinningBar-12" serif:id="{spinningBar}" cx="5936.84" cy="2164.41" r="30.661" style="fill:#ff1717;"/>
        <circle id="_-spinningBar-13" serif:id="{spinningBar}" cx="6167.48" cy="2164.41" r="30.661" style="fill:#ff1717;"/>
        <circle id="_-spinningBar-14" serif:id="{spinningBar}" cx="6398.11" cy="2164.41" r="30.661" style="fill:#ff1717;"/>
        <circle id="_-spinningBar-15" serif:id="{spinningBar}" cx="6628.75" cy="2164.41" r="30.661" style="fill:#ff1717;"/>
        <g id="platform-group" serif:id="platform group">
            <rect id="_-platform-" serif:id="{platform}" x="2074.4" y="810.642" width="270.959" height="61.322" style="fill:#fafbf6;stroke:#0f0f1b;stroke-width:1.2px;stroke-linecap:butt;stroke-miterlimit:1.5;"/>
            <path id="_-patrolRoute-" serif:id="{patrolRoute}" d="M2209.88,810.642L2209.88,298.793" style="fill:none;stroke:#0f0f1b;stroke-width:2.5px;stroke-linecap:butt;stroke-miterlimit:1.5;"/>
        </g>
        <g id="platform-group1" serif:id="platform group">
            <rect id="_-platform-1" serif:id="{platform}" x="2966.45" y="1855.98" width="270.959" height="61.322" style="fill:#fafbf6;stroke:#0f0f1b;stroke-width:1.2px;stroke-linecap:butt;stroke-miterlimit:1.5;"/>
            <path id="_-patrolRoute-1" serif:id="{patrolRoute}" d="M3076.88,1886.77L3667.97,1758.2" style="fill:none;stroke:#0f0f1b;stroke-width:2.5px;stroke-linecap:butt;stroke-miterlimit:1.5;"/>
        </g>
        <g id="platform-group2" serif:id="platform group">
            <rect id="_-platform-2" serif:id="{platform}" x="1760.56" y="1353.15" width="270.959" height="61.322" style="fill:#fafbf6;stroke:#0f0f1b;stroke-width:1.2px;stroke-linecap:butt;stroke-miterlimit:1.5;"/>
            <path id="_-patrolRoute-2" serif:id="{patrolRoute}" d="M1896.04,1353.15L1896.04,841.303" style="fill:none;stroke:#0f0f1b;stroke-width:2.5px;stroke-linecap:butt;stroke-miterlimit:1.5;"/>
        </g>
        <g id="_-parallax-back-" serif:id="{parallax-back}">
            <path d="M802.733,501.04C731.051,507.565 626.759,419.967 608.667,366.208C564.539,235.087 486.69,39.582 520.789,-110.959C557.16,-271.532 793.06,-358.457 921.764,-389.74C1452.93,-518.846 3090.64,-319.291 3822.87,-287.153C4320.73,-265.302 5066.81,-298.058 5315.16,-196.915C5474.65,-131.962 5470.7,250.576 5312.97,319.704C5223.07,359.109 5070.63,399.076 4888.01,434.872C4863.9,439.598 4825.59,397.406 4800.51,401.976C4787.95,404.262 4788.97,453.371 4776.2,455.614C4388.8,523.669 3905.9,571.213 3587.81,560.162C3557.02,559.092 3536.09,531.894 3505.67,528.246C3484.81,525.744 3454.38,547.425 3433.67,543.86C3085.95,483.983 2758.71,282.695 2410.63,227.537C2385.61,223.572 2369.29,195.922 2344.03,193.574C2320.23,191.361 2287.5,214.354 2263.47,213.762C2037.62,208.201 1723.29,286.617 1427.66,363.355C1405.89,369.007 1384.22,347.63 1362.69,353.229C1334.65,360.524 1306.85,394.764 1279.39,401.836C1095.94,449.082 927.638,489.67 802.733,501.04Z" style="fill:#51556e;stroke:#51556b;stroke-width:5px;"/>
            <g id="japanese-skies" serif:id="japanese skies">
                <g>
                    <path d="M5060.09,174.884C5060.09,165.86 5052.77,158.534 5043.74,158.534L4826.52,158.534C4817.5,158.534 4810.17,165.86 4810.17,174.884C4810.17,183.907 4817.5,191.233 4826.52,191.233L5043.74,191.233C5052.77,191.233 5060.09,183.907 5060.09,174.884Z" style="fill:#565a75;"/>
                    <path d="M4916.66,225.211L4853.82,225.211C4862.85,225.211 4870.18,217.312 4870.18,207.583C4870.18,197.853 4862.85,189.954 4853.82,189.954L4916.66,189.954C4907.64,189.954 4900.31,197.853 4900.31,207.583C4900.31,217.312 4907.64,225.211 4916.66,225.211Z" style="fill:#565a75;"/>
                    <path d="M5117.47,240.282C5117.47,231.258 5110.15,223.932 5101.12,223.932L4769.14,223.932C4760.12,223.932 4752.79,231.258 4752.79,240.282C4752.79,249.305 4760.12,256.631 4769.14,256.631L5101.12,256.631C5110.15,256.631 5117.47,249.305 5117.47,240.282Z" style="fill:#565a75;"/>
                </g>
                <g>
                    <path d="M2630.74,207.583C2630.74,198.559 2623.41,191.233 2614.39,191.233L2397.17,191.233C2388.14,191.233 2380.82,198.559 2380.82,207.583C2380.82,216.606 2388.14,223.932 2397.17,223.932L2614.39,223.932C2623.41,223.932 2630.74,216.606 2630.74,207.583Z" style="fill:#565a75;"/>
                    <path d="M2487.31,257.91L2424.47,257.91C2433.49,257.91 2440.82,250.011 2440.82,240.282C2440.82,230.552 2433.49,222.653 2424.47,222.653L2487.31,222.653C2478.28,222.653 2470.96,230.552 2470.96,240.282C2470.96,250.011 2478.28,257.91 2487.31,257.91Z" style="fill:#565a75;"/>
                    <path d="M2522.13,272.981C2522.13,263.957 2514.8,256.631 2505.78,256.631L2339.79,256.631C2330.76,256.631 2323.44,263.957 2323.44,272.981C2323.44,282.004 2330.76,289.33 2339.79,289.33L2505.78,289.33C2514.8,289.33 2522.13,282.004 2522.13,272.981Z" style="fill:#565a75;"/>
                    <path d="M2440.82,338.378C2440.82,329.355 2433.49,322.029 2424.47,322.029L2339.79,322.029C2330.76,322.029 2323.44,329.355 2323.44,338.378C2323.44,347.402 2330.76,354.728 2339.79,354.728L2424.47,354.728C2433.49,354.728 2440.82,347.402 2440.82,338.378Z" style="fill:#565a75;"/>
                </g>
                <g>
                    <path d="M3633.31,33.298C3633.31,24.275 3640.64,16.949 3649.66,16.949L3866.88,16.949C3875.9,16.949 3883.23,24.275 3883.23,33.298C3883.23,42.322 3875.9,49.648 3866.88,49.648L3649.66,49.648C3640.64,49.648 3633.31,42.322 3633.31,33.298Z" style="fill:#565a75;"/>
                    <path d="M3776.74,83.626L3839.58,83.626C3830.55,83.626 3823.23,75.727 3823.23,65.997C3823.23,56.268 3830.55,48.369 3839.58,48.369L3776.74,48.369C3785.76,48.369 3793.09,56.268 3793.09,65.997C3793.09,75.727 3785.76,83.626 3776.74,83.626Z" style="fill:#565a75;"/>
                    <path d="M3741.92,98.696C3741.92,89.673 3749.25,82.347 3758.27,82.347L3924.26,82.347C3933.28,82.347 3940.61,89.673 3940.61,98.696C3940.61,107.72 3933.28,115.046 3924.26,115.046L3758.27,115.046C3749.25,115.046 3741.92,107.72 3741.92,98.696Z" style="fill:#565a75;"/>
                </g>
                <g>
                    <path d="M4320.44,372.635L4383.28,372.635C4374.25,372.635 4366.93,364.736 4366.93,355.007C4366.93,345.277 4374.25,337.378 4383.28,337.378L4320.44,337.378C4329.46,337.378 4336.79,345.277 4336.79,355.007C4336.79,364.736 4329.46,372.635 4320.44,372.635Z" style="fill:#565a75;"/>
                    <path d="M4263.17,322.029C4263.17,313.005 4270.49,305.68 4279.52,305.68L4415.52,305.68C4424.55,305.68 4431.87,313.005 4431.87,322.029C4431.87,331.052 4424.55,338.378 4415.52,338.378L4279.52,338.378C4270.49,338.378 4263.17,331.052 4263.17,322.029Z" style="fill:#565a75;"/>
                    <path d="M4263.17,386.985C4263.17,377.961 4270.49,370.635 4279.52,370.635L4610.95,370.635C4619.98,370.635 4627.3,377.961 4627.3,386.985C4627.3,396.008 4619.98,403.334 4610.95,403.334L4279.52,403.334C4270.49,403.334 4263.17,396.008 4263.17,386.985Z" style="fill:#565a75;"/>
                </g>
            </g>
            <path d="M5285.59,762.207C5213.9,768.732 5109.61,681.134 5091.52,627.375C5070.4,564.612 5041.55,487.099 5020.95,406.826C4998.52,319.395 4985.87,228.691 5003.64,150.208C5040.01,-10.365 5275.91,-97.29 5404.62,-128.573C5935.78,-257.679 7573.49,-58.124 8305.72,-25.986C8803.58,-4.135 9549.67,-36.891 9798.02,64.252C9957.51,129.205 9953.55,511.743 9795.83,580.871C9705.92,620.276 9553.49,660.243 9370.87,696.039C9346.76,700.765 9308.45,658.573 9283.36,663.143C9270.81,665.429 9271.82,714.538 9259.06,716.781C8871.66,784.836 8388.75,832.38 8070.66,821.329C8039.87,820.259 8018.94,793.061 7988.53,789.413C7967.67,786.911 7937.23,808.592 7916.53,805.027C7568.81,745.15 7241.56,543.862 6893.49,488.704C6868.46,484.739 6852.14,457.089 6826.89,454.741C6803.08,452.528 6770.36,475.521 6746.32,474.929C6520.48,469.368 6206.14,547.784 5910.52,624.522C5888.74,630.174 5867.07,608.797 5845.55,614.396C5817.51,621.691 5789.7,655.931 5762.24,663.003C5578.79,710.249 5410.49,750.837 5285.59,762.207Z" style="fill:#51556e;stroke:#51556b;stroke-width:5px;"/>
        </g>
        <path id="ground--collision-" serif:id="ground {collision}" d="M2705.3,1754.06C3114.16,1798.41 3416.22,3029.69 3420.25,3231.18C3424.27,3432.67 -82.259,3074.6 -929.05,3111.34C-1775.84,3148.08 -1329.14,1608.94 -1446.73,890.132C-1564.33,171.325 501.606,367.216 568.068,403.334C634.531,439.452 616.155,652.319 587.27,695.633C558.386,738.947 561.823,880.542 648.299,963.005C734.774,1045.47 685.508,1156.09 512.388,1313.44C291.028,1514.63 361.738,1747.99 512.388,1770.34C692.668,1797.09 891.485,1566.33 1594.07,1473.95C2296.65,1381.57 2126.82,1691.31 2705.3,1754.06Z" style="fill:#565a75;stroke:#0f0f1b;stroke-width:15px;stroke-linecap:butt;stroke-miterlimit:1.5;"/>
        <path id="ground--collision-1" serif:id="ground {collision}" d="M7180.86,1754.06C6771.99,1798.41 6469.93,3029.69 6465.91,3231.18C6461.89,3432.67 9968.41,3074.6 10815.2,3111.34C11662,3148.08 11215.3,1608.94 11332.9,890.132C11450.5,171.325 9384.55,367.216 9318.09,403.334C9251.62,439.452 9270,652.319 9298.89,695.633C9327.77,738.947 9324.33,880.542 9237.86,963.005C9151.38,1045.47 9200.65,1156.09 9373.77,1313.44C9595.13,1514.63 9524.42,1747.98 9373.77,1770.34C9193.49,1797.1 8802.25,1965.83 8292.09,1474C8284.72,1466.89 8191.17,1471.78 7855.46,1474C7616.17,1475.58 7588.1,1709.88 7180.86,1754.06Z" style="fill:#565a75;stroke:#0f0f1b;stroke-width:15px;stroke-linecap:butt;stroke-miterlimit:1.5;"/>
        <g id="japanese-skies1" serif:id="japanese skies">
            <g>
                <path d="M8888.63,174.884C8888.63,165.86 8881.31,158.534 8872.28,158.534L8655.06,158.534C8646.04,158.534 8638.71,165.86 8638.71,174.884C8638.71,183.907 8646.04,191.233 8655.06,191.233L8872.28,191.233C8881.31,191.233 8888.63,183.907 8888.63,174.884Z" style="fill:#565a75;"/>
                <path d="M8745.2,225.211L8682.37,225.211C8691.39,225.211 8698.72,217.312 8698.72,207.583C8698.72,197.853 8691.39,189.954 8682.37,189.954L8745.2,189.954C8736.18,189.954 8728.85,197.853 8728.85,207.583C8728.85,217.312 8736.18,225.211 8745.2,225.211Z" style="fill:#565a75;"/>
                <path d="M8946.01,240.282C8946.01,231.258 8938.69,223.932 8929.66,223.932L8597.68,223.932C8588.66,223.932 8581.33,231.258 8581.33,240.282C8581.33,249.305 8588.66,256.631 8597.68,256.631L8929.66,256.631C8938.69,256.631 8946.01,249.305 8946.01,240.282Z" style="fill:#565a75;"/>
            </g>
            <g>
                <path d="M6459.28,207.583C6459.28,198.559 6451.95,191.233 6442.93,191.233L6225.71,191.233C6216.69,191.233 6209.36,198.559 6209.36,207.583C6209.36,216.606 6216.69,223.932 6225.71,223.932L6442.93,223.932C6451.95,223.932 6459.28,216.606 6459.28,207.583Z" style="fill:#565a75;"/>
                <path d="M6315.85,257.91L6253.01,257.91C6262.04,257.91 6269.36,250.011 6269.36,240.282C6269.36,230.552 6262.04,222.653 6253.01,222.653L6315.85,222.653C6306.83,222.653 6299.5,230.552 6299.5,240.282C6299.5,250.011 6306.83,257.91 6315.85,257.91Z" style="fill:#565a75;"/>
                <path d="M6350.67,272.981C6350.67,263.957 6343.34,256.631 6334.32,256.631L6168.33,256.631C6159.31,256.631 6151.98,263.957 6151.98,272.981C6151.98,282.004 6159.31,289.33 6168.33,289.33L6334.32,289.33C6343.34,289.33 6350.67,282.004 6350.67,272.981Z" style="fill:#565a75;"/>
                <path d="M6269.36,338.378C6269.36,329.355 6262.04,322.029 6253.01,322.029L6168.33,322.029C6159.31,322.029 6151.98,329.355 6151.98,338.378C6151.98,347.402 6159.31,354.728 6168.33,354.728L6253.01,354.728C6262.04,354.728 6269.36,347.402 6269.36,338.378Z" style="fill:#565a75;"/>
            </g>
            <g>
                <path d="M7461.85,33.298C7461.85,24.275 7469.18,16.949 7478.2,16.949L7695.42,16.949C7704.45,16.949 7711.77,24.275 7711.77,33.298C7711.77,42.322 7704.45,49.648 7695.42,49.648L7478.2,49.648C7469.18,49.648 7461.85,42.322 7461.85,33.298Z" style="fill:#565a75;"/>
                <path d="M7605.28,83.626L7668.12,83.626C7659.1,83.626 7651.77,75.727 7651.77,65.997C7651.77,56.268 7659.1,48.369 7668.12,48.369L7605.28,48.369C7614.31,48.369 7621.63,56.268 7621.63,65.997C7621.63,75.727 7614.31,83.626 7605.28,83.626Z" style="fill:#565a75;"/>
                <path d="M7570.46,98.696C7570.46,89.673 7577.79,82.347 7586.81,82.347L7752.8,82.347C7761.83,82.347 7769.15,89.673 7769.15,98.696C7769.15,107.72 7761.83,115.046 7752.8,115.046L7586.81,115.046C7577.79,115.046 7570.46,107.72 7570.46,98.696Z" style="fill:#565a75;"/>
            </g>
            <g>
                <path d="M8148.98,372.635L8211.82,372.635C8202.8,372.635 8195.47,364.736 8195.47,355.007C8195.47,345.277 8202.8,337.378 8211.82,337.378L8148.98,337.378C8158.01,337.378 8165.33,345.277 8165.33,355.007C8165.33,364.736 8158.01,372.635 8148.98,372.635Z" style="fill:#565a75;"/>
                <path d="M8091.71,322.029C8091.71,313.005 8099.04,305.68 8108.06,305.68L8244.07,305.68C8253.09,305.68 8260.42,313.005 8260.42,322.029C8260.42,331.052 8253.09,338.378 8244.07,338.378L8108.06,338.378C8099.04,338.378 8091.71,331.052 8091.71,322.029Z" style="fill:#565a75;"/>
                <path d="M8091.71,386.985C8091.71,377.961 8099.04,370.635 8108.06,370.635L8439.5,370.635C8448.52,370.635 8455.84,377.961 8455.84,386.985C8455.84,396.008 8448.52,403.334 8439.5,403.334L8108.06,403.334C8099.04,403.334 8091.71,396.008 8091.71,386.985Z" style="fill:#565a75;"/>
            </g>
        </g>
        <path id="foreground-shadow--parallax-front-" serif:id="foreground-shadow {parallax-front}" d="M8084.42,3170.02C8072.81,3083.6 4851.87,1934.54 4590.56,1848.31C4575.35,1843.29 4549.16,1876.85 4534.58,1872.05C4520.89,1867.54 4518.77,1824.65 4505.67,1820.4C4394.2,1784.24 4304.86,1758.6 4249.4,1763.47C4094.68,1777.07 3787.87,2146.69 3383.1,2214.71C3362.25,2218.22 3343.95,2246.66 3323.36,2250.06C3302.61,2253.5 3279.58,2231.9 3259.18,2235.21C3214.8,2242.41 3171.37,2249.29 3129.36,2255.74C2676.97,2325.1 1983.61,2331.66 1625.5,2285.58C1527.38,2272.95 1433.03,2241.54 1342.29,2199.32C1318.1,2188.05 1258.35,2227.3 1234.67,2214.65C1206.74,2199.74 1214.98,2132.69 1187.75,2116.3C1116.38,2073.34 1047.4,2026.17 980.728,1979.25C950.138,1957.73 796.143,1854.39 707.148,1793.46C673.817,1770.64 631.054,1807.03 615.371,1795.75C575.15,1766.81 604.284,1727.83 561.659,1694.8C237.156,1443.32 -165.881,1042.46 -283.505,540.629C-419.894,-41.262 -1342.15,155.441 -1345.45,194.804C-1348.55,231.839 -1720.11,3311.14 -1715.31,3468.69C-1709.95,3644.35 8096.04,3256.45 8084.42,3170.02Z" style="fill:#313343;stroke:#313343;stroke-width:5px;"/>
        <path id="foreground-shadow--parallax-front-1" serif:id="foreground-shadow {parallax-front}" d="M11109.4,3807.66C11105.7,3931.32 7115.75,3984.12 5281.24,3463.2C4509.7,3244.11 4726.22,2212.8 4803.58,2187.28C4818.79,2182.26 4844.98,2215.82 4859.56,2211.02C4873.25,2206.51 4875.37,2163.62 4888.47,2159.37C4999.94,2123.21 5089.28,2097.57 5144.74,2102.44C5299.46,2116.04 5449.06,1846.2 5853.83,1914.23C5874.67,1917.73 5892.97,1946.17 5913.56,1949.58C5934.31,1953.01 5957.35,1931.41 5977.75,1934.72C6022.13,1941.93 6065.56,1948.81 6107.57,1955.25C6559.96,2024.61 7253.32,2031.17 7611.42,1985.09C7709.55,1972.47 7803.9,1941.06 7894.63,1898.83C7918.83,1887.57 7978.57,1926.82 8002.26,1914.17C8030.19,1899.25 8021.95,1832.2 8049.18,1815.82C8120.55,1772.86 8189.52,1725.69 8256.2,1678.77C8286.79,1657.24 8861.96,1551.93 8950.95,1491C8984.28,1468.18 9027.05,1504.57 9042.73,1493.29C9082.95,1464.36 9053.82,1425.38 9096.44,1392.34C9420.94,1140.87 9560.02,1381.43 9677.64,879.598C9814.03,297.707 11532.4,189.264 11535.7,228.626C11538.8,265.662 11114.3,3650.11 11109.4,3807.66Z" style="fill:#313343;stroke:#313343;stroke-width:5px;"/>
        <circle id="_-door---to-level0---goal-" serif:id="{door} {to-level0} {goal}" cx="9046.97" cy="1743.63" r="30.661" style="fill:#f0e;"/>
        <circle id="_-timeCapsule-" serif:id="{timeCapsule}" cx="2323.44" cy="287.292" r="30.661" style="fill:#00f683;"/>
        <circle id="_-timeCapsule-1" serif:id="{timeCapsule}" cx="4823.54" cy="948.855" r="30.661" style="fill:#00f683;"/>
        <circle id="start" cx="951.792" cy="1484.02" r="30.661" style="fill:#f0e;"/>
        <g id="platform-group3" serif:id="platform group">
            <rect id="_-platform-3" serif:id="{platform}" x="3667.97" y="1856.11" width="270.959" height="61.322" style="fill:#fafbf6;stroke:#0f0f1b;stroke-width:1.2px;stroke-linecap:butt;stroke-miterlimit:1.5;"/>
            <path id="_-patrolRoute-3" serif:id="{patrolRoute}" d="M3803.45,1886.77L4298.89,1758.2" style="fill:none;stroke:#0f0f1b;stroke-width:2.5px;stroke-linecap:butt;stroke-miterlimit:1.5;"/>
        </g>
        <g id="platform-group4" serif:id="platform group">
            <rect id="_-platform-4" serif:id="{platform}" x="4298.89" y="1603.14" width="270.959" height="61.322" style="fill:#fafbf6;stroke:#0f0f1b;stroke-width:1.2px;stroke-linecap:butt;stroke-miterlimit:1.5;"/>
            <path id="_-patrolRoute-4" serif:id="{patrolRoute}" d="M4434.36,1633.8C4724.6,1798.69 5029.74,1799.98 5344.59,1694.58" style="fill:none;stroke:#0f0f1b;stroke-width:2.81px;stroke-linecap:butt;stroke-miterlimit:1.5;"/>
        </g>
        <g id="platform-group5" serif:id="platform group">
            <rect id="_-platform-5" serif:id="{platform}" x="5255.98" y="1835.55" width="270.959" height="61.322" style="fill:#fafbf6;stroke:#0f0f1b;stroke-width:1.2px;stroke-linecap:butt;stroke-miterlimit:1.5;"/>
            <path id="_-patrolRoute-5" serif:id="{patrolRoute}" d="M5391.46,1866.22C5673.54,1749.43 5976.61,1679.68 6301.68,1926.99" style="fill:none;stroke:#0f0f1b;stroke-width:2.81px;stroke-linecap:butt;stroke-miterlimit:1.5;"/>
        </g>
        <g id="platform-group6" serif:id="platform group">
            <rect id="_-platform-6" serif:id="{platform}" x="5964.19" y="1697.06" width="270.959" height="61.322" style="fill:#fafbf6;stroke:#0f0f1b;stroke-width:1.2px;stroke-linecap:butt;stroke-miterlimit:1.5;"/>
            <path id="_-patrolRoute-6" serif:id="{patrolRoute}" d="M6099.67,1727.72C6381.75,1610.94 6684.82,1541.19 7009.89,1788.5" style="fill:none;stroke:#0f0f1b;stroke-width:2.81px;stroke-linecap:butt;stroke-miterlimit:1.5;"/>
        </g>
        <g id="platform-group7" serif:id="platform group">
            <rect id="_-platform-7" serif:id="{platform}" x="4792.88" y="1560.23" width="270.959" height="61.322" style="fill:#fafbf6;stroke:#0f0f1b;stroke-width:1.2px;stroke-linecap:butt;stroke-miterlimit:1.5;"/>
            <path id="_-patrolRoute-7" serif:id="{patrolRoute}" d="M4928.36,1590.9C5028.2,1549.56 5219.21,1601.84 5235.8,1496.54C5258.59,1351.95 4903.56,1134.52 4888.03,1319.1" style="fill:none;stroke:#0f0f1b;stroke-width:2.81px;stroke-linecap:butt;stroke-miterlimit:1.5;"/>
        </g>
        <g id="platform-group8" serif:id="platform group">
            <rect id="_-platform-8" serif:id="{platform}" x="4743.91" y="1353.15" width="270.959" height="61.322" style="fill:#fafbf6;stroke:#0f0f1b;stroke-width:1.2px;stroke-linecap:butt;stroke-miterlimit:1.5;"/>
            <path id="_-patrolRoute-8" serif:id="{patrolRoute}" d="M4879.39,1383.81C4779.55,1342.48 4588.54,1394.76 4571.95,1289.46C4549.16,1144.87 4904.19,927.438 4919.72,1112.01" style="fill:none;stroke:#0f0f1b;stroke-width:2.81px;stroke-linecap:butt;stroke-miterlimit:1.5;"/>
        </g>
        <rect id="_-box-" serif:id="{box}" x="8147.13" y="1375.57" width="79.317" height="79.317" style="fill:none;stroke:#0f0f1b;stroke-width:5px;"/>
        <rect id="_-box-1" serif:id="{box}" x="8147.13" y="1290.03" width="79.317" height="79.317" style="fill:none;stroke:#0f0f1b;stroke-width:5px;"/>
        <rect id="_-box-2" serif:id="{box}" x="8147.13" y="1204.77" width="79.317" height="79.317" style="fill:none;stroke:#0f0f1b;stroke-width:5px;"/>
        <rect id="_-box-3" serif:id="{box}" x="8147.13" y="1119.52" width="79.317" height="79.317" style="fill:none;stroke:#0f0f1b;stroke-width:5px;"/>
        <rect id="_-box-4" serif:id="{box}" x="8147.13" y="1033.98" width="79.317" height="79.317" style="fill:none;stroke:#0f0f1b;stroke-width:5px;"/>
        <rect id="_-box-5" serif:id="{box}" x="8147.13" y="948.73" width="79.317" height="79.317" style="fill:none;stroke:#0f0f1b;stroke-width:5px;"/>
        <rect id="_-box-6" serif:id="{box}" x="8147.13" y="863.188" width="79.317" height="79.317" style="fill:none;stroke:#0f0f1b;stroke-width:5px;"/>
        <rect id="_-box-7" serif:id="{box}" x="8147.13" y="777.646" width="79.317" height="79.317" style="fill:none;stroke:#0f0f1b;stroke-width:5px;"/>
        <rect id="_-box-8" serif:id="{box}" x="8147.13" y="692.394" width="79.317" height="79.317" style="fill:none;stroke:#0f0f1b;stroke-width:5px;"/>
    </g>
</svg>
